G04 PROTEUS GERBER X2 FILE*
%TF.GenerationSoftware,Labcenter,Proteus,8.17-SP5-Build39395*%
%TF.CreationDate,2026-01-10T11:00:32+00:00*%
%TF.FileFunction,Soldermask,Bot*%
%TF.FilePolarity,Negative*%
%TF.Part,Single*%
%TF.SameCoordinates,{bf2e7aaa-9c56-4ce5-bc4f-43878dba84a3}*%
%FSLAX45Y45*%
%MOMM*%
G01*
%TA.AperFunction,Material*%
%ADD64C,1.016000*%
%AMPPAD059*
4,1,36,
-0.508000,0.558000,
0.508000,0.558000,
0.518080,0.556980,
0.527460,0.554070,
0.535950,0.549460,
0.543350,0.543350,
0.549460,0.535950,
0.554070,0.527460,
0.556980,0.518080,
0.558000,0.508000,
0.558000,-0.508000,
0.556980,-0.518080,
0.554070,-0.527460,
0.549460,-0.535950,
0.543350,-0.543350,
0.535950,-0.549460,
0.527460,-0.554070,
0.518080,-0.556980,
0.508000,-0.558000,
-0.508000,-0.558000,
-0.518080,-0.556980,
-0.527460,-0.554070,
-0.535950,-0.549460,
-0.543350,-0.543350,
-0.549460,-0.535950,
-0.554070,-0.527460,
-0.556980,-0.518080,
-0.558000,-0.508000,
-0.558000,0.508000,
-0.556980,0.518080,
-0.554070,0.527460,
-0.549460,0.535950,
-0.543350,0.543350,
-0.535950,0.549460,
-0.527460,0.554070,
-0.518080,0.556980,
-0.508000,0.558000,
0*%
%TA.AperFunction,Material*%
%ADD65PPAD059*%
%ADD66C,1.470000*%
%AMPPAD061*
4,1,36,
0.889000,0.762000,
0.889000,-0.762000,
0.886420,-0.787590,
0.879020,-0.811430,
0.867310,-0.833000,
0.851800,-0.851800,
0.833000,-0.867310,
0.811430,-0.879020,
0.787590,-0.886420,
0.762000,-0.889000,
-0.762000,-0.889000,
-0.787590,-0.886420,
-0.811430,-0.879020,
-0.833000,-0.867310,
-0.851800,-0.851800,
-0.867310,-0.833000,
-0.879020,-0.811430,
-0.886420,-0.787590,
-0.889000,-0.762000,
-0.889000,0.762000,
-0.886420,0.787590,
-0.879020,0.811430,
-0.867310,0.833000,
-0.851800,0.851800,
-0.833000,0.867310,
-0.811430,0.879020,
-0.787590,0.886420,
-0.762000,0.889000,
0.762000,0.889000,
0.787590,0.886420,
0.811430,0.879020,
0.833000,0.867310,
0.851800,0.851800,
0.867310,0.833000,
0.879020,0.811430,
0.886420,0.787590,
0.889000,0.762000,
0*%
%TA.AperFunction,Material*%
%ADD67PPAD061*%
%ADD68C,1.778000*%
%ADD69C,1.524000*%
%AMPPAD066*
4,1,8,
-0.509800,1.397000,
0.509800,1.397000,
0.889000,1.017800,
0.889000,-1.017800,
0.509800,-1.397000,
-0.509800,-1.397000,
-0.889000,-1.017800,
-0.889000,1.017800,
-0.509800,1.397000,
0*%
%TA.AperFunction,Material*%
%ADD76PPAD066*%
%AMPPAD067*
4,1,36,
-1.651000,1.651000,
1.651000,1.651000,
1.804550,1.635520,
1.947580,1.591110,
2.077010,1.520840,
2.189790,1.427790,
2.282840,1.315010,
2.353110,1.185570,
2.397520,1.042550,
2.413000,0.889000,
2.413000,-0.889000,
2.397520,-1.042550,
2.353110,-1.185570,
2.282840,-1.315010,
2.189790,-1.427790,
2.077010,-1.520840,
1.947580,-1.591110,
1.804550,-1.635520,
1.651000,-1.651000,
-1.651000,-1.651000,
-1.804550,-1.635520,
-1.947580,-1.591110,
-2.077010,-1.520840,
-2.189790,-1.427790,
-2.282840,-1.315010,
-2.353110,-1.185570,
-2.397520,-1.042550,
-2.413000,-0.889000,
-2.413000,0.889000,
-2.397520,1.042550,
-2.353110,1.185570,
-2.282840,1.315010,
-2.189790,1.427790,
-2.077010,1.520840,
-1.947580,1.591110,
-1.804550,1.635520,
-1.651000,1.651000,
0*%
%ADD77PPAD067*%
%AMPPAD074*
4,1,68,
-0.812800,0.762000,
0.812800,0.762000,
0.859540,0.759640,
0.904930,0.752710,
0.948740,0.741440,
0.990740,0.726060,
1.030710,0.706810,
1.068400,0.683910,
1.103600,0.657580,
1.136070,0.628070,
1.165580,0.595600,
1.191900,0.560410,
1.214810,0.522710,
1.234060,0.482740,
1.249440,0.440740,
1.260710,0.396930,
1.267640,0.351540,
1.270000,0.304800,
1.270000,-0.304800,
1.267640,-0.351540,
1.260710,-0.396930,
1.249440,-0.440740,
1.234060,-0.482740,
1.214810,-0.522710,
1.191900,-0.560410,
1.165580,-0.595600,
1.136070,-0.628070,
1.103600,-0.657580,
1.068400,-0.683910,
1.030710,-0.706810,
0.990740,-0.726060,
0.948740,-0.741440,
0.904930,-0.752710,
0.859540,-0.759640,
0.812800,-0.762000,
-0.812800,-0.762000,
-0.859540,-0.759640,
-0.904930,-0.752710,
-0.948740,-0.741440,
-0.990740,-0.726060,
-1.030710,-0.706810,
-1.068400,-0.683910,
-1.103600,-0.657580,
-1.136070,-0.628070,
-1.165580,-0.595600,
-1.191900,-0.560410,
-1.214810,-0.522710,
-1.234060,-0.482740,
-1.249440,-0.440740,
-1.260710,-0.396930,
-1.267640,-0.351540,
-1.270000,-0.304800,
-1.270000,0.304800,
-1.267640,0.351540,
-1.260710,0.396930,
-1.249440,0.440740,
-1.234060,0.482740,
-1.214810,0.522710,
-1.191900,0.560410,
-1.165580,0.595600,
-1.136070,0.628070,
-1.103600,0.657580,
-1.068400,0.683910,
-1.030710,0.706810,
-0.990740,0.726060,
-0.948740,0.741440,
-0.904930,0.752710,
-0.859540,0.759640,
-0.812800,0.762000,
0*%
%TA.AperFunction,Material*%
%ADD84PPAD074*%
%ADD85C,2.032000*%
%AMPPAD076*
4,1,8,
-0.992400,0.635000,
0.992400,0.635000,
1.270000,0.357400,
1.270000,-0.357400,
0.992400,-0.635000,
-0.992400,-0.635000,
-1.270000,-0.357400,
-1.270000,0.357400,
-0.992400,0.635000,
0*%
%ADD86PPAD076*%
%AMPPAD077*
4,1,4,
0.399510,0.399510,
0.399510,-0.399510,
-0.399510,-0.399510,
-0.399510,0.399510,
0.399510,0.399510,
0*%
%TA.AperFunction,Material*%
%ADD87PPAD077*%
%ADD88C,1.130000*%
%AMPPAD079*
4,1,4,
-0.525000,0.525000,
0.525000,0.525000,
0.525000,-0.525000,
-0.525000,-0.525000,
-0.525000,0.525000,
0*%
%TA.AperFunction,Material*%
%ADD89PPAD079*%
%AMPPAD080*
4,1,36,
-0.100000,0.877000,
0.100000,0.877000,
0.206190,0.866290,
0.305110,0.835580,
0.394620,0.786980,
0.472620,0.722620,
0.536980,0.644630,
0.585580,0.555110,
0.616290,0.456190,
0.627000,0.350000,
0.627000,-0.350000,
0.616290,-0.456190,
0.585580,-0.555110,
0.536980,-0.644630,
0.472620,-0.722620,
0.394620,-0.786980,
0.305110,-0.835580,
0.206190,-0.866290,
0.100000,-0.877000,
-0.100000,-0.877000,
-0.206190,-0.866290,
-0.305110,-0.835580,
-0.394620,-0.786980,
-0.472620,-0.722620,
-0.536980,-0.644630,
-0.585580,-0.555110,
-0.616290,-0.456190,
-0.627000,-0.350000,
-0.627000,0.350000,
-0.616290,0.456190,
-0.585580,0.555110,
-0.536980,0.644630,
-0.472620,0.722620,
-0.394620,0.786980,
-0.305110,0.835580,
-0.206190,0.866290,
-0.100000,0.877000,
0*%
%ADD90PPAD080*%
%AMPPAD081*
4,1,4,
0.498510,0.498510,
0.498510,-0.498510,
-0.498510,-0.498510,
-0.498510,0.498510,
0.498510,0.498510,
0*%
%ADD91PPAD081*%
%ADD92C,1.410000*%
%AMPPAD085*
4,1,8,
-0.357400,1.016000,
0.357400,1.016000,
0.635000,0.738400,
0.635000,-0.738400,
0.357400,-1.016000,
-0.357400,-1.016000,
-0.635000,-0.738400,
-0.635000,0.738400,
-0.357400,1.016000,
0*%
%TA.AperFunction,Material*%
%ADD95PPAD085*%
%AMPPAD087*
4,1,36,
-0.889000,0.889000,
0.889000,0.889000,
1.016960,0.876100,
1.136140,0.839090,
1.244010,0.780540,
1.337990,0.702990,
1.415540,0.609010,
1.474090,0.501140,
1.511100,0.381960,
1.524000,0.254000,
1.524000,-0.254000,
1.511100,-0.381960,
1.474090,-0.501140,
1.415540,-0.609010,
1.337990,-0.702990,
1.244010,-0.780540,
1.136140,-0.839090,
1.016960,-0.876100,
0.889000,-0.889000,
-0.889000,-0.889000,
-1.016960,-0.876100,
-1.136140,-0.839090,
-1.244010,-0.780540,
-1.337990,-0.702990,
-1.415540,-0.609010,
-1.474090,-0.501140,
-1.511100,-0.381960,
-1.524000,-0.254000,
-1.524000,0.254000,
-1.511100,0.381960,
-1.474090,0.501140,
-1.415540,0.609010,
-1.337990,0.702990,
-1.244010,0.780540,
-1.136140,0.839090,
-1.016960,0.876100,
-0.889000,0.889000,
0*%
%TA.AperFunction,Material*%
%ADD97PPAD087*%
%TA.AperFunction,Material*%
%ADD98C,1.905000*%
%ADD99C,3.302000*%
%TA.AperFunction,Material*%
%ADD100C,1.050000*%
%ADD101C,1.270000*%
%ADD102C,1.651000*%
%TA.AperFunction,Profile*%
%ADD51C,0.101600*%
%TD.AperFunction*%
D64*
X-2922584Y+5866649D03*
X-2112782Y+8505784D03*
X-190500Y+8699500D03*
X-1968500Y+8636000D03*
X+286426Y+6129503D03*
X+87804Y+6129396D03*
X+243174Y+7003499D03*
X+122872Y+7003315D03*
X+1673111Y+6383020D03*
X+2159000Y+6096000D03*
X+1714500Y+6794500D03*
X-471621Y+6924491D03*
X-480000Y+8195527D03*
X-825500Y+7048500D03*
X+239984Y+6380004D03*
X-1458470Y+5347432D03*
X-1623472Y+5300000D03*
X-444501Y+6539124D03*
X-329405Y+6745229D03*
X+36253Y+6745229D03*
X+1069845Y+6745229D03*
X-760033Y+8041280D03*
X-1383120Y+8294963D03*
X-423853Y+6397102D03*
X-474168Y+6143364D03*
X-118977Y+6897631D03*
X-525516Y+6315509D03*
X-230011Y+7001982D03*
X-183144Y+6351238D03*
X-340626Y+6558191D03*
X-327275Y+6120730D03*
X-196497Y+6217719D03*
X-1723266Y+5212428D03*
D65*
X-2528000Y+5560000D03*
D66*
X-2274000Y+5560000D03*
X-2020000Y+5560000D03*
X-1766000Y+5560000D03*
X-1512000Y+5560000D03*
X-1258000Y+5560000D03*
X-1004000Y+5560000D03*
X-750000Y+5560000D03*
X-496000Y+5560000D03*
X-242000Y+5560000D03*
X+12000Y+5560000D03*
X+266000Y+5560000D03*
X+520000Y+5560000D03*
X+774000Y+5560000D03*
X+1028000Y+5560000D03*
X+1282000Y+5560000D03*
X+1536000Y+5560000D03*
X+1790000Y+5560000D03*
X+2044000Y+5560000D03*
X+2298000Y+5560000D03*
D67*
X+2292837Y+7324000D03*
D68*
X+2038837Y+7324000D03*
X+1784837Y+7324000D03*
X+1530837Y+7324000D03*
X+1276837Y+7324000D03*
X+1022837Y+7324000D03*
D69*
X+768837Y+7324000D03*
X+514837Y+7324000D03*
X+260837Y+7324000D03*
X+6837Y+7324000D03*
X-247163Y+7324000D03*
X-501163Y+7324000D03*
X-755163Y+7324000D03*
X-1009163Y+7324000D03*
D68*
X-1263163Y+7324000D03*
X-1517163Y+7324000D03*
X-1771163Y+7324000D03*
X-2025163Y+7324000D03*
X-2279163Y+7324000D03*
X-2533163Y+7324000D03*
X-2533163Y+5800000D03*
X-2279163Y+5800000D03*
X-2025163Y+5800000D03*
X-1771163Y+5800000D03*
X-1517163Y+5800000D03*
X-1263163Y+5800000D03*
D69*
X-1009163Y+5800000D03*
X-755163Y+5800000D03*
X-501163Y+5800000D03*
X-247163Y+5800000D03*
X+6837Y+5800000D03*
X+260837Y+5800000D03*
X+514837Y+5800000D03*
X+768837Y+5800000D03*
D68*
X+1022837Y+5800000D03*
X+1276837Y+5800000D03*
X+1530837Y+5800000D03*
X+1784837Y+5800000D03*
X+2038837Y+5800000D03*
X+2292837Y+5800000D03*
D65*
X+2293000Y+7580000D03*
D66*
X+2039000Y+7580000D03*
X+1785000Y+7580000D03*
X+1531000Y+7580000D03*
X+1277000Y+7580000D03*
X+1023000Y+7580000D03*
X+769000Y+7580000D03*
X+515000Y+7580000D03*
X+261000Y+7580000D03*
X+7000Y+7580000D03*
X-247000Y+7580000D03*
X-501000Y+7580000D03*
X-755000Y+7580000D03*
X-1009000Y+7580000D03*
X-1263000Y+7580000D03*
X-1517000Y+7580000D03*
X-1771000Y+7580000D03*
X-2025000Y+7580000D03*
X-2279000Y+7580000D03*
X-2533000Y+7580000D03*
D76*
X-2770000Y+5430000D03*
D77*
X-3370000Y+5430000D03*
X-3070000Y+4930000D03*
D84*
X-1520000Y+4710000D03*
D85*
X-1520000Y+4964000D03*
D69*
X-662000Y+8769000D03*
X-662000Y+9023000D03*
D86*
X+269605Y+8882000D03*
X-218395Y+8882000D03*
D87*
X+2446000Y+9254000D03*
D88*
X+2192000Y+9254000D03*
X+1938000Y+9254000D03*
X+1684000Y+9254000D03*
X+1430000Y+9254000D03*
X+1176000Y+9254000D03*
X+922000Y+9254000D03*
X+668000Y+9254000D03*
X+414000Y+9254000D03*
X+160000Y+9254000D03*
X-94000Y+9254000D03*
X-348000Y+9254000D03*
X-602000Y+9254000D03*
X-856000Y+9254000D03*
X-856000Y+8460000D03*
X-602000Y+8460000D03*
X-348000Y+8460000D03*
X-94000Y+8460000D03*
X+160000Y+8460000D03*
X+414000Y+8460000D03*
X+668000Y+8460000D03*
X+922000Y+8460000D03*
X+1176000Y+8460000D03*
X+1430000Y+8460000D03*
X+1684000Y+8460000D03*
X+1938000Y+8460000D03*
X+2192000Y+8460000D03*
X+2446000Y+8460000D03*
D89*
X-2340000Y+9160000D03*
D90*
X-2140000Y+9160000D03*
D84*
X-1140000Y+8800000D03*
X-1712000Y+8800000D03*
X-1714000Y+8609598D03*
X-1206000Y+8609598D03*
D69*
X+710000Y+8770000D03*
X+710000Y+9024000D03*
D84*
X-1718000Y+9150000D03*
X-1210000Y+9150000D03*
X-1140000Y+8970000D03*
X-1712000Y+8970000D03*
D91*
X+1340000Y+8100000D03*
D92*
X+1594000Y+8100000D03*
D91*
X+1840000Y+8100000D03*
D92*
X+2094000Y+8100000D03*
D76*
X-2118726Y+9688000D03*
X-1864726Y+9688000D03*
X-1610726Y+9688000D03*
X-1356726Y+9688000D03*
X-1102726Y+9688000D03*
X-848726Y+9688000D03*
X-594726Y+9688000D03*
X-340726Y+9688000D03*
X-86726Y+9688000D03*
X+167274Y+9688000D03*
X+573674Y+9688000D03*
X+827674Y+9688000D03*
X+1081674Y+9688000D03*
X+1335674Y+9688000D03*
X+1589674Y+9688000D03*
X+1843674Y+9688000D03*
X+2097674Y+9688000D03*
X+2351674Y+9688000D03*
X-1204326Y+4862000D03*
X-950326Y+4862000D03*
X-696326Y+4862000D03*
X-442326Y+4862000D03*
X-188326Y+4862000D03*
X+65674Y+4862000D03*
X+319674Y+4862000D03*
X+573674Y+4862000D03*
X+1071674Y+4862000D03*
X+1325674Y+4862000D03*
X+1579674Y+4862000D03*
X+1833674Y+4862000D03*
X+2087674Y+4862000D03*
X+2341674Y+4862000D03*
D68*
X+2620000Y+6430000D03*
X+2620000Y+6176000D03*
X+2620000Y+5922000D03*
X+2620000Y+5668000D03*
X+2630000Y+7542000D03*
X+2630000Y+7288000D03*
X+2630000Y+7034000D03*
X+2630000Y+6780000D03*
X+1080000Y+5120000D03*
D84*
X+826000Y+5120000D03*
D68*
X+572000Y+5120000D03*
D84*
X-956000Y+5120000D03*
X-702000Y+5120000D03*
D68*
X-448000Y+5120000D03*
X-188000Y+5120000D03*
D84*
X+66000Y+5120000D03*
D68*
X+320000Y+5120000D03*
X-1306000Y+8110000D03*
X-1560000Y+8110000D03*
X-1814000Y+8110000D03*
D95*
X-244000Y+8100000D03*
X+10000Y+8100000D03*
X+264000Y+8100000D03*
X+518000Y+8100000D03*
X+772000Y+8100000D03*
X+1026000Y+8100000D03*
D84*
X-1708000Y+8430000D03*
X-1200000Y+8430000D03*
X-1720000Y+9330000D03*
X-1212000Y+9330000D03*
D90*
X+2090000Y+6930000D03*
X+2090000Y+6422000D03*
X+2320000Y+6930000D03*
X+2320000Y+6422000D03*
X+1860000Y+6930000D03*
X+1860000Y+6422000D03*
D97*
X-2850000Y+9020000D03*
X-2850000Y+8766000D03*
X-2850000Y+8512000D03*
X-2850000Y+8258000D03*
D95*
X-3485000Y+9293599D03*
D69*
X-3485000Y+9801599D03*
D95*
X-2850000Y+9293599D03*
D69*
X-2850000Y+9801599D03*
D98*
X-3260000Y+8409960D03*
X-3260000Y+8730000D03*
X-3508920Y+8730000D03*
X-3508920Y+8409960D03*
D99*
X-3732440Y+9171960D03*
X-3732440Y+7968000D03*
D84*
X-2652000Y+7980000D03*
X-2080000Y+7980000D03*
X-2658000Y+7820000D03*
X-2150000Y+7820000D03*
D68*
X-2110000Y+6380000D03*
X-2364000Y+6380000D03*
X-2364000Y+6870000D03*
X-2110000Y+6870000D03*
D92*
X-1762241Y+6625759D03*
X-1274241Y+6625759D03*
D89*
X-3640000Y+6300000D03*
D100*
X-3640000Y+6100000D03*
D89*
X-3070000Y+6300000D03*
D100*
X-3070000Y+6100000D03*
D85*
X-2900000Y+7450000D03*
X-2900000Y+7196000D03*
X-2910000Y+6626000D03*
X-2910000Y+6880000D03*
D91*
X-1867200Y+5034800D03*
D92*
X-2121200Y+5034800D03*
D101*
X-1680000Y+4810000D03*
D102*
X-2188000Y+4810000D03*
D84*
X+1776000Y+8974198D03*
X+1268000Y+8974198D03*
X+1774917Y+8774000D03*
X+1266917Y+8774000D03*
D51*
X+2700000Y+4900000D02*
X+2880000Y+5170000D01*
X+2700000Y+4570000D02*
X-4010000Y+4570000D01*
X-4020000Y+9910000D01*
X+2600000Y+9910000D01*
X+2600000Y+8620000D01*
X+2880000Y+8460000D01*
X+2880000Y+5170000D01*
X-2384640Y+9730249D02*
X-2385066Y+9740627D01*
X-2388528Y+9761385D01*
X-2395763Y+9782143D01*
X-2407557Y+9802901D01*
X-2425602Y+9823498D01*
X-2446360Y+9838972D01*
X-2467118Y+9848925D01*
X-2487876Y+9854691D01*
X-2508634Y+9856842D01*
X-2511260Y+9856869D01*
X-2637880Y+9730249D02*
X-2637454Y+9740627D01*
X-2633992Y+9761385D01*
X-2626757Y+9782143D01*
X-2614963Y+9802901D01*
X-2596918Y+9823498D01*
X-2576160Y+9838972D01*
X-2555402Y+9848925D01*
X-2534644Y+9854691D01*
X-2513886Y+9856842D01*
X-2511260Y+9856869D01*
X-2637880Y+9730249D02*
X-2637454Y+9719871D01*
X-2633992Y+9699113D01*
X-2626757Y+9678355D01*
X-2614963Y+9657597D01*
X-2596918Y+9637000D01*
X-2576160Y+9621526D01*
X-2555402Y+9611573D01*
X-2534644Y+9605807D01*
X-2513886Y+9603656D01*
X-2511260Y+9603629D01*
X-2384640Y+9730249D02*
X-2385066Y+9719871D01*
X-2388528Y+9699113D01*
X-2395763Y+9678355D01*
X-2407557Y+9657597D01*
X-2425602Y+9637000D01*
X-2446360Y+9621526D01*
X-2467118Y+9611573D01*
X-2487876Y+9605807D01*
X-2508634Y+9603656D01*
X-2511260Y+9603629D01*
X+2765360Y+5310249D02*
X+2764934Y+5320627D01*
X+2761472Y+5341385D01*
X+2754237Y+5362143D01*
X+2742443Y+5382901D01*
X+2724398Y+5403498D01*
X+2703640Y+5418972D01*
X+2682882Y+5428925D01*
X+2662124Y+5434691D01*
X+2641366Y+5436842D01*
X+2638740Y+5436869D01*
X+2512120Y+5310249D02*
X+2512546Y+5320627D01*
X+2516008Y+5341385D01*
X+2523243Y+5362143D01*
X+2535037Y+5382901D01*
X+2553082Y+5403498D01*
X+2573840Y+5418972D01*
X+2594598Y+5428925D01*
X+2615356Y+5434691D01*
X+2636114Y+5436842D01*
X+2638740Y+5436869D01*
X+2512120Y+5310249D02*
X+2512546Y+5299871D01*
X+2516008Y+5279113D01*
X+2523243Y+5258355D01*
X+2535037Y+5237597D01*
X+2553082Y+5217000D01*
X+2573840Y+5201526D01*
X+2594598Y+5191573D01*
X+2615356Y+5185807D01*
X+2636114Y+5183656D01*
X+2638740Y+5183629D01*
X+2765360Y+5310249D02*
X+2764934Y+5299871D01*
X+2761472Y+5279113D01*
X+2754237Y+5258355D01*
X+2742443Y+5237597D01*
X+2724398Y+5217000D01*
X+2703640Y+5201526D01*
X+2682882Y+5191573D01*
X+2662124Y+5185807D01*
X+2641366Y+5183656D01*
X+2638740Y+5183629D01*
X-2344640Y+4800249D02*
X-2345066Y+4810627D01*
X-2348528Y+4831385D01*
X-2355763Y+4852143D01*
X-2367557Y+4872901D01*
X-2385602Y+4893498D01*
X-2406360Y+4908972D01*
X-2427118Y+4918925D01*
X-2447876Y+4924691D01*
X-2468634Y+4926842D01*
X-2471260Y+4926869D01*
X-2597880Y+4800249D02*
X-2597454Y+4810627D01*
X-2593992Y+4831385D01*
X-2586757Y+4852143D01*
X-2574963Y+4872901D01*
X-2556918Y+4893498D01*
X-2536160Y+4908972D01*
X-2515402Y+4918925D01*
X-2494644Y+4924691D01*
X-2473886Y+4926842D01*
X-2471260Y+4926869D01*
X-2597880Y+4800249D02*
X-2597454Y+4789871D01*
X-2593992Y+4769113D01*
X-2586757Y+4748355D01*
X-2574963Y+4727597D01*
X-2556918Y+4707000D01*
X-2536160Y+4691526D01*
X-2515402Y+4681573D01*
X-2494644Y+4675807D01*
X-2473886Y+4673656D01*
X-2471260Y+4673629D01*
X-2344640Y+4800249D02*
X-2345066Y+4789871D01*
X-2348528Y+4769113D01*
X-2355763Y+4748355D01*
X-2367557Y+4727597D01*
X-2385602Y+4707000D01*
X-2406360Y+4691526D01*
X-2427118Y+4681573D01*
X-2447876Y+4675807D01*
X-2468634Y+4673656D01*
X-2471260Y+4673629D01*
X+2855396Y+8320499D02*
X+2854970Y+8330877D01*
X+2851508Y+8351635D01*
X+2844273Y+8372393D01*
X+2832479Y+8393151D01*
X+2814434Y+8413748D01*
X+2793676Y+8429222D01*
X+2772918Y+8439175D01*
X+2752160Y+8444941D01*
X+2731402Y+8447092D01*
X+2728776Y+8447119D01*
X+2602156Y+8320499D02*
X+2602582Y+8330877D01*
X+2606044Y+8351635D01*
X+2613279Y+8372393D01*
X+2625073Y+8393151D01*
X+2643118Y+8413748D01*
X+2663876Y+8429222D01*
X+2684634Y+8439175D01*
X+2705392Y+8444941D01*
X+2726150Y+8447092D01*
X+2728776Y+8447119D01*
X+2602156Y+8320499D02*
X+2602582Y+8310121D01*
X+2606044Y+8289363D01*
X+2613279Y+8268605D01*
X+2625073Y+8247847D01*
X+2643118Y+8227250D01*
X+2663876Y+8211776D01*
X+2684634Y+8201823D01*
X+2705392Y+8196057D01*
X+2726150Y+8193906D01*
X+2728776Y+8193879D01*
X+2855396Y+8320499D02*
X+2854970Y+8310121D01*
X+2851508Y+8289363D01*
X+2844273Y+8268605D01*
X+2832479Y+8247847D01*
X+2814434Y+8227250D01*
X+2793676Y+8211776D01*
X+2772918Y+8201823D01*
X+2752160Y+8196057D01*
X+2731402Y+8193906D01*
X+2728776Y+8193879D01*
X+2700000Y+4900000D02*
X+2700000Y+4570000D01*
M02*
