G04 PROTEUS GERBER X2 FILE*
%TF.GenerationSoftware,Labcenter,Proteus,8.17-SP5-Build39395*%
%TF.CreationDate,2026-01-10T11:00:32+00:00*%
%TF.FileFunction,Legend,Top*%
%TF.FilePolarity,Positive*%
%TF.Part,Single*%
%TF.SameCoordinates,{bf2e7aaa-9c56-4ce5-bc4f-43878dba84a3}*%
%FSLAX45Y45*%
%MOMM*%
G01*
%TA.AperFunction,Material*%
%ADD55C,0.200000*%
%ADD56C,0.152400*%
%ADD57C,0.203200*%
%ADD58C,0.101600*%
%TA.AperFunction,NonMaterial*%
%ADD59C,0.063500*%
%TA.AperFunction,Material*%
%ADD60C,0.250000*%
%TA.AperFunction,NonMaterial*%
%ADD54C,0.101600*%
%TA.AperFunction,Material*%
%ADD61C,0.120000*%
%ADD62C,0.100000*%
%TA.AperFunction,Profile*%
%ADD51C,0.101600*%
%TA.AperFunction,Material*%
%ADD63C,0.127000*%
%TD.AperFunction*%
D55*
X-2655000Y+5433000D02*
X-2655000Y+5687000D01*
X+2425000Y+5687000D02*
X+2425000Y+5433000D01*
X+2425000Y+5687000D02*
X-2655000Y+5687000D01*
X+2425000Y+5433000D02*
X-2655000Y+5433000D01*
X-2710000Y+5560000D02*
X-2710035Y+5560831D01*
X-2710316Y+5562495D01*
X-2710906Y+5564159D01*
X-2711870Y+5565823D01*
X-2713345Y+5567464D01*
X-2715009Y+5568665D01*
X-2716673Y+5569430D01*
X-2718337Y+5569861D01*
X-2720000Y+5570000D01*
X-2730000Y+5560000D02*
X-2729965Y+5560831D01*
X-2729684Y+5562495D01*
X-2729094Y+5564159D01*
X-2728130Y+5565823D01*
X-2726655Y+5567464D01*
X-2724991Y+5568665D01*
X-2723327Y+5569430D01*
X-2721663Y+5569861D01*
X-2720000Y+5570000D01*
X-2730000Y+5560000D02*
X-2729965Y+5559169D01*
X-2729684Y+5557505D01*
X-2729094Y+5555841D01*
X-2728130Y+5554177D01*
X-2726655Y+5552536D01*
X-2724991Y+5551335D01*
X-2723327Y+5550570D01*
X-2721663Y+5550139D01*
X-2720000Y+5550000D01*
X-2710000Y+5560000D02*
X-2710035Y+5559169D01*
X-2710316Y+5557505D01*
X-2710906Y+5555841D01*
X-2711870Y+5554177D01*
X-2713345Y+5552536D01*
X-2715009Y+5551335D01*
X-2716673Y+5550570D01*
X-2718337Y+5550139D01*
X-2720000Y+5550000D01*
D56*
X-2812563Y+7476400D02*
X-2812563Y+5647600D01*
X+2572237Y+5647600D01*
X+2572237Y+7476400D01*
X-2812563Y+7476400D01*
X+2541757Y+6562000D02*
X+2572237Y+6531520D01*
X+2572237Y+6592480D02*
X+2541757Y+6562000D01*
D55*
X+2420000Y+7707000D02*
X+2420000Y+7453000D01*
X-2660000Y+7453000D02*
X-2660000Y+7707000D01*
X-2660000Y+7453000D02*
X+2420000Y+7453000D01*
X-2660000Y+7707000D02*
X+2420000Y+7707000D01*
X+2495000Y+7580000D02*
X+2494965Y+7580831D01*
X+2494684Y+7582495D01*
X+2494094Y+7584159D01*
X+2493130Y+7585823D01*
X+2491655Y+7587464D01*
X+2489991Y+7588665D01*
X+2488327Y+7589430D01*
X+2486663Y+7589861D01*
X+2485000Y+7590000D01*
X+2475000Y+7580000D02*
X+2475035Y+7580831D01*
X+2475316Y+7582495D01*
X+2475906Y+7584159D01*
X+2476870Y+7585823D01*
X+2478345Y+7587464D01*
X+2480009Y+7588665D01*
X+2481673Y+7589430D01*
X+2483337Y+7589861D01*
X+2485000Y+7590000D01*
X+2475000Y+7580000D02*
X+2475035Y+7579169D01*
X+2475316Y+7577505D01*
X+2475906Y+7575841D01*
X+2476870Y+7574177D01*
X+2478345Y+7572536D01*
X+2480009Y+7571335D01*
X+2481673Y+7570570D01*
X+2483337Y+7570139D01*
X+2485000Y+7570000D01*
X+2495000Y+7580000D02*
X+2494965Y+7579169D01*
X+2494684Y+7577505D01*
X+2494094Y+7575841D01*
X+2493130Y+7574177D01*
X+2491655Y+7572536D01*
X+2489991Y+7571335D01*
X+2488327Y+7570570D01*
X+2486663Y+7570139D01*
X+2485000Y+7570000D01*
D57*
X+319837Y+7042000D02*
X+359837Y+7002000D01*
X+359837Y+6082000D01*
X-600163Y+6082000D01*
X-600163Y+7042000D01*
X+319837Y+7042000D01*
D56*
X+425937Y+7133500D02*
X+425806Y+7136658D01*
X+424740Y+7142976D01*
X+422509Y+7149294D01*
X+418864Y+7155612D01*
X+413289Y+7161851D01*
X+406971Y+7166447D01*
X+400653Y+7169380D01*
X+394335Y+7171042D01*
X+388017Y+7171600D01*
X+387837Y+7171600D01*
X+349737Y+7133500D02*
X+349868Y+7136658D01*
X+350934Y+7142976D01*
X+353165Y+7149294D01*
X+356810Y+7155612D01*
X+362385Y+7161851D01*
X+368703Y+7166447D01*
X+375021Y+7169380D01*
X+381339Y+7171042D01*
X+387657Y+7171600D01*
X+387837Y+7171600D01*
X+349737Y+7133500D02*
X+349868Y+7130342D01*
X+350934Y+7124024D01*
X+353165Y+7117706D01*
X+356810Y+7111388D01*
X+362385Y+7105149D01*
X+368703Y+7100553D01*
X+375021Y+7097620D01*
X+381339Y+7095958D01*
X+387657Y+7095400D01*
X+387837Y+7095400D01*
X+425937Y+7133500D02*
X+425806Y+7130342D01*
X+424740Y+7124024D01*
X+422509Y+7117706D01*
X+418864Y+7111388D01*
X+413289Y+7105149D01*
X+406971Y+7100553D01*
X+400653Y+7097620D01*
X+394335Y+7095958D01*
X+388017Y+7095400D01*
X+387837Y+7095400D01*
D58*
X-128563Y+6378640D02*
X-204763Y+6378640D01*
X-166663Y+6418645D01*
X-204763Y+6458650D01*
X-128563Y+6458650D01*
X-141263Y+6565330D02*
X-128563Y+6551995D01*
X-128563Y+6511990D01*
X-153963Y+6485320D01*
X-179363Y+6485320D01*
X-204763Y+6511990D01*
X-204763Y+6551995D01*
X-192063Y+6565330D01*
X-204763Y+6592000D02*
X-141263Y+6592000D01*
X-128563Y+6605335D01*
X-128563Y+6658675D01*
X-141263Y+6672010D01*
X-204763Y+6672010D01*
X-179363Y+6725350D02*
X-204763Y+6752020D01*
X-128563Y+6752020D01*
X-4170000Y+4930000D02*
X-2720000Y+4930000D01*
X-2720000Y+5930000D01*
X-4170000Y+5930000D01*
X-4170000Y+4930000D01*
X-3820000Y+5930000D02*
X-3820000Y+4930000D01*
D55*
X-3000000Y+6805000D02*
X-3000000Y+6695000D01*
X-2820000Y+6805000D02*
X-2820000Y+6695000D01*
D58*
X-2881100Y+6659990D02*
X-2868400Y+6646655D01*
X-2868400Y+6606650D01*
X-2893800Y+6579980D01*
X-2919200Y+6579980D01*
X-2944600Y+6606650D01*
X-2944600Y+6646655D01*
X-2931900Y+6659990D01*
X-2919200Y+6713330D02*
X-2944600Y+6740000D01*
X-2868400Y+6740000D01*
X-2919200Y+6820010D02*
X-2944600Y+6846680D01*
X-2868400Y+6846680D01*
X-3327160Y+6526020D02*
X-3327160Y+7166100D01*
X-3675140Y+7166100D01*
X-3675140Y+6526020D01*
X-3329700Y+6526020D01*
X-3675140Y+6660640D02*
X-3695460Y+6660640D01*
X-3695460Y+7039100D01*
X-3677680Y+7039100D01*
D59*
X+626643Y+6117098D02*
X+646963Y+6117098D01*
X+748563Y+6117098D02*
X+768883Y+6117098D01*
X+794283Y+6117098D02*
X+814603Y+6117098D01*
X+875563Y+6117098D02*
X+895883Y+6117098D01*
X+926363Y+6117098D02*
X+992403Y+6117098D01*
X+1109243Y+6117098D02*
X+1154963Y+6117098D01*
X+1241323Y+6117098D02*
X+1287043Y+6117098D01*
X+1358163Y+6117098D02*
X+1454683Y+6117098D01*
X+631723Y+6122178D02*
X+652043Y+6122178D01*
X+743483Y+6122178D02*
X+763803Y+6122178D01*
X+794283Y+6122178D02*
X+814603Y+6122178D01*
X+875563Y+6122178D02*
X+895883Y+6122178D01*
X+926363Y+6122178D02*
X+1007643Y+6122178D01*
X+1099083Y+6122178D02*
X+1165123Y+6122178D01*
X+1226083Y+6122178D02*
X+1297203Y+6122178D01*
X+1358163Y+6122178D02*
X+1454683Y+6122178D01*
X+631723Y+6127258D02*
X+652043Y+6127258D01*
X+743483Y+6127258D02*
X+763803Y+6127258D01*
X+794283Y+6127258D02*
X+814603Y+6127258D01*
X+870483Y+6127258D02*
X+890803Y+6127258D01*
X+926363Y+6127258D02*
X+946683Y+6127258D01*
X+987323Y+6127258D02*
X+1017803Y+6127258D01*
X+1088923Y+6127258D02*
X+1119403Y+6127258D01*
X+1144803Y+6127258D02*
X+1170203Y+6127258D01*
X+1221003Y+6127258D02*
X+1246403Y+6127258D01*
X+1276883Y+6127258D02*
X+1307363Y+6127258D01*
X+1398803Y+6127258D02*
X+1419123Y+6127258D01*
X+636803Y+6132338D02*
X+657123Y+6132338D01*
X+738403Y+6132338D02*
X+763803Y+6132338D01*
X+794283Y+6132338D02*
X+814603Y+6132338D01*
X+870483Y+6132338D02*
X+890803Y+6132338D01*
X+926363Y+6132338D02*
X+946683Y+6132338D01*
X+1002563Y+6132338D02*
X+1022883Y+6132338D01*
X+1083843Y+6132338D02*
X+1109243Y+6132338D01*
X+1154963Y+6132338D02*
X+1175283Y+6132338D01*
X+1221003Y+6132338D02*
X+1236243Y+6132338D01*
X+1287043Y+6132338D02*
X+1312443Y+6132338D01*
X+1398803Y+6132338D02*
X+1419123Y+6132338D01*
X+636803Y+6137418D02*
X+657123Y+6137418D01*
X+738403Y+6137418D02*
X+758723Y+6137418D01*
X+794283Y+6137418D02*
X+814603Y+6137418D01*
X+870483Y+6137418D02*
X+890803Y+6137418D01*
X+926363Y+6137418D02*
X+946683Y+6137418D01*
X+1007643Y+6137418D02*
X+1027963Y+6137418D01*
X+1083843Y+6137418D02*
X+1104163Y+6137418D01*
X+1160043Y+6137418D02*
X+1180363Y+6137418D01*
X+1292123Y+6137418D02*
X+1317523Y+6137418D01*
X+1398803Y+6137418D02*
X+1419123Y+6137418D01*
X+636803Y+6142498D02*
X+657123Y+6142498D01*
X+738403Y+6142498D02*
X+758723Y+6142498D01*
X+794283Y+6142498D02*
X+814603Y+6142498D01*
X+865403Y+6142498D02*
X+885723Y+6142498D01*
X+926363Y+6142498D02*
X+946683Y+6142498D01*
X+1012723Y+6142498D02*
X+1033043Y+6142498D01*
X+1078763Y+6142498D02*
X+1099083Y+6142498D01*
X+1165123Y+6142498D02*
X+1185443Y+6142498D01*
X+1297203Y+6142498D02*
X+1317523Y+6142498D01*
X+1398803Y+6142498D02*
X+1419123Y+6142498D01*
X+641883Y+6147578D02*
X+662203Y+6147578D01*
X+733323Y+6147578D02*
X+753643Y+6147578D01*
X+794283Y+6147578D02*
X+814603Y+6147578D01*
X+865403Y+6147578D02*
X+885723Y+6147578D01*
X+926363Y+6147578D02*
X+946683Y+6147578D01*
X+1017803Y+6147578D02*
X+1038123Y+6147578D01*
X+1078763Y+6147578D02*
X+1099083Y+6147578D01*
X+1165123Y+6147578D02*
X+1185443Y+6147578D01*
X+1302283Y+6147578D02*
X+1322603Y+6147578D01*
X+1398803Y+6147578D02*
X+1419123Y+6147578D01*
X+641883Y+6152658D02*
X+662203Y+6152658D01*
X+733323Y+6152658D02*
X+753643Y+6152658D01*
X+794283Y+6152658D02*
X+814603Y+6152658D01*
X+865403Y+6152658D02*
X+885723Y+6152658D01*
X+926363Y+6152658D02*
X+946683Y+6152658D01*
X+1017803Y+6152658D02*
X+1038123Y+6152658D01*
X+1073683Y+6152658D02*
X+1094003Y+6152658D01*
X+1170203Y+6152658D02*
X+1185443Y+6152658D01*
X+1302283Y+6152658D02*
X+1322603Y+6152658D01*
X+1398803Y+6152658D02*
X+1419123Y+6152658D01*
X+641883Y+6157738D02*
X+662203Y+6157738D01*
X+733323Y+6157738D02*
X+753643Y+6157738D01*
X+794283Y+6157738D02*
X+814603Y+6157738D01*
X+860323Y+6157738D02*
X+880643Y+6157738D01*
X+926363Y+6157738D02*
X+946683Y+6157738D01*
X+1022883Y+6157738D02*
X+1043203Y+6157738D01*
X+1073683Y+6157738D02*
X+1094003Y+6157738D01*
X+1170203Y+6157738D02*
X+1190523Y+6157738D01*
X+1302283Y+6157738D02*
X+1322603Y+6157738D01*
X+1398803Y+6157738D02*
X+1419123Y+6157738D01*
X+646963Y+6162818D02*
X+748563Y+6162818D01*
X+794283Y+6162818D02*
X+814603Y+6162818D01*
X+860323Y+6162818D02*
X+880643Y+6162818D01*
X+926363Y+6162818D02*
X+946683Y+6162818D01*
X+1022883Y+6162818D02*
X+1043203Y+6162818D01*
X+1073683Y+6162818D02*
X+1094003Y+6162818D01*
X+1170203Y+6162818D02*
X+1190523Y+6162818D01*
X+1302283Y+6162818D02*
X+1322603Y+6162818D01*
X+1398803Y+6162818D02*
X+1419123Y+6162818D01*
X+646963Y+6167898D02*
X+748563Y+6167898D01*
X+794283Y+6167898D02*
X+814603Y+6167898D01*
X+855243Y+6167898D02*
X+875563Y+6167898D01*
X+926363Y+6167898D02*
X+946683Y+6167898D01*
X+1022883Y+6167898D02*
X+1043203Y+6167898D01*
X+1073683Y+6167898D02*
X+1094003Y+6167898D01*
X+1170203Y+6167898D02*
X+1190523Y+6167898D01*
X+1302283Y+6167898D02*
X+1322603Y+6167898D01*
X+1398803Y+6167898D02*
X+1419123Y+6167898D01*
X+652043Y+6172978D02*
X+667283Y+6172978D01*
X+728243Y+6172978D02*
X+748563Y+6172978D01*
X+794283Y+6172978D02*
X+814603Y+6172978D01*
X+855243Y+6172978D02*
X+875563Y+6172978D01*
X+926363Y+6172978D02*
X+946683Y+6172978D01*
X+1027963Y+6172978D02*
X+1048283Y+6172978D01*
X+1073683Y+6172978D02*
X+1094003Y+6172978D01*
X+1170203Y+6172978D02*
X+1190523Y+6172978D01*
X+1302283Y+6172978D02*
X+1322603Y+6172978D01*
X+1398803Y+6172978D02*
X+1419123Y+6172978D01*
X+652043Y+6178058D02*
X+672363Y+6178058D01*
X+723163Y+6178058D02*
X+743483Y+6178058D01*
X+794283Y+6178058D02*
X+814603Y+6178058D01*
X+850163Y+6178058D02*
X+870483Y+6178058D01*
X+926363Y+6178058D02*
X+946683Y+6178058D01*
X+1027963Y+6178058D02*
X+1048283Y+6178058D01*
X+1073683Y+6178058D02*
X+1094003Y+6178058D01*
X+1170203Y+6178058D02*
X+1190523Y+6178058D01*
X+1297203Y+6178058D02*
X+1322603Y+6178058D01*
X+1398803Y+6178058D02*
X+1419123Y+6178058D01*
X+652043Y+6183138D02*
X+672363Y+6183138D01*
X+723163Y+6183138D02*
X+743483Y+6183138D01*
X+794283Y+6183138D02*
X+814603Y+6183138D01*
X+845083Y+6183138D02*
X+870483Y+6183138D01*
X+926363Y+6183138D02*
X+946683Y+6183138D01*
X+1027963Y+6183138D02*
X+1048283Y+6183138D01*
X+1073683Y+6183138D02*
X+1094003Y+6183138D01*
X+1170203Y+6183138D02*
X+1190523Y+6183138D01*
X+1297203Y+6183138D02*
X+1317523Y+6183138D01*
X+1398803Y+6183138D02*
X+1419123Y+6183138D01*
X+657123Y+6188218D02*
X+677443Y+6188218D01*
X+718083Y+6188218D02*
X+738403Y+6188218D01*
X+794283Y+6188218D02*
X+814603Y+6188218D01*
X+840003Y+6188218D02*
X+865403Y+6188218D01*
X+926363Y+6188218D02*
X+946683Y+6188218D01*
X+1027963Y+6188218D02*
X+1048283Y+6188218D01*
X+1073683Y+6188218D02*
X+1094003Y+6188218D01*
X+1170203Y+6188218D02*
X+1190523Y+6188218D01*
X+1292123Y+6188218D02*
X+1317523Y+6188218D01*
X+1398803Y+6188218D02*
X+1419123Y+6188218D01*
X+657123Y+6193298D02*
X+677443Y+6193298D01*
X+718083Y+6193298D02*
X+738403Y+6193298D01*
X+794283Y+6193298D02*
X+860323Y+6193298D01*
X+926363Y+6193298D02*
X+946683Y+6193298D01*
X+1027963Y+6193298D02*
X+1048283Y+6193298D01*
X+1073683Y+6193298D02*
X+1094003Y+6193298D01*
X+1170203Y+6193298D02*
X+1190523Y+6193298D01*
X+1281963Y+6193298D02*
X+1312443Y+6193298D01*
X+1398803Y+6193298D02*
X+1419123Y+6193298D01*
X+657123Y+6198378D02*
X+677443Y+6198378D01*
X+718083Y+6198378D02*
X+738403Y+6198378D01*
X+794283Y+6198378D02*
X+865403Y+6198378D01*
X+926363Y+6198378D02*
X+946683Y+6198378D01*
X+1027963Y+6198378D02*
X+1048283Y+6198378D01*
X+1073683Y+6198378D02*
X+1094003Y+6198378D01*
X+1170203Y+6198378D02*
X+1190523Y+6198378D01*
X+1231163Y+6198378D02*
X+1302283Y+6198378D01*
X+1398803Y+6198378D02*
X+1419123Y+6198378D01*
X+662203Y+6203458D02*
X+682523Y+6203458D01*
X+713003Y+6203458D02*
X+733323Y+6203458D01*
X+794283Y+6203458D02*
X+814603Y+6203458D01*
X+845083Y+6203458D02*
X+870483Y+6203458D01*
X+926363Y+6203458D02*
X+946683Y+6203458D01*
X+1027963Y+6203458D02*
X+1048283Y+6203458D01*
X+1073683Y+6203458D02*
X+1094003Y+6203458D01*
X+1170203Y+6203458D02*
X+1190523Y+6203458D01*
X+1231163Y+6203458D02*
X+1292123Y+6203458D01*
X+1398803Y+6203458D02*
X+1419123Y+6203458D01*
X+662203Y+6208538D02*
X+682523Y+6208538D01*
X+713003Y+6208538D02*
X+733323Y+6208538D01*
X+794283Y+6208538D02*
X+814603Y+6208538D01*
X+855243Y+6208538D02*
X+875563Y+6208538D01*
X+926363Y+6208538D02*
X+946683Y+6208538D01*
X+1027963Y+6208538D02*
X+1048283Y+6208538D01*
X+1073683Y+6208538D02*
X+1094003Y+6208538D01*
X+1170203Y+6208538D02*
X+1190523Y+6208538D01*
X+1231163Y+6208538D02*
X+1251483Y+6208538D01*
X+1398803Y+6208538D02*
X+1419123Y+6208538D01*
X+667283Y+6213618D02*
X+682523Y+6213618D01*
X+713003Y+6213618D02*
X+733323Y+6213618D01*
X+794283Y+6213618D02*
X+814603Y+6213618D01*
X+860323Y+6213618D02*
X+880643Y+6213618D01*
X+926363Y+6213618D02*
X+946683Y+6213618D01*
X+1027963Y+6213618D02*
X+1048283Y+6213618D01*
X+1073683Y+6213618D02*
X+1094003Y+6213618D01*
X+1170203Y+6213618D02*
X+1190523Y+6213618D01*
X+1231163Y+6213618D02*
X+1251483Y+6213618D01*
X+1398803Y+6213618D02*
X+1419123Y+6213618D01*
X+667283Y+6218698D02*
X+687603Y+6218698D01*
X+707923Y+6218698D02*
X+728243Y+6218698D01*
X+794283Y+6218698D02*
X+814603Y+6218698D01*
X+865403Y+6218698D02*
X+885723Y+6218698D01*
X+926363Y+6218698D02*
X+946683Y+6218698D01*
X+1022883Y+6218698D02*
X+1048283Y+6218698D01*
X+1073683Y+6218698D02*
X+1094003Y+6218698D01*
X+1170203Y+6218698D02*
X+1190523Y+6218698D01*
X+1231163Y+6218698D02*
X+1251483Y+6218698D01*
X+1398803Y+6218698D02*
X+1419123Y+6218698D01*
X+667283Y+6223778D02*
X+687603Y+6223778D01*
X+707923Y+6223778D02*
X+728243Y+6223778D01*
X+794283Y+6223778D02*
X+814603Y+6223778D01*
X+865403Y+6223778D02*
X+885723Y+6223778D01*
X+926363Y+6223778D02*
X+946683Y+6223778D01*
X+1022883Y+6223778D02*
X+1043203Y+6223778D01*
X+1073683Y+6223778D02*
X+1094003Y+6223778D01*
X+1170203Y+6223778D02*
X+1190523Y+6223778D01*
X+1231163Y+6223778D02*
X+1251483Y+6223778D01*
X+1398803Y+6223778D02*
X+1419123Y+6223778D01*
X+672363Y+6228858D02*
X+687603Y+6228858D01*
X+707923Y+6228858D02*
X+723163Y+6228858D01*
X+794283Y+6228858D02*
X+814603Y+6228858D01*
X+865403Y+6228858D02*
X+885723Y+6228858D01*
X+926363Y+6228858D02*
X+946683Y+6228858D01*
X+1022883Y+6228858D02*
X+1043203Y+6228858D01*
X+1073683Y+6228858D02*
X+1094003Y+6228858D01*
X+1170203Y+6228858D02*
X+1190523Y+6228858D01*
X+1231163Y+6228858D02*
X+1251483Y+6228858D01*
X+1398803Y+6228858D02*
X+1419123Y+6228858D01*
X+672363Y+6233938D02*
X+692683Y+6233938D01*
X+702843Y+6233938D02*
X+723163Y+6233938D01*
X+794283Y+6233938D02*
X+814603Y+6233938D01*
X+865403Y+6233938D02*
X+885723Y+6233938D01*
X+926363Y+6233938D02*
X+946683Y+6233938D01*
X+1017803Y+6233938D02*
X+1043203Y+6233938D01*
X+1073683Y+6233938D02*
X+1094003Y+6233938D01*
X+1170203Y+6233938D02*
X+1190523Y+6233938D01*
X+1231163Y+6233938D02*
X+1251483Y+6233938D01*
X+1398803Y+6233938D02*
X+1419123Y+6233938D01*
X+677443Y+6239018D02*
X+692683Y+6239018D01*
X+702843Y+6239018D02*
X+723163Y+6239018D01*
X+794283Y+6239018D02*
X+814603Y+6239018D01*
X+865403Y+6239018D02*
X+885723Y+6239018D01*
X+926363Y+6239018D02*
X+946683Y+6239018D01*
X+1017803Y+6239018D02*
X+1038123Y+6239018D01*
X+1073683Y+6239018D02*
X+1094003Y+6239018D01*
X+1170203Y+6239018D02*
X+1190523Y+6239018D01*
X+1231163Y+6239018D02*
X+1251483Y+6239018D01*
X+1398803Y+6239018D02*
X+1419123Y+6239018D01*
X+677443Y+6244098D02*
X+718083Y+6244098D01*
X+794283Y+6244098D02*
X+814603Y+6244098D01*
X+865403Y+6244098D02*
X+885723Y+6244098D01*
X+926363Y+6244098D02*
X+946683Y+6244098D01*
X+1012723Y+6244098D02*
X+1033043Y+6244098D01*
X+1073683Y+6244098D02*
X+1094003Y+6244098D01*
X+1170203Y+6244098D02*
X+1190523Y+6244098D01*
X+1231163Y+6244098D02*
X+1251483Y+6244098D01*
X+1358163Y+6244098D02*
X+1373403Y+6244098D01*
X+1398803Y+6244098D02*
X+1419123Y+6244098D01*
X+677443Y+6249178D02*
X+718083Y+6249178D01*
X+794283Y+6249178D02*
X+814603Y+6249178D01*
X+860323Y+6249178D02*
X+880643Y+6249178D01*
X+926363Y+6249178D02*
X+946683Y+6249178D01*
X+1007643Y+6249178D02*
X+1033043Y+6249178D01*
X+1073683Y+6249178D02*
X+1094003Y+6249178D01*
X+1170203Y+6249178D02*
X+1190523Y+6249178D01*
X+1231163Y+6249178D02*
X+1251483Y+6249178D01*
X+1358163Y+6249178D02*
X+1383563Y+6249178D01*
X+1398803Y+6249178D02*
X+1419123Y+6249178D01*
X+682523Y+6254258D02*
X+718083Y+6254258D01*
X+794283Y+6254258D02*
X+814603Y+6254258D01*
X+855243Y+6254258D02*
X+880643Y+6254258D01*
X+926363Y+6254258D02*
X+946683Y+6254258D01*
X+997483Y+6254258D02*
X+1027963Y+6254258D01*
X+1073683Y+6254258D02*
X+1094003Y+6254258D01*
X+1170203Y+6254258D02*
X+1190523Y+6254258D01*
X+1231163Y+6254258D02*
X+1251483Y+6254258D01*
X+1368323Y+6254258D02*
X+1388643Y+6254258D01*
X+1398803Y+6254258D02*
X+1419123Y+6254258D01*
X+682523Y+6259338D02*
X+713003Y+6259338D01*
X+794283Y+6259338D02*
X+814603Y+6259338D01*
X+850163Y+6259338D02*
X+875563Y+6259338D01*
X+926363Y+6259338D02*
X+946683Y+6259338D01*
X+987323Y+6259338D02*
X+1017803Y+6259338D01*
X+1073683Y+6259338D02*
X+1094003Y+6259338D01*
X+1170203Y+6259338D02*
X+1190523Y+6259338D01*
X+1231163Y+6259338D02*
X+1251483Y+6259338D01*
X+1378483Y+6259338D02*
X+1419123Y+6259338D01*
X+682523Y+6264418D02*
X+713003Y+6264418D01*
X+794283Y+6264418D02*
X+870483Y+6264418D01*
X+926363Y+6264418D02*
X+1012723Y+6264418D01*
X+1073683Y+6264418D02*
X+1094003Y+6264418D01*
X+1170203Y+6264418D02*
X+1190523Y+6264418D01*
X+1231163Y+6264418D02*
X+1312443Y+6264418D01*
X+1388643Y+6264418D02*
X+1419123Y+6264418D01*
X+687603Y+6269498D02*
X+707923Y+6269498D01*
X+794283Y+6269498D02*
X+855243Y+6269498D01*
X+926363Y+6269498D02*
X+997483Y+6269498D01*
X+1073683Y+6269498D02*
X+1094003Y+6269498D01*
X+1170203Y+6269498D02*
X+1190523Y+6269498D01*
X+1231163Y+6269498D02*
X+1312443Y+6269498D01*
X+1398803Y+6269498D02*
X+1419123Y+6269498D01*
D60*
X-3507500Y+6430000D02*
X-3507543Y+6431039D01*
X-3507895Y+6433118D01*
X-3508632Y+6435197D01*
X-3509836Y+6437276D01*
X-3511677Y+6439326D01*
X-3513756Y+6440829D01*
X-3515835Y+6441786D01*
X-3517914Y+6442325D01*
X-3519993Y+6442500D01*
X-3520000Y+6442500D01*
X-3532500Y+6430000D02*
X-3532457Y+6431039D01*
X-3532105Y+6433118D01*
X-3531368Y+6435197D01*
X-3530164Y+6437276D01*
X-3528323Y+6439326D01*
X-3526244Y+6440829D01*
X-3524165Y+6441786D01*
X-3522086Y+6442325D01*
X-3520007Y+6442500D01*
X-3520000Y+6442500D01*
X-3532500Y+6430000D02*
X-3532457Y+6428961D01*
X-3532105Y+6426882D01*
X-3531368Y+6424803D01*
X-3530164Y+6422724D01*
X-3528323Y+6420674D01*
X-3526244Y+6419171D01*
X-3524165Y+6418214D01*
X-3522086Y+6417675D01*
X-3520007Y+6417500D01*
X-3520000Y+6417500D01*
X-3507500Y+6430000D02*
X-3507543Y+6428961D01*
X-3507895Y+6426882D01*
X-3508632Y+6424803D01*
X-3509836Y+6422724D01*
X-3511677Y+6420674D01*
X-3513756Y+6419171D01*
X-3515835Y+6418214D01*
X-3517914Y+6417675D01*
X-3519993Y+6417500D01*
X-3520000Y+6417500D01*
D55*
X-3537500Y+6365000D02*
X-3537500Y+6025000D01*
X-3742500Y+6365000D02*
X-3742500Y+6025000D01*
D60*
X-2937500Y+6430000D02*
X-2937543Y+6431039D01*
X-2937895Y+6433118D01*
X-2938632Y+6435197D01*
X-2939836Y+6437276D01*
X-2941677Y+6439326D01*
X-2943756Y+6440829D01*
X-2945835Y+6441786D01*
X-2947914Y+6442325D01*
X-2949993Y+6442500D01*
X-2950000Y+6442500D01*
X-2962500Y+6430000D02*
X-2962457Y+6431039D01*
X-2962105Y+6433118D01*
X-2961368Y+6435197D01*
X-2960164Y+6437276D01*
X-2958323Y+6439326D01*
X-2956244Y+6440829D01*
X-2954165Y+6441786D01*
X-2952086Y+6442325D01*
X-2950007Y+6442500D01*
X-2950000Y+6442500D01*
X-2962500Y+6430000D02*
X-2962457Y+6428961D01*
X-2962105Y+6426882D01*
X-2961368Y+6424803D01*
X-2960164Y+6422724D01*
X-2958323Y+6420674D01*
X-2956244Y+6419171D01*
X-2954165Y+6418214D01*
X-2952086Y+6417675D01*
X-2950007Y+6417500D01*
X-2950000Y+6417500D01*
X-2937500Y+6430000D02*
X-2937543Y+6428961D01*
X-2937895Y+6426882D01*
X-2938632Y+6424803D01*
X-2939836Y+6422724D01*
X-2941677Y+6420674D01*
X-2943756Y+6419171D01*
X-2945835Y+6418214D01*
X-2947914Y+6417675D01*
X-2949993Y+6417500D01*
X-2950000Y+6417500D01*
D55*
X-2967500Y+6365000D02*
X-2967500Y+6025000D01*
X-3172500Y+6365000D02*
X-3172500Y+6025000D01*
D58*
X-3631140Y+7523660D02*
X-3478740Y+7523660D01*
X-3628600Y+7376340D02*
X-3478740Y+7376340D01*
D55*
X-3702000Y+7612000D02*
X-3402000Y+7612000D01*
X-3702000Y+7288000D02*
X-3402000Y+7288000D01*
X-3952000Y+7460000D02*
X-3959071Y+7457071D01*
X-3962000Y+7450000D01*
X-3959071Y+7442929D01*
X-3952000Y+7440000D01*
X-3944929Y+7442929D01*
X-3942000Y+7450000D01*
X-3944929Y+7457071D01*
X-3952000Y+7460000D01*
D58*
X-1520000Y+4583000D02*
X-1545876Y+4588080D01*
X-1569848Y+4602685D01*
X-1591438Y+4625862D01*
X-1610170Y+4656660D01*
X-1625569Y+4694125D01*
X-1637158Y+4737305D01*
X-1644460Y+4785248D01*
X-1647000Y+4837000D01*
X-1520000Y+5091000D02*
X-1545876Y+5085920D01*
X-1569848Y+5071315D01*
X-1591438Y+5048138D01*
X-1610170Y+5017340D01*
X-1625569Y+4979875D01*
X-1637158Y+4936695D01*
X-1644460Y+4888752D01*
X-1647000Y+4837000D01*
X-1520000Y+4583000D02*
X-1494124Y+4588080D01*
X-1470152Y+4602685D01*
X-1448562Y+4625862D01*
X-1429830Y+4656660D01*
X-1414431Y+4694125D01*
X-1402842Y+4737305D01*
X-1395540Y+4785248D01*
X-1393000Y+4837000D01*
X-1520000Y+5091000D02*
X-1494124Y+5085920D01*
X-1470152Y+5071315D01*
X-1448562Y+5048138D01*
X-1429830Y+5017340D01*
X-1414431Y+4979875D01*
X-1402842Y+4936695D01*
X-1395540Y+4888752D01*
X-1393000Y+4837000D01*
D59*
X+1081984Y+8013223D02*
X+1081984Y+8018303D01*
X+1081984Y+8053863D02*
X+1081984Y+8058943D01*
X+1081984Y+8084343D02*
X+1081984Y+8109743D01*
X+1081984Y+8135143D02*
X+1081984Y+8160543D01*
X+1081984Y+8170703D02*
X+1081984Y+8175783D01*
X+1087064Y+8013223D02*
X+1087064Y+8023383D01*
X+1087064Y+8048783D02*
X+1087064Y+8058943D01*
X+1087064Y+8079263D02*
X+1087064Y+8084343D01*
X+1087064Y+8109743D02*
X+1087064Y+8114823D01*
X+1087064Y+8130063D02*
X+1087064Y+8135143D01*
X+1087064Y+8160543D02*
X+1087064Y+8165623D01*
X+1087064Y+8170703D02*
X+1087064Y+8175783D01*
X+1092144Y+8013223D02*
X+1092144Y+8023383D01*
X+1092144Y+8048783D02*
X+1092144Y+8058943D01*
X+1092144Y+8074183D02*
X+1092144Y+8079263D01*
X+1092144Y+8114823D02*
X+1092144Y+8119903D01*
X+1092144Y+8130063D02*
X+1092144Y+8135143D01*
X+1092144Y+8160543D02*
X+1092144Y+8165623D01*
X+1092144Y+8170703D02*
X+1092144Y+8175783D01*
X+1097224Y+8013223D02*
X+1097224Y+8018303D01*
X+1097224Y+8023383D02*
X+1097224Y+8028463D01*
X+1097224Y+8043703D02*
X+1097224Y+8048783D01*
X+1097224Y+8053863D02*
X+1097224Y+8058943D01*
X+1097224Y+8074183D02*
X+1097224Y+8079263D01*
X+1097224Y+8114823D02*
X+1097224Y+8119903D01*
X+1097224Y+8130063D02*
X+1097224Y+8135143D01*
X+1097224Y+8170703D02*
X+1097224Y+8175783D01*
X+1102304Y+8013223D02*
X+1102304Y+8018303D01*
X+1102304Y+8023383D02*
X+1102304Y+8028463D01*
X+1102304Y+8043703D02*
X+1102304Y+8048783D01*
X+1102304Y+8053863D02*
X+1102304Y+8058943D01*
X+1102304Y+8074183D02*
X+1102304Y+8079263D01*
X+1102304Y+8114823D02*
X+1102304Y+8119903D01*
X+1102304Y+8135143D02*
X+1102304Y+8150383D01*
X+1102304Y+8170703D02*
X+1102304Y+8175783D01*
X+1107384Y+8013223D02*
X+1107384Y+8018303D01*
X+1107384Y+8023383D02*
X+1107384Y+8028463D01*
X+1107384Y+8043703D02*
X+1107384Y+8048783D01*
X+1107384Y+8053863D02*
X+1107384Y+8058943D01*
X+1107384Y+8074183D02*
X+1107384Y+8079263D01*
X+1107384Y+8114823D02*
X+1107384Y+8119903D01*
X+1107384Y+8150383D02*
X+1107384Y+8160543D01*
X+1107384Y+8170703D02*
X+1107384Y+8175783D01*
X+1112464Y+8013223D02*
X+1112464Y+8018303D01*
X+1112464Y+8028463D02*
X+1112464Y+8033543D01*
X+1112464Y+8038623D02*
X+1112464Y+8043703D01*
X+1112464Y+8053863D02*
X+1112464Y+8058943D01*
X+1112464Y+8074183D02*
X+1112464Y+8079263D01*
X+1112464Y+8114823D02*
X+1112464Y+8119903D01*
X+1112464Y+8160543D02*
X+1112464Y+8165623D01*
X+1112464Y+8170703D02*
X+1112464Y+8175783D01*
X+1117544Y+8013223D02*
X+1117544Y+8018303D01*
X+1117544Y+8028463D02*
X+1117544Y+8033543D01*
X+1117544Y+8038623D02*
X+1117544Y+8043703D01*
X+1117544Y+8053863D02*
X+1117544Y+8058943D01*
X+1117544Y+8074183D02*
X+1117544Y+8079263D01*
X+1117544Y+8114823D02*
X+1117544Y+8119903D01*
X+1117544Y+8130063D02*
X+1117544Y+8135143D01*
X+1117544Y+8160543D02*
X+1117544Y+8165623D01*
X+1117544Y+8170703D02*
X+1117544Y+8175783D01*
X+1122624Y+8013223D02*
X+1122624Y+8018303D01*
X+1122624Y+8033543D02*
X+1122624Y+8038623D01*
X+1122624Y+8053863D02*
X+1122624Y+8058943D01*
X+1122624Y+8079263D02*
X+1122624Y+8084343D01*
X+1122624Y+8109743D02*
X+1122624Y+8114823D01*
X+1122624Y+8130063D02*
X+1122624Y+8135143D01*
X+1122624Y+8160543D02*
X+1122624Y+8165623D01*
X+1122624Y+8170703D02*
X+1122624Y+8175783D01*
X+1127704Y+8013223D02*
X+1127704Y+8018303D01*
X+1127704Y+8033543D02*
X+1127704Y+8038623D01*
X+1127704Y+8053863D02*
X+1127704Y+8058943D01*
X+1127704Y+8084343D02*
X+1127704Y+8109743D01*
X+1127704Y+8135143D02*
X+1127704Y+8160543D01*
X+1127704Y+8170703D02*
X+1127704Y+8175783D01*
X+833789Y+8008980D02*
X+833789Y+8014060D01*
X+833789Y+8049620D02*
X+833789Y+8054700D01*
X+833789Y+8069940D02*
X+833789Y+8075020D01*
X+833789Y+8095340D02*
X+833789Y+8120740D01*
X+833789Y+8141060D02*
X+833789Y+8166460D01*
X+838869Y+8008980D02*
X+838869Y+8019140D01*
X+838869Y+8044540D02*
X+838869Y+8054700D01*
X+838869Y+8069940D02*
X+838869Y+8075020D01*
X+838869Y+8090260D02*
X+838869Y+8095340D01*
X+838869Y+8120740D02*
X+838869Y+8125820D01*
X+838869Y+8135980D02*
X+838869Y+8141060D01*
X+838869Y+8166460D02*
X+838869Y+8171540D01*
X+843949Y+8008980D02*
X+843949Y+8019140D01*
X+843949Y+8044540D02*
X+843949Y+8054700D01*
X+843949Y+8069940D02*
X+843949Y+8075020D01*
X+843949Y+8090260D02*
X+843949Y+8095340D01*
X+843949Y+8120740D02*
X+843949Y+8125820D01*
X+843949Y+8130900D02*
X+843949Y+8135980D01*
X+843949Y+8171540D02*
X+843949Y+8176620D01*
X+849029Y+8008980D02*
X+849029Y+8014060D01*
X+849029Y+8019140D02*
X+849029Y+8024220D01*
X+849029Y+8039460D02*
X+849029Y+8044540D01*
X+849029Y+8049620D02*
X+849029Y+8054700D01*
X+849029Y+8069940D02*
X+849029Y+8075020D01*
X+849029Y+8090260D02*
X+849029Y+8095340D01*
X+849029Y+8130900D02*
X+849029Y+8135980D01*
X+849029Y+8171540D02*
X+849029Y+8176620D01*
X+854109Y+8008980D02*
X+854109Y+8014060D01*
X+854109Y+8019140D02*
X+854109Y+8024220D01*
X+854109Y+8039460D02*
X+854109Y+8044540D01*
X+854109Y+8049620D02*
X+854109Y+8054700D01*
X+854109Y+8069940D02*
X+854109Y+8075020D01*
X+854109Y+8095340D02*
X+854109Y+8110580D01*
X+854109Y+8130900D02*
X+854109Y+8135980D01*
X+854109Y+8171540D02*
X+854109Y+8176620D01*
X+859189Y+8008980D02*
X+859189Y+8014060D01*
X+859189Y+8019140D02*
X+859189Y+8024220D01*
X+859189Y+8039460D02*
X+859189Y+8044540D01*
X+859189Y+8049620D02*
X+859189Y+8054700D01*
X+859189Y+8069940D02*
X+859189Y+8075020D01*
X+859189Y+8110580D02*
X+859189Y+8120740D01*
X+859189Y+8130900D02*
X+859189Y+8135980D01*
X+859189Y+8171540D02*
X+859189Y+8176620D01*
X+864269Y+8008980D02*
X+864269Y+8014060D01*
X+864269Y+8024220D02*
X+864269Y+8029300D01*
X+864269Y+8034380D02*
X+864269Y+8039460D01*
X+864269Y+8049620D02*
X+864269Y+8054700D01*
X+864269Y+8069940D02*
X+864269Y+8075020D01*
X+864269Y+8120740D02*
X+864269Y+8125820D01*
X+864269Y+8130900D02*
X+864269Y+8135980D01*
X+864269Y+8171540D02*
X+864269Y+8176620D01*
X+869349Y+8008980D02*
X+869349Y+8014060D01*
X+869349Y+8024220D02*
X+869349Y+8029300D01*
X+869349Y+8034380D02*
X+869349Y+8039460D01*
X+869349Y+8049620D02*
X+869349Y+8054700D01*
X+869349Y+8069940D02*
X+869349Y+8075020D01*
X+869349Y+8090260D02*
X+869349Y+8095340D01*
X+869349Y+8120740D02*
X+869349Y+8125820D01*
X+869349Y+8130900D02*
X+869349Y+8135980D01*
X+869349Y+8171540D02*
X+869349Y+8176620D01*
X+874429Y+8008980D02*
X+874429Y+8014060D01*
X+874429Y+8029300D02*
X+874429Y+8034380D01*
X+874429Y+8049620D02*
X+874429Y+8054700D01*
X+874429Y+8069940D02*
X+874429Y+8075020D01*
X+874429Y+8090260D02*
X+874429Y+8095340D01*
X+874429Y+8120740D02*
X+874429Y+8125820D01*
X+874429Y+8135980D02*
X+874429Y+8141060D01*
X+874429Y+8166460D02*
X+874429Y+8171540D01*
X+879509Y+8008980D02*
X+879509Y+8014060D01*
X+879509Y+8029300D02*
X+879509Y+8034380D01*
X+879509Y+8049620D02*
X+879509Y+8054700D01*
X+879509Y+8069940D02*
X+879509Y+8075020D01*
X+879509Y+8095340D02*
X+879509Y+8120740D01*
X+879509Y+8141060D02*
X+879509Y+8166460D01*
X+65400Y+8028000D02*
X+65400Y+8033080D01*
X+65400Y+8068640D02*
X+65400Y+8073720D01*
X+65400Y+8088960D02*
X+65400Y+8109280D01*
X+65400Y+8139760D02*
X+65400Y+8160080D01*
X+70480Y+8033080D02*
X+70480Y+8038160D01*
X+70480Y+8063560D02*
X+70480Y+8068640D01*
X+70480Y+8083880D02*
X+70480Y+8088960D01*
X+70480Y+8109280D02*
X+70480Y+8114360D01*
X+70480Y+8134680D02*
X+70480Y+8139760D01*
X+70480Y+8160080D02*
X+70480Y+8165160D01*
X+75560Y+8033080D02*
X+75560Y+8038160D01*
X+75560Y+8063560D02*
X+75560Y+8068640D01*
X+75560Y+8078800D02*
X+75560Y+8083880D01*
X+75560Y+8114360D02*
X+75560Y+8119440D01*
X+75560Y+8129600D02*
X+75560Y+8134680D01*
X+75560Y+8165160D02*
X+75560Y+8170240D01*
X+80640Y+8033080D02*
X+80640Y+8038160D01*
X+80640Y+8063560D02*
X+80640Y+8068640D01*
X+80640Y+8078800D02*
X+80640Y+8083880D01*
X+80640Y+8129600D02*
X+80640Y+8134680D01*
X+85720Y+8038160D02*
X+85720Y+8043240D01*
X+85720Y+8058480D02*
X+85720Y+8063560D01*
X+85720Y+8078800D02*
X+85720Y+8083880D01*
X+85720Y+8129600D02*
X+85720Y+8134680D01*
X+90800Y+8038160D02*
X+90800Y+8043240D01*
X+90800Y+8058480D02*
X+90800Y+8063560D01*
X+90800Y+8078800D02*
X+90800Y+8083880D01*
X+90800Y+8129600D02*
X+90800Y+8134680D01*
X+95880Y+8043240D02*
X+95880Y+8048320D01*
X+95880Y+8053400D02*
X+95880Y+8058480D01*
X+95880Y+8078800D02*
X+95880Y+8083880D01*
X+95880Y+8129600D02*
X+95880Y+8134680D01*
X+100960Y+8043240D02*
X+100960Y+8048320D01*
X+100960Y+8053400D02*
X+100960Y+8058480D01*
X+100960Y+8078800D02*
X+100960Y+8083880D01*
X+100960Y+8114360D02*
X+100960Y+8119440D01*
X+100960Y+8129600D02*
X+100960Y+8134680D01*
X+100960Y+8165160D02*
X+100960Y+8170240D01*
X+106040Y+8043240D02*
X+106040Y+8048320D01*
X+106040Y+8053400D02*
X+106040Y+8058480D01*
X+106040Y+8083880D02*
X+106040Y+8088960D01*
X+106040Y+8109280D02*
X+106040Y+8114360D01*
X+106040Y+8134680D02*
X+106040Y+8139760D01*
X+106040Y+8160080D02*
X+106040Y+8165160D01*
X+111120Y+8048320D02*
X+111120Y+8053400D01*
X+111120Y+8088960D02*
X+111120Y+8109280D01*
X+111120Y+8139760D02*
X+111120Y+8160080D01*
X-184600Y+8033240D02*
X-184600Y+8058640D01*
X-184600Y+8078960D02*
X-184600Y+8084040D01*
X-184600Y+8114520D02*
X-184600Y+8119600D01*
X-184600Y+8124680D02*
X-184600Y+8155160D01*
X-179520Y+8028160D02*
X-179520Y+8033240D01*
X-179520Y+8058640D02*
X-179520Y+8063720D01*
X-179520Y+8078960D02*
X-179520Y+8089120D01*
X-179520Y+8114520D02*
X-179520Y+8119600D01*
X-179520Y+8124680D02*
X-179520Y+8129760D01*
X-179520Y+8155160D02*
X-179520Y+8160240D01*
X-174440Y+8023080D02*
X-174440Y+8028160D01*
X-174440Y+8063720D02*
X-174440Y+8068800D01*
X-174440Y+8078960D02*
X-174440Y+8084040D01*
X-174440Y+8089120D02*
X-174440Y+8094200D01*
X-174440Y+8114520D02*
X-174440Y+8119600D01*
X-174440Y+8124680D02*
X-174440Y+8129760D01*
X-174440Y+8160240D02*
X-174440Y+8165320D01*
X-169360Y+8023080D02*
X-169360Y+8028160D01*
X-169360Y+8078960D02*
X-169360Y+8084040D01*
X-169360Y+8094200D02*
X-169360Y+8099280D01*
X-169360Y+8114520D02*
X-169360Y+8119600D01*
X-169360Y+8124680D02*
X-169360Y+8129760D01*
X-169360Y+8160240D02*
X-169360Y+8165320D01*
X-164280Y+8023080D02*
X-164280Y+8028160D01*
X-164280Y+8078960D02*
X-164280Y+8084040D01*
X-164280Y+8094200D02*
X-164280Y+8099280D01*
X-164280Y+8114520D02*
X-164280Y+8119600D01*
X-164280Y+8124680D02*
X-164280Y+8129760D01*
X-164280Y+8160240D02*
X-164280Y+8165320D01*
X-159200Y+8023080D02*
X-159200Y+8028160D01*
X-159200Y+8048480D02*
X-159200Y+8068800D01*
X-159200Y+8078960D02*
X-159200Y+8084040D01*
X-159200Y+8099280D02*
X-159200Y+8104360D01*
X-159200Y+8114520D02*
X-159200Y+8119600D01*
X-159200Y+8124680D02*
X-159200Y+8129760D01*
X-159200Y+8160240D02*
X-159200Y+8165320D01*
X-154120Y+8023080D02*
X-154120Y+8028160D01*
X-154120Y+8063720D02*
X-154120Y+8068800D01*
X-154120Y+8078960D02*
X-154120Y+8084040D01*
X-154120Y+8104360D02*
X-154120Y+8109440D01*
X-154120Y+8114520D02*
X-154120Y+8119600D01*
X-154120Y+8124680D02*
X-154120Y+8129760D01*
X-154120Y+8160240D02*
X-154120Y+8165320D01*
X-149040Y+8023080D02*
X-149040Y+8028160D01*
X-149040Y+8063720D02*
X-149040Y+8068800D01*
X-149040Y+8078960D02*
X-149040Y+8084040D01*
X-149040Y+8104360D02*
X-149040Y+8109440D01*
X-149040Y+8114520D02*
X-149040Y+8119600D01*
X-149040Y+8124680D02*
X-149040Y+8129760D01*
X-149040Y+8160240D02*
X-149040Y+8165320D01*
X-143960Y+8028160D02*
X-143960Y+8033240D01*
X-143960Y+8063720D02*
X-143960Y+8068800D01*
X-143960Y+8078960D02*
X-143960Y+8084040D01*
X-143960Y+8109440D02*
X-143960Y+8119600D01*
X-143960Y+8124680D02*
X-143960Y+8129760D01*
X-143960Y+8155160D02*
X-143960Y+8160240D01*
X-138880Y+8033240D02*
X-138880Y+8063720D01*
X-138880Y+8078960D02*
X-138880Y+8084040D01*
X-138880Y+8114520D02*
X-138880Y+8119600D01*
X-138880Y+8124680D02*
X-138880Y+8155160D01*
D54*
X-4082000Y+8093460D02*
X-2674201Y+8093460D01*
X-2674201Y+9188000D01*
X-4082000Y+9188000D01*
X-4082000Y+8093460D01*
D58*
X-662000Y+8642000D02*
X-687876Y+8647080D01*
X-711848Y+8661685D01*
X-733438Y+8684862D01*
X-752170Y+8715660D01*
X-767569Y+8753125D01*
X-779158Y+8796305D01*
X-786460Y+8844248D01*
X-789000Y+8896000D01*
X-662000Y+9150000D02*
X-687876Y+9144920D01*
X-711848Y+9130315D01*
X-733438Y+9107138D01*
X-752170Y+9076340D01*
X-767569Y+9038875D01*
X-779158Y+8995695D01*
X-786460Y+8947752D01*
X-789000Y+8896000D01*
X-662000Y+8642000D02*
X-636124Y+8647080D01*
X-612152Y+8661685D01*
X-590562Y+8684862D01*
X-571830Y+8715660D01*
X-556431Y+8753125D01*
X-544842Y+8796305D01*
X-537540Y+8844248D01*
X-535000Y+8896000D01*
X-662000Y+9150000D02*
X-636124Y+9144920D01*
X-612152Y+9130315D01*
X-590562Y+9107138D01*
X-571830Y+9076340D01*
X-556431Y+9038875D01*
X-544842Y+8995695D01*
X-537540Y+8947752D01*
X-535000Y+8896000D01*
D60*
X+425605Y+9117000D02*
X-374395Y+9117000D01*
X-374395Y+8647000D02*
X+425605Y+8647000D01*
X+425520Y+8646887D02*
X+459312Y+8663701D01*
X+489967Y+8684978D01*
X+517064Y+8710281D01*
X+540181Y+8739178D01*
X+558896Y+8771233D01*
X+572786Y+8806011D01*
X+581430Y+8843078D01*
X+584405Y+8882000D01*
X+581430Y+8920922D01*
X+572786Y+8957989D01*
X+558896Y+8992767D01*
X+540181Y+9024822D01*
X+517064Y+9053719D01*
X+489967Y+9079022D01*
X+459312Y+9100299D01*
X+425520Y+9117113D01*
X+425605Y+9117000D01*
X-374310Y+9117113D02*
X-408102Y+9100299D01*
X-438757Y+9079022D01*
X-465854Y+9053719D01*
X-488971Y+9024822D01*
X-507686Y+8992767D01*
X-521576Y+8957989D01*
X-530220Y+8920922D01*
X-533195Y+8882000D01*
X-530220Y+8843078D01*
X-521576Y+8806011D01*
X-507686Y+8771233D01*
X-488971Y+8739178D01*
X-465854Y+8710281D01*
X-438757Y+8684978D01*
X-408102Y+8663701D01*
X-374310Y+8646887D01*
X-374395Y+8647000D01*
D59*
X+580190Y+8041740D02*
X+580190Y+8067140D01*
X+580190Y+8092540D02*
X+580190Y+8112860D01*
X+580190Y+8133180D02*
X+580190Y+8138260D01*
X+580190Y+8163660D02*
X+580190Y+8168740D01*
X+585270Y+8036660D02*
X+585270Y+8041740D01*
X+585270Y+8067140D02*
X+585270Y+8072220D01*
X+585270Y+8087460D02*
X+585270Y+8092540D01*
X+585270Y+8112860D02*
X+585270Y+8117940D01*
X+585270Y+8133180D02*
X+585270Y+8138260D01*
X+585270Y+8158580D02*
X+585270Y+8163660D01*
X+590350Y+8036660D02*
X+590350Y+8041740D01*
X+590350Y+8067140D02*
X+590350Y+8072220D01*
X+590350Y+8082380D02*
X+590350Y+8087460D01*
X+590350Y+8117940D02*
X+590350Y+8123020D01*
X+590350Y+8133180D02*
X+590350Y+8138260D01*
X+590350Y+8153500D02*
X+590350Y+8158580D01*
X+595430Y+8036660D02*
X+595430Y+8041740D01*
X+595430Y+8082380D02*
X+595430Y+8087460D01*
X+595430Y+8133180D02*
X+595430Y+8138260D01*
X+595430Y+8148420D02*
X+595430Y+8153500D01*
X+600510Y+8041740D02*
X+600510Y+8056980D01*
X+600510Y+8082380D02*
X+600510Y+8087460D01*
X+600510Y+8133180D02*
X+600510Y+8138260D01*
X+600510Y+8143340D02*
X+600510Y+8148420D01*
X+605590Y+8056980D02*
X+605590Y+8067140D01*
X+605590Y+8082380D02*
X+605590Y+8087460D01*
X+605590Y+8133180D02*
X+605590Y+8143340D01*
X+605590Y+8148420D02*
X+605590Y+8153500D01*
X+610670Y+8067140D02*
X+610670Y+8072220D01*
X+610670Y+8082380D02*
X+610670Y+8087460D01*
X+610670Y+8133180D02*
X+610670Y+8138260D01*
X+610670Y+8153500D02*
X+610670Y+8158580D01*
X+615750Y+8036660D02*
X+615750Y+8041740D01*
X+615750Y+8067140D02*
X+615750Y+8072220D01*
X+615750Y+8082380D02*
X+615750Y+8087460D01*
X+615750Y+8117940D02*
X+615750Y+8123020D01*
X+615750Y+8133180D02*
X+615750Y+8138260D01*
X+615750Y+8158580D02*
X+615750Y+8163660D01*
X+620830Y+8036660D02*
X+620830Y+8041740D01*
X+620830Y+8067140D02*
X+620830Y+8072220D01*
X+620830Y+8087460D02*
X+620830Y+8092540D01*
X+620830Y+8112860D02*
X+620830Y+8117940D01*
X+620830Y+8133180D02*
X+620830Y+8138260D01*
X+620830Y+8163660D02*
X+620830Y+8168740D01*
X+625910Y+8041740D02*
X+625910Y+8067140D01*
X+625910Y+8092540D02*
X+625910Y+8112860D01*
X+625910Y+8133180D02*
X+625910Y+8138260D01*
X+625910Y+8168740D02*
X+625910Y+8173820D01*
X+320392Y+8039219D02*
X+320392Y+8074779D01*
X+320392Y+8095099D02*
X+320392Y+8120499D01*
X+320392Y+8130659D02*
X+320392Y+8166219D01*
X+325472Y+8039219D02*
X+325472Y+8044299D01*
X+325472Y+8074779D02*
X+325472Y+8079859D01*
X+325472Y+8090019D02*
X+325472Y+8095099D01*
X+325472Y+8120499D02*
X+325472Y+8125579D01*
X+325472Y+8145899D02*
X+325472Y+8150979D01*
X+330552Y+8039219D02*
X+330552Y+8044299D01*
X+330552Y+8074779D02*
X+330552Y+8079859D01*
X+330552Y+8090019D02*
X+330552Y+8095099D01*
X+330552Y+8120499D02*
X+330552Y+8125579D01*
X+330552Y+8145899D02*
X+330552Y+8150979D01*
X+335632Y+8039219D02*
X+335632Y+8044299D01*
X+335632Y+8074779D02*
X+335632Y+8079859D01*
X+335632Y+8090019D02*
X+335632Y+8095099D01*
X+335632Y+8145899D02*
X+335632Y+8150979D01*
X+340712Y+8039219D02*
X+340712Y+8074779D01*
X+340712Y+8095099D02*
X+340712Y+8110339D01*
X+340712Y+8145899D02*
X+340712Y+8150979D01*
X+345792Y+8039219D02*
X+345792Y+8044299D01*
X+345792Y+8064619D02*
X+345792Y+8069699D01*
X+345792Y+8110339D02*
X+345792Y+8120499D01*
X+345792Y+8145899D02*
X+345792Y+8150979D01*
X+350872Y+8039219D02*
X+350872Y+8044299D01*
X+350872Y+8069699D02*
X+350872Y+8074779D01*
X+350872Y+8120499D02*
X+350872Y+8125579D01*
X+350872Y+8145899D02*
X+350872Y+8150979D01*
X+355952Y+8039219D02*
X+355952Y+8044299D01*
X+355952Y+8074779D02*
X+355952Y+8079859D01*
X+355952Y+8090019D02*
X+355952Y+8095099D01*
X+355952Y+8120499D02*
X+355952Y+8125579D01*
X+355952Y+8145899D02*
X+355952Y+8150979D01*
X+361032Y+8039219D02*
X+361032Y+8044299D01*
X+361032Y+8074779D02*
X+361032Y+8079859D01*
X+361032Y+8090019D02*
X+361032Y+8095099D01*
X+361032Y+8120499D02*
X+361032Y+8125579D01*
X+361032Y+8145899D02*
X+361032Y+8150979D01*
X+366112Y+8039219D02*
X+366112Y+8044299D01*
X+366112Y+8079859D02*
X+366112Y+8084939D01*
X+366112Y+8095099D02*
X+366112Y+8120499D01*
X+366112Y+8145899D02*
X+366112Y+8150979D01*
D55*
X+2534900Y+9311000D02*
X+2534900Y+8482000D01*
X-944900Y+9232000D02*
X-944900Y+8482000D01*
D61*
X-1990000Y+9160000D02*
X-1990815Y+9180171D01*
X-1997434Y+9220514D01*
X-2011247Y+9260857D01*
X-2033693Y+9301200D01*
X-2067990Y+9341418D01*
X-2108333Y+9372518D01*
X-2148676Y+9392723D01*
X-2189019Y+9404747D01*
X-2229362Y+9409774D01*
X-2240000Y+9410000D01*
X-2490000Y+9160000D02*
X-2489185Y+9180171D01*
X-2482566Y+9220514D01*
X-2468753Y+9260857D01*
X-2446307Y+9301200D01*
X-2412010Y+9341418D01*
X-2371667Y+9372518D01*
X-2331324Y+9392723D01*
X-2290981Y+9404747D01*
X-2250638Y+9409774D01*
X-2240000Y+9410000D01*
X-2490000Y+9160000D02*
X-2489185Y+9139829D01*
X-2482566Y+9099486D01*
X-2468753Y+9059143D01*
X-2446307Y+9018800D01*
X-2412010Y+8978582D01*
X-2371667Y+8947482D01*
X-2331324Y+8927277D01*
X-2290981Y+8915253D01*
X-2250638Y+8910226D01*
X-2240000Y+8910000D01*
X-1990000Y+9160000D02*
X-1990815Y+9139829D01*
X-1997434Y+9099486D01*
X-2011247Y+9059143D01*
X-2033693Y+9018800D01*
X-2067990Y+8978582D01*
X-2108333Y+8947482D01*
X-2148676Y+8927277D01*
X-2189019Y+8915253D01*
X-2229362Y+8910226D01*
X-2240000Y+8910000D01*
D55*
X-2429000Y+9359000D02*
X-2429035Y+9359831D01*
X-2429316Y+9361495D01*
X-2429906Y+9363159D01*
X-2430870Y+9364823D01*
X-2432345Y+9366464D01*
X-2434009Y+9367665D01*
X-2435673Y+9368430D01*
X-2437337Y+9368861D01*
X-2439000Y+9369000D01*
X-2449000Y+9359000D02*
X-2448965Y+9359831D01*
X-2448684Y+9361495D01*
X-2448094Y+9363159D01*
X-2447130Y+9364823D01*
X-2445655Y+9366464D01*
X-2443991Y+9367665D01*
X-2442327Y+9368430D01*
X-2440663Y+9368861D01*
X-2439000Y+9369000D01*
X-2449000Y+9359000D02*
X-2448965Y+9358169D01*
X-2448684Y+9356505D01*
X-2448094Y+9354841D01*
X-2447130Y+9353177D01*
X-2445655Y+9351536D01*
X-2443991Y+9350335D01*
X-2442327Y+9349570D01*
X-2440663Y+9349139D01*
X-2439000Y+9349000D01*
X-2429000Y+9359000D02*
X-2429035Y+9358169D01*
X-2429316Y+9356505D01*
X-2429906Y+9354841D01*
X-2430870Y+9353177D01*
X-2432345Y+9351536D01*
X-2434009Y+9350335D01*
X-2435673Y+9349570D01*
X-2437337Y+9349139D01*
X-2439000Y+9349000D01*
D58*
X-1390200Y+8736500D02*
X-1390200Y+8863500D01*
X-1390200Y+8738250D02*
X-1517200Y+8801750D01*
X-1390200Y+8861750D02*
X-1517200Y+8798250D01*
X-1517200Y+8736500D02*
X-1517200Y+8863500D01*
X-1187000Y+8800000D02*
X-1390200Y+8800000D01*
X-1527200Y+8800000D02*
X-1665000Y+8800000D01*
X-1717810Y+8609598D02*
X-1590810Y+8609598D01*
X-1590810Y+8546098D02*
X-1336810Y+8546098D01*
X-1336810Y+8673098D01*
X-1590810Y+8673098D01*
X-1590810Y+8546098D01*
X-1336810Y+8609598D02*
X-1209810Y+8609598D01*
X+710000Y+8643000D02*
X+684124Y+8648080D01*
X+660152Y+8662685D01*
X+638562Y+8685862D01*
X+619830Y+8716660D01*
X+604431Y+8754125D01*
X+592842Y+8797305D01*
X+585540Y+8845248D01*
X+583000Y+8897000D01*
X+710000Y+9151000D02*
X+684124Y+9145920D01*
X+660152Y+9131315D01*
X+638562Y+9108138D01*
X+619830Y+9077340D01*
X+604431Y+9039875D01*
X+592842Y+8996695D01*
X+585540Y+8948752D01*
X+583000Y+8897000D01*
X+710000Y+8643000D02*
X+735876Y+8648080D01*
X+759848Y+8662685D01*
X+781438Y+8685862D01*
X+800170Y+8716660D01*
X+815569Y+8754125D01*
X+827158Y+8797305D01*
X+834460Y+8845248D01*
X+837000Y+8897000D01*
X+710000Y+9151000D02*
X+735876Y+9145920D01*
X+759848Y+9131315D01*
X+781438Y+9108138D01*
X+800170Y+9077340D01*
X+815569Y+9039875D01*
X+827158Y+8996695D01*
X+834460Y+8948752D01*
X+837000Y+8897000D01*
X-1721810Y+9150000D02*
X-1594810Y+9150000D01*
X-1594810Y+9086500D02*
X-1340810Y+9086500D01*
X-1340810Y+9213500D01*
X-1594810Y+9213500D01*
X-1594810Y+9086500D01*
X-1340810Y+9150000D02*
X-1213810Y+9150000D01*
X-1390200Y+8906500D02*
X-1390200Y+9033500D01*
X-1390200Y+8908250D02*
X-1517200Y+8971750D01*
X-1390200Y+9031750D02*
X-1517200Y+8968250D01*
X-1517200Y+8906500D02*
X-1517200Y+9033500D01*
X-1187000Y+8970000D02*
X-1390200Y+8970000D01*
X-1527200Y+8970000D02*
X-1665000Y+8970000D01*
D62*
X+1220000Y+8100000D02*
X+1215000Y+8105000D01*
X+1210000Y+8100000D01*
X+1215000Y+8095000D01*
X+1220000Y+8100000D01*
X+1720000Y+8100000D02*
X+1715000Y+8105000D01*
X+1710000Y+8100000D01*
X+1715000Y+8095000D01*
X+1720000Y+8100000D01*
D54*
X-3640000Y+8280000D02*
X-3110000Y+8280000D01*
X-3110000Y+8860000D01*
X-3640000Y+8860000D01*
X-3640000Y+8280000D01*
D58*
X-2245726Y+9561000D02*
X+294274Y+9561000D01*
X+294274Y+9815000D01*
X-2245726Y+9815000D01*
X-2245726Y+9561000D01*
X+446674Y+9561000D02*
X+2478674Y+9561000D01*
X+2478674Y+9815000D01*
X+446674Y+9815000D01*
X+446674Y+9561000D01*
X-1331326Y+4735000D02*
X+700674Y+4735000D01*
X+700674Y+4989000D01*
X-1331326Y+4989000D01*
X-1331326Y+4735000D01*
X+944674Y+4735000D02*
X+2468674Y+4735000D01*
X+2468674Y+4989000D01*
X+944674Y+4989000D01*
X+944674Y+4735000D01*
D51*
X+2700000Y+4900000D02*
X+2880000Y+5170000D01*
X+2700000Y+4570000D02*
X-4010000Y+4570000D01*
X-4020000Y+9910000D01*
X+2600000Y+9910000D01*
X+2600000Y+8620000D01*
X+2880000Y+8460000D01*
X+2880000Y+5170000D01*
X-2384640Y+9730249D02*
X-2385066Y+9740627D01*
X-2388528Y+9761385D01*
X-2395763Y+9782143D01*
X-2407557Y+9802901D01*
X-2425602Y+9823498D01*
X-2446360Y+9838972D01*
X-2467118Y+9848925D01*
X-2487876Y+9854691D01*
X-2508634Y+9856842D01*
X-2511260Y+9856869D01*
X-2637880Y+9730249D02*
X-2637454Y+9740627D01*
X-2633992Y+9761385D01*
X-2626757Y+9782143D01*
X-2614963Y+9802901D01*
X-2596918Y+9823498D01*
X-2576160Y+9838972D01*
X-2555402Y+9848925D01*
X-2534644Y+9854691D01*
X-2513886Y+9856842D01*
X-2511260Y+9856869D01*
X-2637880Y+9730249D02*
X-2637454Y+9719871D01*
X-2633992Y+9699113D01*
X-2626757Y+9678355D01*
X-2614963Y+9657597D01*
X-2596918Y+9637000D01*
X-2576160Y+9621526D01*
X-2555402Y+9611573D01*
X-2534644Y+9605807D01*
X-2513886Y+9603656D01*
X-2511260Y+9603629D01*
X-2384640Y+9730249D02*
X-2385066Y+9719871D01*
X-2388528Y+9699113D01*
X-2395763Y+9678355D01*
X-2407557Y+9657597D01*
X-2425602Y+9637000D01*
X-2446360Y+9621526D01*
X-2467118Y+9611573D01*
X-2487876Y+9605807D01*
X-2508634Y+9603656D01*
X-2511260Y+9603629D01*
X+2765360Y+5310249D02*
X+2764934Y+5320627D01*
X+2761472Y+5341385D01*
X+2754237Y+5362143D01*
X+2742443Y+5382901D01*
X+2724398Y+5403498D01*
X+2703640Y+5418972D01*
X+2682882Y+5428925D01*
X+2662124Y+5434691D01*
X+2641366Y+5436842D01*
X+2638740Y+5436869D01*
X+2512120Y+5310249D02*
X+2512546Y+5320627D01*
X+2516008Y+5341385D01*
X+2523243Y+5362143D01*
X+2535037Y+5382901D01*
X+2553082Y+5403498D01*
X+2573840Y+5418972D01*
X+2594598Y+5428925D01*
X+2615356Y+5434691D01*
X+2636114Y+5436842D01*
X+2638740Y+5436869D01*
X+2512120Y+5310249D02*
X+2512546Y+5299871D01*
X+2516008Y+5279113D01*
X+2523243Y+5258355D01*
X+2535037Y+5237597D01*
X+2553082Y+5217000D01*
X+2573840Y+5201526D01*
X+2594598Y+5191573D01*
X+2615356Y+5185807D01*
X+2636114Y+5183656D01*
X+2638740Y+5183629D01*
X+2765360Y+5310249D02*
X+2764934Y+5299871D01*
X+2761472Y+5279113D01*
X+2754237Y+5258355D01*
X+2742443Y+5237597D01*
X+2724398Y+5217000D01*
X+2703640Y+5201526D01*
X+2682882Y+5191573D01*
X+2662124Y+5185807D01*
X+2641366Y+5183656D01*
X+2638740Y+5183629D01*
X-2344640Y+4800249D02*
X-2345066Y+4810627D01*
X-2348528Y+4831385D01*
X-2355763Y+4852143D01*
X-2367557Y+4872901D01*
X-2385602Y+4893498D01*
X-2406360Y+4908972D01*
X-2427118Y+4918925D01*
X-2447876Y+4924691D01*
X-2468634Y+4926842D01*
X-2471260Y+4926869D01*
X-2597880Y+4800249D02*
X-2597454Y+4810627D01*
X-2593992Y+4831385D01*
X-2586757Y+4852143D01*
X-2574963Y+4872901D01*
X-2556918Y+4893498D01*
X-2536160Y+4908972D01*
X-2515402Y+4918925D01*
X-2494644Y+4924691D01*
X-2473886Y+4926842D01*
X-2471260Y+4926869D01*
X-2597880Y+4800249D02*
X-2597454Y+4789871D01*
X-2593992Y+4769113D01*
X-2586757Y+4748355D01*
X-2574963Y+4727597D01*
X-2556918Y+4707000D01*
X-2536160Y+4691526D01*
X-2515402Y+4681573D01*
X-2494644Y+4675807D01*
X-2473886Y+4673656D01*
X-2471260Y+4673629D01*
X-2344640Y+4800249D02*
X-2345066Y+4789871D01*
X-2348528Y+4769113D01*
X-2355763Y+4748355D01*
X-2367557Y+4727597D01*
X-2385602Y+4707000D01*
X-2406360Y+4691526D01*
X-2427118Y+4681573D01*
X-2447876Y+4675807D01*
X-2468634Y+4673656D01*
X-2471260Y+4673629D01*
X+2855396Y+8320499D02*
X+2854970Y+8330877D01*
X+2851508Y+8351635D01*
X+2844273Y+8372393D01*
X+2832479Y+8393151D01*
X+2814434Y+8413748D01*
X+2793676Y+8429222D01*
X+2772918Y+8439175D01*
X+2752160Y+8444941D01*
X+2731402Y+8447092D01*
X+2728776Y+8447119D01*
X+2602156Y+8320499D02*
X+2602582Y+8330877D01*
X+2606044Y+8351635D01*
X+2613279Y+8372393D01*
X+2625073Y+8393151D01*
X+2643118Y+8413748D01*
X+2663876Y+8429222D01*
X+2684634Y+8439175D01*
X+2705392Y+8444941D01*
X+2726150Y+8447092D01*
X+2728776Y+8447119D01*
X+2602156Y+8320499D02*
X+2602582Y+8310121D01*
X+2606044Y+8289363D01*
X+2613279Y+8268605D01*
X+2625073Y+8247847D01*
X+2643118Y+8227250D01*
X+2663876Y+8211776D01*
X+2684634Y+8201823D01*
X+2705392Y+8196057D01*
X+2726150Y+8193906D01*
X+2728776Y+8193879D01*
X+2855396Y+8320499D02*
X+2854970Y+8310121D01*
X+2851508Y+8289363D01*
X+2844273Y+8268605D01*
X+2832479Y+8247847D01*
X+2814434Y+8227250D01*
X+2793676Y+8211776D01*
X+2772918Y+8201823D01*
X+2752160Y+8196057D01*
X+2731402Y+8193906D01*
X+2728776Y+8193879D01*
X+2700000Y+4900000D02*
X+2700000Y+4570000D01*
D58*
X+2493000Y+5541000D02*
X+2747000Y+5541000D01*
X+2747000Y+6557000D01*
X+2493000Y+6557000D01*
X+2493000Y+5541000D01*
X+2767020Y+5928895D02*
X+2767020Y+5982235D01*
X+2767020Y+5955565D02*
X+2843220Y+5955565D01*
X+2843220Y+5928895D02*
X+2843220Y+5982235D01*
X+2779720Y+6035575D02*
X+2767020Y+6048910D01*
X+2767020Y+6088915D01*
X+2779720Y+6102250D01*
X+2792420Y+6102250D01*
X+2805120Y+6088915D01*
X+2805120Y+6048910D01*
X+2817820Y+6035575D01*
X+2843220Y+6035575D01*
X+2843220Y+6102250D01*
X+2830520Y+6208930D02*
X+2843220Y+6195595D01*
X+2843220Y+6155590D01*
X+2817820Y+6128920D01*
X+2792420Y+6128920D01*
X+2767020Y+6155590D01*
X+2767020Y+6195595D01*
X+2779720Y+6208930D01*
X+2503000Y+6653000D02*
X+2757000Y+6653000D01*
X+2757000Y+7669000D01*
X+2503000Y+7669000D01*
X+2503000Y+6653000D01*
X+2772900Y+6934220D02*
X+2836400Y+6934220D01*
X+2849100Y+6947555D01*
X+2849100Y+7000895D01*
X+2836400Y+7014230D01*
X+2772900Y+7014230D01*
X+2849100Y+7040900D02*
X+2798300Y+7040900D01*
X+2772900Y+7067570D01*
X+2772900Y+7094240D01*
X+2798300Y+7120910D01*
X+2849100Y+7120910D01*
X+2823700Y+7040900D02*
X+2823700Y+7120910D01*
X+2849100Y+7147580D02*
X+2772900Y+7147580D01*
X+2772900Y+7214255D01*
X+2785600Y+7227590D01*
X+2798300Y+7227590D01*
X+2811000Y+7214255D01*
X+2811000Y+7147580D01*
X+2811000Y+7214255D02*
X+2823700Y+7227590D01*
X+2849100Y+7227590D01*
X+2772900Y+7254260D02*
X+2772900Y+7334270D01*
X+2772900Y+7294265D02*
X+2849100Y+7294265D01*
X+445000Y+4993000D02*
X+1207000Y+4993000D01*
X+1207000Y+5247000D01*
X+445000Y+5247000D01*
X+445000Y+4993000D01*
X-1083000Y+4993000D02*
X-321000Y+4993000D01*
X-321000Y+5247000D01*
X-1083000Y+5247000D01*
X-1083000Y+4993000D01*
X-1428685Y+5140980D02*
X-1415350Y+5153680D01*
X-1375345Y+5153680D01*
X-1362010Y+5140980D01*
X-1362010Y+5128280D01*
X-1375345Y+5115580D01*
X-1362010Y+5102880D01*
X-1362010Y+5090180D01*
X-1375345Y+5077480D01*
X-1415350Y+5077480D01*
X-1428685Y+5090180D01*
X-1402015Y+5115580D02*
X-1375345Y+5115580D01*
X-1335340Y+5153680D02*
X-1335340Y+5115580D01*
X-1295335Y+5077480D01*
X-1255330Y+5115580D01*
X-1255330Y+5153680D01*
X-1215325Y+5140980D02*
X-1201990Y+5153680D01*
X-1161985Y+5153680D01*
X-1148650Y+5140980D01*
X-1148650Y+5128280D01*
X-1161985Y+5115580D01*
X-1148650Y+5102880D01*
X-1148650Y+5090180D01*
X-1161985Y+5077480D01*
X-1201990Y+5077480D01*
X-1215325Y+5090180D01*
X-1188655Y+5115580D02*
X-1161985Y+5115580D01*
X-315000Y+4993000D02*
X+447000Y+4993000D01*
X+447000Y+5247000D01*
X-315000Y+5247000D01*
X-315000Y+4993000D01*
X-1941000Y+7983000D02*
X-1179000Y+7983000D01*
X-1179000Y+8237000D01*
X-1941000Y+8237000D01*
X-1941000Y+7983000D01*
D63*
X-1863000Y+8652000D02*
X-1863000Y+8280000D01*
X-2535000Y+8652000D02*
X-2535000Y+8280000D01*
X-1863000Y+8652000D02*
X-1889000Y+8652000D01*
X-2510000Y+8652000D02*
X-2535000Y+8652000D01*
X-2535000Y+8280000D02*
X-2386000Y+8280000D01*
X-2023000Y+8280000D02*
X-1863000Y+8280000D01*
D55*
X-1960000Y+8936000D02*
X-1960035Y+8936831D01*
X-1960316Y+8938495D01*
X-1960906Y+8940159D01*
X-1961870Y+8941823D01*
X-1963345Y+8943464D01*
X-1965009Y+8944665D01*
X-1966673Y+8945430D01*
X-1968337Y+8945861D01*
X-1970000Y+8946000D01*
X-1980000Y+8936000D02*
X-1979965Y+8936831D01*
X-1979684Y+8938495D01*
X-1979094Y+8940159D01*
X-1978130Y+8941823D01*
X-1976655Y+8943464D01*
X-1974991Y+8944665D01*
X-1973327Y+8945430D01*
X-1971663Y+8945861D01*
X-1970000Y+8946000D01*
X-1980000Y+8936000D02*
X-1979965Y+8935169D01*
X-1979684Y+8933505D01*
X-1979094Y+8931841D01*
X-1978130Y+8930177D01*
X-1976655Y+8928536D01*
X-1974991Y+8927335D01*
X-1973327Y+8926570D01*
X-1971663Y+8926139D01*
X-1970000Y+8926000D01*
X-1960000Y+8936000D02*
X-1960035Y+8935169D01*
X-1960316Y+8933505D01*
X-1960906Y+8931841D01*
X-1961870Y+8930177D01*
X-1963345Y+8928536D01*
X-1965009Y+8927335D01*
X-1966673Y+8926570D01*
X-1968337Y+8926139D01*
X-1970000Y+8926000D01*
X-417000Y+8100000D02*
X-417035Y+8100831D01*
X-417316Y+8102495D01*
X-417906Y+8104159D01*
X-418870Y+8105823D01*
X-420345Y+8107464D01*
X-422009Y+8108665D01*
X-423673Y+8109430D01*
X-425337Y+8109861D01*
X-427000Y+8110000D01*
X-437000Y+8100000D02*
X-436965Y+8100831D01*
X-436684Y+8102495D01*
X-436094Y+8104159D01*
X-435130Y+8105823D01*
X-433655Y+8107464D01*
X-431991Y+8108665D01*
X-430327Y+8109430D01*
X-428663Y+8109861D01*
X-427000Y+8110000D01*
X-437000Y+8100000D02*
X-436965Y+8099169D01*
X-436684Y+8097505D01*
X-436094Y+8095841D01*
X-435130Y+8094177D01*
X-433655Y+8092536D01*
X-431991Y+8091335D01*
X-430327Y+8090570D01*
X-428663Y+8090139D01*
X-427000Y+8090000D01*
X-417000Y+8100000D02*
X-417035Y+8099169D01*
X-417316Y+8097505D01*
X-417906Y+8095841D01*
X-418870Y+8094177D01*
X-420345Y+8092536D01*
X-422009Y+8091335D01*
X-423673Y+8090570D01*
X-425337Y+8090139D01*
X-427000Y+8090000D01*
D63*
X-371000Y+8227000D02*
X+1153000Y+8227000D01*
X+1153000Y+7973000D01*
X-371000Y+7973000D01*
X-371000Y+8227000D01*
D58*
X+225017Y+8349902D02*
X+278357Y+8349902D01*
X+251687Y+8349902D02*
X+251687Y+8273702D01*
X+225017Y+8273702D02*
X+278357Y+8273702D01*
X+318362Y+8286402D02*
X+331697Y+8273702D01*
X+385037Y+8273702D01*
X+398372Y+8286402D01*
X+398372Y+8299102D01*
X+385037Y+8311802D01*
X+331697Y+8311802D01*
X+318362Y+8324502D01*
X+318362Y+8337202D01*
X+331697Y+8349902D01*
X+385037Y+8349902D01*
X+398372Y+8337202D01*
X+425042Y+8273702D02*
X+425042Y+8349902D01*
X+491717Y+8349902D01*
X+505052Y+8337202D01*
X+505052Y+8324502D01*
X+491717Y+8311802D01*
X+425042Y+8311802D01*
X-1711810Y+8430000D02*
X-1584810Y+8430000D01*
X-1584810Y+8366500D02*
X-1330810Y+8366500D01*
X-1330810Y+8493500D01*
X-1584810Y+8493500D01*
X-1584810Y+8366500D01*
X-1330810Y+8430000D02*
X-1203810Y+8430000D01*
X-1723810Y+9330000D02*
X-1596810Y+9330000D01*
X-1596810Y+9266500D02*
X-1342810Y+9266500D01*
X-1342810Y+9393500D01*
X-1596810Y+9393500D01*
X-1596810Y+9266500D01*
X-1342810Y+9330000D02*
X-1215810Y+9330000D01*
D55*
X-1747200Y+5034800D02*
X-1747235Y+5035631D01*
X-1747516Y+5037295D01*
X-1748106Y+5038959D01*
X-1749070Y+5040623D01*
X-1750545Y+5042264D01*
X-1752209Y+5043465D01*
X-1753873Y+5044230D01*
X-1755537Y+5044661D01*
X-1757200Y+5044800D01*
X-1767200Y+5034800D02*
X-1767165Y+5035631D01*
X-1766884Y+5037295D01*
X-1766294Y+5038959D01*
X-1765330Y+5040623D01*
X-1763855Y+5042264D01*
X-1762191Y+5043465D01*
X-1760527Y+5044230D01*
X-1758863Y+5044661D01*
X-1757200Y+5044800D01*
X-1767200Y+5034800D02*
X-1767165Y+5033969D01*
X-1766884Y+5032305D01*
X-1766294Y+5030641D01*
X-1765330Y+5028977D01*
X-1763855Y+5027336D01*
X-1762191Y+5026135D01*
X-1760527Y+5025370D01*
X-1758863Y+5024939D01*
X-1757200Y+5024800D01*
X-1747200Y+5034800D02*
X-1747235Y+5033969D01*
X-1747516Y+5032305D01*
X-1748106Y+5030641D01*
X-1749070Y+5028977D01*
X-1750545Y+5027336D01*
X-1752209Y+5026135D01*
X-1753873Y+5025370D01*
X-1755537Y+5024939D01*
X-1757200Y+5024800D01*
D63*
X-1964200Y+4971800D02*
X-2010200Y+4971800D01*
X-1964200Y+5097800D02*
X-2010200Y+5097800D01*
D58*
X+2090000Y+6933810D02*
X+2090000Y+6806810D01*
X+2026500Y+6552810D02*
X+2153500Y+6552810D01*
X+2153500Y+6806810D01*
X+2026500Y+6806810D01*
X+2026500Y+6552810D01*
X+2090000Y+6552810D02*
X+2090000Y+6425810D01*
X+2320000Y+6933810D02*
X+2320000Y+6806810D01*
X+2256500Y+6552810D02*
X+2383500Y+6552810D01*
X+2383500Y+6806810D01*
X+2256500Y+6806810D01*
X+2256500Y+6552810D01*
X+2320000Y+6552810D02*
X+2320000Y+6425810D01*
X+1860000Y+6933810D02*
X+1860000Y+6806810D01*
X+1796500Y+6552810D02*
X+1923500Y+6552810D01*
X+1923500Y+6806810D01*
X+1796500Y+6806810D01*
X+1796500Y+6552810D01*
X+1860000Y+6552810D02*
X+1860000Y+6425810D01*
X-2977000Y+8131000D02*
X-2723000Y+8131000D01*
X-2723000Y+9147000D01*
X-2977000Y+9147000D01*
X-2977000Y+8131000D01*
X-3040500Y+9547599D02*
X-3040927Y+9558008D01*
X-3044399Y+9578827D01*
X-3051655Y+9599646D01*
X-3063483Y+9620465D01*
X-3081580Y+9641123D01*
X-3102399Y+9656644D01*
X-3123218Y+9666629D01*
X-3144037Y+9672413D01*
X-3164856Y+9674571D01*
X-3167500Y+9674599D01*
X-3294500Y+9547599D02*
X-3294073Y+9558008D01*
X-3290601Y+9578827D01*
X-3283345Y+9599646D01*
X-3271517Y+9620465D01*
X-3253420Y+9641123D01*
X-3232601Y+9656644D01*
X-3211782Y+9666629D01*
X-3190963Y+9672413D01*
X-3170144Y+9674571D01*
X-3167500Y+9674599D01*
X-3294500Y+9547599D02*
X-3294073Y+9537190D01*
X-3290601Y+9516371D01*
X-3283345Y+9495552D01*
X-3271517Y+9474733D01*
X-3253420Y+9454075D01*
X-3232601Y+9438554D01*
X-3211782Y+9428569D01*
X-3190963Y+9422785D01*
X-3170144Y+9420627D01*
X-3167500Y+9420599D01*
X-3040500Y+9547599D02*
X-3040927Y+9537190D01*
X-3044399Y+9516371D01*
X-3051655Y+9495552D01*
X-3063483Y+9474733D01*
X-3081580Y+9454075D01*
X-3102399Y+9438554D01*
X-3123218Y+9428569D01*
X-3144037Y+9422785D01*
X-3164856Y+9420627D01*
X-3167500Y+9420599D01*
X-3485000Y+9230099D02*
X-3485000Y+9865099D01*
X-2850000Y+9865099D02*
X-2850000Y+9230099D01*
X-3485000Y+9230099D01*
X-3485000Y+9865099D02*
X-2850000Y+9865099D01*
D56*
X-4758600Y+8473460D02*
X-4885600Y+8409960D01*
X-4758600Y+8346460D02*
X-4885600Y+8409960D01*
X-4758600Y+9169420D02*
X-4758600Y+7970540D01*
X-3107600Y+7970540D01*
X-3107600Y+9169420D01*
X-4758600Y+9169420D01*
D58*
X-2401800Y+8043500D02*
X-2401800Y+7916500D01*
X-2401800Y+8041750D02*
X-2274800Y+7978250D01*
X-2401800Y+7918250D02*
X-2274800Y+7981750D01*
X-2274800Y+8043500D02*
X-2274800Y+7916500D01*
X-2605000Y+7980000D02*
X-2401800Y+7980000D01*
X-2264800Y+7980000D02*
X-2127000Y+7980000D01*
X-2661810Y+7820000D02*
X-2534810Y+7820000D01*
X-2534810Y+7756500D02*
X-2280810Y+7756500D01*
X-2280810Y+7883500D01*
X-2534810Y+7883500D01*
X-2534810Y+7756500D01*
X-2280810Y+7820000D02*
X-2153810Y+7820000D01*
X-1983000Y+6380000D02*
X-1988080Y+6354124D01*
X-2002685Y+6330152D01*
X-2025862Y+6308562D01*
X-2056660Y+6289830D01*
X-2094125Y+6274431D01*
X-2137305Y+6262842D01*
X-2185248Y+6255540D01*
X-2237000Y+6253000D01*
X-2491000Y+6380000D02*
X-2485920Y+6354124D01*
X-2471315Y+6330152D01*
X-2448138Y+6308562D01*
X-2417340Y+6289830D01*
X-2379875Y+6274431D01*
X-2336695Y+6262842D01*
X-2288752Y+6255540D01*
X-2237000Y+6253000D01*
X-1983000Y+6380000D02*
X-1988080Y+6405876D01*
X-2002685Y+6429848D01*
X-2025862Y+6451438D01*
X-2056660Y+6470170D01*
X-2094125Y+6485569D01*
X-2137305Y+6497158D01*
X-2185248Y+6504460D01*
X-2237000Y+6507000D01*
X-2491000Y+6380000D02*
X-2485920Y+6405876D01*
X-2471315Y+6429848D01*
X-2448138Y+6451438D01*
X-2417340Y+6470170D01*
X-2379875Y+6485569D01*
X-2336695Y+6497158D01*
X-2288752Y+6504460D01*
X-2237000Y+6507000D01*
X-2491000Y+6870000D02*
X-2485920Y+6895876D01*
X-2471315Y+6919848D01*
X-2448138Y+6941438D01*
X-2417340Y+6960170D01*
X-2379875Y+6975569D01*
X-2336695Y+6987158D01*
X-2288752Y+6994460D01*
X-2237000Y+6997000D01*
X-1983000Y+6870000D02*
X-1988080Y+6895876D01*
X-2002685Y+6919848D01*
X-2025862Y+6941438D01*
X-2056660Y+6960170D01*
X-2094125Y+6975569D01*
X-2137305Y+6987158D01*
X-2185248Y+6994460D01*
X-2237000Y+6997000D01*
X-2491000Y+6870000D02*
X-2485920Y+6844124D01*
X-2471315Y+6820152D01*
X-2448138Y+6798562D01*
X-2417340Y+6779830D01*
X-2379875Y+6764431D01*
X-2336695Y+6752842D01*
X-2288752Y+6745540D01*
X-2237000Y+6743000D01*
X-1983000Y+6870000D02*
X-1988080Y+6844124D01*
X-2002685Y+6820152D01*
X-2025862Y+6798562D01*
X-2056660Y+6779830D01*
X-2094125Y+6764431D01*
X-2137305Y+6752842D01*
X-2185248Y+6745540D01*
X-2237000Y+6743000D01*
D63*
X-1843241Y+6875759D02*
X-1193241Y+6875759D01*
X-1142863Y+6870679D01*
X-1095939Y+6856110D01*
X-1053473Y+6833057D01*
X-1016472Y+6802528D01*
X-985943Y+6765527D01*
X-962890Y+6723061D01*
X-948321Y+6676137D01*
X-943241Y+6625759D01*
X-1843241Y+6875759D02*
X-1893619Y+6870679D01*
X-1940543Y+6856110D01*
X-1983009Y+6833057D01*
X-2020010Y+6802528D01*
X-2050539Y+6765527D01*
X-2073592Y+6723061D01*
X-2088161Y+6676137D01*
X-2093241Y+6625759D01*
X-2088161Y+6575381D01*
X-2073592Y+6528457D01*
X-2050539Y+6485991D01*
X-2020010Y+6448990D01*
X-1983009Y+6418461D01*
X-1940543Y+6395408D01*
X-1893619Y+6380839D01*
X-1843241Y+6375759D01*
X-943241Y+6625759D02*
X-948321Y+6575381D01*
X-962890Y+6528457D01*
X-985943Y+6485991D01*
X-1016472Y+6448990D01*
X-1053473Y+6418461D01*
X-1095939Y+6395408D01*
X-1142863Y+6380839D01*
X-1193241Y+6375759D01*
X-1843241Y+6375759D01*
D58*
X-2068311Y+7008309D02*
X-2041641Y+7033709D01*
X-2041641Y+6957509D01*
X-1961631Y+7008309D02*
X-1934961Y+7033709D01*
X-1934961Y+6957509D01*
X-1841616Y+6970209D02*
X-1828281Y+6970209D01*
X-1828281Y+6957509D01*
X-1841616Y+6957509D01*
X-1841616Y+6970209D01*
X-1774941Y+6970209D02*
X-1774941Y+7021009D01*
X-1761606Y+7033709D01*
X-1708266Y+7033709D01*
X-1694931Y+7021009D01*
X-1694931Y+6970209D01*
X-1708266Y+6957509D01*
X-1761606Y+6957509D01*
X-1774941Y+6970209D01*
X-1774941Y+6957509D02*
X-1694931Y+7033709D01*
X-1588251Y+7033709D02*
X-1654926Y+7033709D01*
X-1654926Y+7008309D01*
X-1601586Y+7008309D01*
X-1588251Y+6995609D01*
X-1588251Y+6970209D01*
X-1601586Y+6957509D01*
X-1641591Y+6957509D01*
X-1654926Y+6970209D01*
X-1481571Y+7008309D02*
X-1494906Y+6995609D01*
X-1534911Y+6995609D01*
X-1548246Y+7008309D01*
X-1548246Y+7021009D01*
X-1534911Y+7033709D01*
X-1494906Y+7033709D01*
X-1481571Y+7021009D01*
X-1481571Y+6970209D01*
X-1494906Y+6957509D01*
X-1534911Y+6957509D01*
X-1441566Y+7021009D02*
X-1428231Y+7033709D01*
X-1388226Y+7033709D01*
X-1374891Y+7021009D01*
X-1374891Y+7008309D01*
X-1388226Y+6995609D01*
X-1428231Y+6995609D01*
X-1441566Y+6982909D01*
X-1441566Y+6957509D01*
X-1374891Y+6957509D01*
X-1241541Y+6957509D02*
X-1241541Y+7033709D01*
X-1201536Y+6995609D01*
X-1161531Y+7033709D01*
X-1161531Y+6957509D01*
X-1134861Y+6957509D02*
X-1134861Y+7033709D01*
X-1054851Y+7033709D02*
X-1054851Y+6957509D01*
X-1134861Y+6995609D02*
X-1054851Y+6995609D01*
X-1028181Y+7033709D02*
X-948171Y+7033709D01*
X-1028181Y+6957509D01*
X-948171Y+6957509D01*
D61*
X-3390000Y+6200000D02*
X-3390815Y+6220171D01*
X-3397434Y+6260514D01*
X-3411247Y+6300857D01*
X-3433693Y+6341200D01*
X-3467990Y+6381418D01*
X-3508333Y+6412518D01*
X-3548676Y+6432723D01*
X-3589019Y+6444747D01*
X-3629362Y+6449774D01*
X-3640000Y+6450000D01*
X-3890000Y+6200000D02*
X-3889185Y+6220171D01*
X-3882566Y+6260514D01*
X-3868753Y+6300857D01*
X-3846307Y+6341200D01*
X-3812010Y+6381418D01*
X-3771667Y+6412518D01*
X-3731324Y+6432723D01*
X-3690981Y+6444747D01*
X-3650638Y+6449774D01*
X-3640000Y+6450000D01*
X-3890000Y+6200000D02*
X-3889185Y+6179829D01*
X-3882566Y+6139486D01*
X-3868753Y+6099143D01*
X-3846307Y+6058800D01*
X-3812010Y+6018582D01*
X-3771667Y+5987482D01*
X-3731324Y+5967277D01*
X-3690981Y+5955253D01*
X-3650638Y+5950226D01*
X-3640000Y+5950000D01*
X-3390000Y+6200000D02*
X-3390815Y+6179829D01*
X-3397434Y+6139486D01*
X-3411247Y+6099143D01*
X-3433693Y+6058800D01*
X-3467990Y+6018582D01*
X-3508333Y+5987482D01*
X-3548676Y+5967277D01*
X-3589019Y+5955253D01*
X-3629362Y+5950226D01*
X-3640000Y+5950000D01*
D55*
X-3431000Y+6399000D02*
X-3431035Y+6399831D01*
X-3431316Y+6401495D01*
X-3431906Y+6403159D01*
X-3432870Y+6404823D01*
X-3434345Y+6406464D01*
X-3436009Y+6407665D01*
X-3437673Y+6408430D01*
X-3439337Y+6408861D01*
X-3441000Y+6409000D01*
X-3451000Y+6399000D02*
X-3450965Y+6399831D01*
X-3450684Y+6401495D01*
X-3450094Y+6403159D01*
X-3449130Y+6404823D01*
X-3447655Y+6406464D01*
X-3445991Y+6407665D01*
X-3444327Y+6408430D01*
X-3442663Y+6408861D01*
X-3441000Y+6409000D01*
X-3451000Y+6399000D02*
X-3450965Y+6398169D01*
X-3450684Y+6396505D01*
X-3450094Y+6394841D01*
X-3449130Y+6393177D01*
X-3447655Y+6391536D01*
X-3445991Y+6390335D01*
X-3444327Y+6389570D01*
X-3442663Y+6389139D01*
X-3441000Y+6389000D01*
X-3431000Y+6399000D02*
X-3431035Y+6398169D01*
X-3431316Y+6396505D01*
X-3431906Y+6394841D01*
X-3432870Y+6393177D01*
X-3434345Y+6391536D01*
X-3436009Y+6390335D01*
X-3437673Y+6389570D01*
X-3439337Y+6389139D01*
X-3441000Y+6389000D01*
D61*
X-2820000Y+6200000D02*
X-2820815Y+6220171D01*
X-2827434Y+6260514D01*
X-2841247Y+6300857D01*
X-2863693Y+6341200D01*
X-2897990Y+6381418D01*
X-2938333Y+6412518D01*
X-2978676Y+6432723D01*
X-3019019Y+6444747D01*
X-3059362Y+6449774D01*
X-3070000Y+6450000D01*
X-3320000Y+6200000D02*
X-3319185Y+6220171D01*
X-3312566Y+6260514D01*
X-3298753Y+6300857D01*
X-3276307Y+6341200D01*
X-3242010Y+6381418D01*
X-3201667Y+6412518D01*
X-3161324Y+6432723D01*
X-3120981Y+6444747D01*
X-3080638Y+6449774D01*
X-3070000Y+6450000D01*
X-3320000Y+6200000D02*
X-3319185Y+6179829D01*
X-3312566Y+6139486D01*
X-3298753Y+6099143D01*
X-3276307Y+6058800D01*
X-3242010Y+6018582D01*
X-3201667Y+5987482D01*
X-3161324Y+5967277D01*
X-3120981Y+5955253D01*
X-3080638Y+5950226D01*
X-3070000Y+5950000D01*
X-2820000Y+6200000D02*
X-2820815Y+6179829D01*
X-2827434Y+6139486D01*
X-2841247Y+6099143D01*
X-2863693Y+6058800D01*
X-2897990Y+6018582D01*
X-2938333Y+5987482D01*
X-2978676Y+5967277D01*
X-3019019Y+5955253D01*
X-3059362Y+5950226D01*
X-3070000Y+5950000D01*
D55*
X-2861000Y+6399000D02*
X-2861035Y+6399831D01*
X-2861316Y+6401495D01*
X-2861906Y+6403159D01*
X-2862870Y+6404823D01*
X-2864345Y+6406464D01*
X-2866009Y+6407665D01*
X-2867673Y+6408430D01*
X-2869337Y+6408861D01*
X-2871000Y+6409000D01*
X-2881000Y+6399000D02*
X-2880965Y+6399831D01*
X-2880684Y+6401495D01*
X-2880094Y+6403159D01*
X-2879130Y+6404823D01*
X-2877655Y+6406464D01*
X-2875991Y+6407665D01*
X-2874327Y+6408430D01*
X-2872663Y+6408861D01*
X-2871000Y+6409000D01*
X-2881000Y+6399000D02*
X-2880965Y+6398169D01*
X-2880684Y+6396505D01*
X-2880094Y+6394841D01*
X-2879130Y+6393177D01*
X-2877655Y+6391536D01*
X-2875991Y+6390335D01*
X-2874327Y+6389570D01*
X-2872663Y+6389139D01*
X-2871000Y+6389000D01*
X-2861000Y+6399000D02*
X-2861035Y+6398169D01*
X-2861316Y+6396505D01*
X-2861906Y+6394841D01*
X-2862870Y+6393177D01*
X-2864345Y+6391536D01*
X-2866009Y+6390335D01*
X-2867673Y+6389570D01*
X-2869337Y+6389139D01*
X-2871000Y+6389000D01*
X-2810000Y+7255000D02*
X-2810000Y+7365000D01*
X-2990000Y+7255000D02*
X-2990000Y+7365000D01*
D58*
X-2900000Y+7577000D02*
X-2874124Y+7571920D01*
X-2850152Y+7557315D01*
X-2828562Y+7534138D01*
X-2809830Y+7503340D01*
X-2794431Y+7465875D01*
X-2782842Y+7422695D01*
X-2775540Y+7374752D01*
X-2773000Y+7323000D01*
X-2900000Y+7069000D02*
X-2874124Y+7074080D01*
X-2850152Y+7088685D01*
X-2828562Y+7111862D01*
X-2809830Y+7142660D01*
X-2794431Y+7180125D01*
X-2782842Y+7223305D01*
X-2775540Y+7271248D01*
X-2773000Y+7323000D01*
X-2900000Y+7577000D02*
X-2925876Y+7571920D01*
X-2949848Y+7557315D01*
X-2971438Y+7534138D01*
X-2990170Y+7503340D01*
X-3005569Y+7465875D01*
X-3017158Y+7422695D01*
X-3024460Y+7374752D01*
X-3027000Y+7323000D01*
X-2900000Y+7069000D02*
X-2925876Y+7074080D01*
X-2949848Y+7088685D01*
X-2971438Y+7111862D01*
X-2990170Y+7142660D01*
X-3005569Y+7180125D01*
X-3017158Y+7223305D01*
X-3024460Y+7271248D01*
X-3027000Y+7323000D01*
X-2910000Y+6499000D02*
X-2935876Y+6504080D01*
X-2959848Y+6518685D01*
X-2981438Y+6541862D01*
X-3000170Y+6572660D01*
X-3015569Y+6610125D01*
X-3027158Y+6653305D01*
X-3034460Y+6701248D01*
X-3037000Y+6753000D01*
X-2910000Y+7007000D02*
X-2935876Y+7001920D01*
X-2959848Y+6987315D01*
X-2981438Y+6964138D01*
X-3000170Y+6933340D01*
X-3015569Y+6895875D01*
X-3027158Y+6852695D01*
X-3034460Y+6804752D01*
X-3037000Y+6753000D01*
X-2910000Y+6499000D02*
X-2884124Y+6504080D01*
X-2860152Y+6518685D01*
X-2838562Y+6541862D01*
X-2819830Y+6572660D01*
X-2804431Y+6610125D01*
X-2792842Y+6653305D01*
X-2785540Y+6701248D01*
X-2783000Y+6753000D01*
X-2910000Y+7007000D02*
X-2884124Y+7001920D01*
X-2860152Y+6987315D01*
X-2838562Y+6964138D01*
X-2819830Y+6933340D01*
X-2804431Y+6895875D01*
X-2792842Y+6852695D01*
X-2785540Y+6804752D01*
X-2783000Y+6753000D01*
D62*
X-1747200Y+5034800D02*
X-1742200Y+5029800D01*
X-1737200Y+5034800D01*
X-1742200Y+5039800D01*
X-1747200Y+5034800D01*
D58*
X-1676190Y+4810000D02*
X-1803190Y+4810000D01*
X-2057190Y+4746500D02*
X-1803190Y+4746500D01*
X-1803190Y+4873500D01*
X-2057190Y+4873500D01*
X-2057190Y+4746500D01*
X-2057190Y+4810000D02*
X-2184190Y+4810000D01*
X+1779810Y+8974198D02*
X+1652810Y+8974198D01*
X+1398810Y+8910698D02*
X+1652810Y+8910698D01*
X+1652810Y+9037698D01*
X+1398810Y+9037698D01*
X+1398810Y+8910698D01*
X+1398810Y+8974198D02*
X+1271810Y+8974198D01*
X+1778727Y+8774000D02*
X+1651727Y+8774000D01*
X+1397727Y+8710500D02*
X+1651727Y+8710500D01*
X+1651727Y+8837500D01*
X+1397727Y+8837500D01*
X+1397727Y+8710500D01*
X+1397727Y+8774000D02*
X+1270727Y+8774000D01*
D59*
X-2564856Y+5276868D02*
X-2564856Y+5302268D01*
X-2564856Y+5363228D02*
X-2564856Y+5383548D01*
X-2559776Y+5266708D02*
X-2559776Y+5307348D01*
X-2559776Y+5358148D02*
X-2559776Y+5388628D01*
X-2554696Y+5266708D02*
X-2554696Y+5276868D01*
X-2554696Y+5297188D02*
X-2554696Y+5312428D01*
X-2554696Y+5353068D02*
X-2554696Y+5363228D01*
X-2554696Y+5383548D02*
X-2554696Y+5393708D01*
X-2549616Y+5261628D02*
X-2549616Y+5271788D01*
X-2549616Y+5302268D02*
X-2549616Y+5312428D01*
X-2549616Y+5353068D02*
X-2549616Y+5363228D01*
X-2549616Y+5383548D02*
X-2549616Y+5393708D01*
X-2544536Y+5261628D02*
X-2544536Y+5271788D01*
X-2544536Y+5302268D02*
X-2544536Y+5312428D01*
X-2544536Y+5347988D02*
X-2544536Y+5358148D01*
X-2544536Y+5388628D02*
X-2544536Y+5398788D01*
X-2539456Y+5302268D02*
X-2539456Y+5312428D01*
X-2539456Y+5347988D02*
X-2539456Y+5358148D01*
X-2539456Y+5388628D02*
X-2539456Y+5398788D01*
X-2534376Y+5297188D02*
X-2534376Y+5307348D01*
X-2534376Y+5347988D02*
X-2534376Y+5358148D01*
X-2534376Y+5388628D02*
X-2534376Y+5398788D01*
X-2529296Y+5292108D02*
X-2529296Y+5302268D01*
X-2529296Y+5347988D02*
X-2529296Y+5358148D01*
X-2529296Y+5388628D02*
X-2529296Y+5398788D01*
X-2524216Y+5287028D02*
X-2524216Y+5297188D01*
X-2524216Y+5347988D02*
X-2524216Y+5358148D01*
X-2524216Y+5388628D02*
X-2524216Y+5398788D01*
X-2519136Y+5281948D02*
X-2519136Y+5292108D01*
X-2519136Y+5347988D02*
X-2519136Y+5358148D01*
X-2519136Y+5388628D02*
X-2519136Y+5398788D01*
X-2514056Y+5276868D02*
X-2514056Y+5287028D01*
X-2514056Y+5347988D02*
X-2514056Y+5358148D01*
X-2514056Y+5388628D02*
X-2514056Y+5398788D01*
X-2508976Y+5271788D02*
X-2508976Y+5281948D01*
X-2508976Y+5353068D02*
X-2508976Y+5363228D01*
X-2508976Y+5383548D02*
X-2508976Y+5393708D01*
X-2503896Y+5266708D02*
X-2503896Y+5276868D01*
X-2503896Y+5353068D02*
X-2503896Y+5363228D01*
X-2503896Y+5383548D02*
X-2503896Y+5393708D01*
X-2498816Y+5261628D02*
X-2498816Y+5312428D01*
X-2498816Y+5327668D02*
X-2498816Y+5337828D01*
X-2498816Y+5358148D02*
X-2498816Y+5388628D01*
X-2493736Y+5261628D02*
X-2493736Y+5312428D01*
X-2493736Y+5327668D02*
X-2493736Y+5337828D01*
X-2493736Y+5363228D02*
X-2493736Y+5383548D01*
X-2324856Y+5277822D02*
X-2324856Y+5303222D01*
X-2324856Y+5379422D02*
X-2324856Y+5384502D01*
X-2319776Y+5267662D02*
X-2319776Y+5308302D01*
X-2319776Y+5374342D02*
X-2319776Y+5384502D01*
X-2314696Y+5267662D02*
X-2314696Y+5277822D01*
X-2314696Y+5298142D02*
X-2314696Y+5313382D01*
X-2314696Y+5369262D02*
X-2314696Y+5384502D01*
X-2309616Y+5262582D02*
X-2309616Y+5272742D01*
X-2309616Y+5303222D02*
X-2309616Y+5313382D01*
X-2309616Y+5359102D02*
X-2309616Y+5384502D01*
X-2304536Y+5262582D02*
X-2304536Y+5272742D01*
X-2304536Y+5303222D02*
X-2304536Y+5313382D01*
X-2304536Y+5354022D02*
X-2304536Y+5369262D01*
X-2304536Y+5374342D02*
X-2304536Y+5384502D01*
X-2299456Y+5303222D02*
X-2299456Y+5313382D01*
X-2299456Y+5354022D02*
X-2299456Y+5359102D01*
X-2299456Y+5374342D02*
X-2299456Y+5384502D01*
X-2294376Y+5298142D02*
X-2294376Y+5308302D01*
X-2294376Y+5374342D02*
X-2294376Y+5384502D01*
X-2289296Y+5293062D02*
X-2289296Y+5303222D01*
X-2289296Y+5374342D02*
X-2289296Y+5384502D01*
X-2284216Y+5287982D02*
X-2284216Y+5298142D01*
X-2284216Y+5374342D02*
X-2284216Y+5384502D01*
X-2279136Y+5282902D02*
X-2279136Y+5293062D01*
X-2279136Y+5374342D02*
X-2279136Y+5384502D01*
X-2274056Y+5277822D02*
X-2274056Y+5287982D01*
X-2274056Y+5374342D02*
X-2274056Y+5384502D01*
X-2268976Y+5272742D02*
X-2268976Y+5282902D01*
X-2268976Y+5374342D02*
X-2268976Y+5384502D01*
X-2263896Y+5267662D02*
X-2263896Y+5277822D01*
X-2263896Y+5374342D02*
X-2263896Y+5384502D01*
X-2258816Y+5262582D02*
X-2258816Y+5313382D01*
X-2258816Y+5328622D02*
X-2258816Y+5338782D01*
X-2258816Y+5374342D02*
X-2258816Y+5384502D01*
X-2253736Y+5262582D02*
X-2253736Y+5313382D01*
X-2253736Y+5328622D02*
X-2253736Y+5338782D01*
X-2253736Y+5374342D02*
X-2253736Y+5384502D01*
X-2064856Y+5265767D02*
X-2064856Y+5291167D01*
X-2064856Y+5352127D02*
X-2064856Y+5377527D01*
X-2059776Y+5255607D02*
X-2059776Y+5296247D01*
X-2059776Y+5341967D02*
X-2059776Y+5382607D01*
X-2054696Y+5255607D02*
X-2054696Y+5265767D01*
X-2054696Y+5286087D02*
X-2054696Y+5301327D01*
X-2054696Y+5341967D02*
X-2054696Y+5352127D01*
X-2054696Y+5372447D02*
X-2054696Y+5387687D01*
X-2049616Y+5250527D02*
X-2049616Y+5260687D01*
X-2049616Y+5291167D02*
X-2049616Y+5301327D01*
X-2049616Y+5336887D02*
X-2049616Y+5347047D01*
X-2049616Y+5377527D02*
X-2049616Y+5387687D01*
X-2044536Y+5250527D02*
X-2044536Y+5260687D01*
X-2044536Y+5291167D02*
X-2044536Y+5301327D01*
X-2044536Y+5336887D02*
X-2044536Y+5347047D01*
X-2044536Y+5377527D02*
X-2044536Y+5387687D01*
X-2039456Y+5291167D02*
X-2039456Y+5301327D01*
X-2039456Y+5377527D02*
X-2039456Y+5387687D01*
X-2034376Y+5286087D02*
X-2034376Y+5296247D01*
X-2034376Y+5372447D02*
X-2034376Y+5382607D01*
X-2029296Y+5281007D02*
X-2029296Y+5291167D01*
X-2029296Y+5367367D02*
X-2029296Y+5377527D01*
X-2024216Y+5275927D02*
X-2024216Y+5286087D01*
X-2024216Y+5362287D02*
X-2024216Y+5372447D01*
X-2019136Y+5270847D02*
X-2019136Y+5281007D01*
X-2019136Y+5357207D02*
X-2019136Y+5367367D01*
X-2014056Y+5265767D02*
X-2014056Y+5275927D01*
X-2014056Y+5352127D02*
X-2014056Y+5362287D01*
X-2008976Y+5260687D02*
X-2008976Y+5270847D01*
X-2008976Y+5347047D02*
X-2008976Y+5357207D01*
X-2003896Y+5255607D02*
X-2003896Y+5265767D01*
X-2003896Y+5341967D02*
X-2003896Y+5352127D01*
X-1998816Y+5250527D02*
X-1998816Y+5301327D01*
X-1998816Y+5316567D02*
X-1998816Y+5326727D01*
X-1998816Y+5336887D02*
X-1998816Y+5387687D01*
X-1993736Y+5250527D02*
X-1993736Y+5301327D01*
X-1993736Y+5316567D02*
X-1993736Y+5326727D01*
X-1993736Y+5336887D02*
X-1993736Y+5387687D01*
X-1812543Y+5274662D02*
X-1812543Y+5300062D01*
X-1812543Y+5355942D02*
X-1812543Y+5381342D01*
X-1807463Y+5264502D02*
X-1807463Y+5305142D01*
X-1807463Y+5350862D02*
X-1807463Y+5386422D01*
X-1802383Y+5264502D02*
X-1802383Y+5274662D01*
X-1802383Y+5294982D02*
X-1802383Y+5310222D01*
X-1802383Y+5345782D02*
X-1802383Y+5361022D01*
X-1802383Y+5376262D02*
X-1802383Y+5391502D01*
X-1797303Y+5259422D02*
X-1797303Y+5269582D01*
X-1797303Y+5300062D02*
X-1797303Y+5310222D01*
X-1797303Y+5345782D02*
X-1797303Y+5355942D01*
X-1797303Y+5381342D02*
X-1797303Y+5391502D01*
X-1792223Y+5259422D02*
X-1792223Y+5269582D01*
X-1792223Y+5300062D02*
X-1792223Y+5310222D01*
X-1792223Y+5381342D02*
X-1792223Y+5391502D01*
X-1787143Y+5300062D02*
X-1787143Y+5310222D01*
X-1787143Y+5376262D02*
X-1787143Y+5391502D01*
X-1782063Y+5294982D02*
X-1782063Y+5305142D01*
X-1782063Y+5361022D02*
X-1782063Y+5386422D01*
X-1776983Y+5289902D02*
X-1776983Y+5300062D01*
X-1776983Y+5361022D02*
X-1776983Y+5391502D01*
X-1771903Y+5284822D02*
X-1771903Y+5294982D01*
X-1771903Y+5381342D02*
X-1771903Y+5391502D01*
X-1766823Y+5279742D02*
X-1766823Y+5289902D01*
X-1766823Y+5386422D02*
X-1766823Y+5396582D01*
X-1761743Y+5274662D02*
X-1761743Y+5284822D01*
X-1761743Y+5386422D02*
X-1761743Y+5396582D01*
X-1756663Y+5269582D02*
X-1756663Y+5279742D01*
X-1756663Y+5345782D02*
X-1756663Y+5355942D01*
X-1756663Y+5386422D02*
X-1756663Y+5396582D01*
X-1751583Y+5264502D02*
X-1751583Y+5274662D01*
X-1751583Y+5345782D02*
X-1751583Y+5361022D01*
X-1751583Y+5381342D02*
X-1751583Y+5391502D01*
X-1746503Y+5259422D02*
X-1746503Y+5310222D01*
X-1746503Y+5325462D02*
X-1746503Y+5335622D01*
X-1746503Y+5350862D02*
X-1746503Y+5391502D01*
X-1741423Y+5259422D02*
X-1741423Y+5310222D01*
X-1741423Y+5325462D02*
X-1741423Y+5335622D01*
X-1741423Y+5355942D02*
X-1741423Y+5381342D01*
X-1554856Y+5268463D02*
X-1554856Y+5293863D01*
X-1554856Y+5370063D02*
X-1554856Y+5380223D01*
X-1549776Y+5258303D02*
X-1549776Y+5298943D01*
X-1549776Y+5364983D02*
X-1549776Y+5380223D01*
X-1544696Y+5258303D02*
X-1544696Y+5268463D01*
X-1544696Y+5288783D02*
X-1544696Y+5304023D01*
X-1544696Y+5359903D02*
X-1544696Y+5380223D01*
X-1539616Y+5253223D02*
X-1539616Y+5263383D01*
X-1539616Y+5293863D02*
X-1539616Y+5304023D01*
X-1539616Y+5354823D02*
X-1539616Y+5364983D01*
X-1539616Y+5370063D02*
X-1539616Y+5380223D01*
X-1534536Y+5253223D02*
X-1534536Y+5263383D01*
X-1534536Y+5293863D02*
X-1534536Y+5304023D01*
X-1534536Y+5354823D02*
X-1534536Y+5364983D01*
X-1534536Y+5370063D02*
X-1534536Y+5380223D01*
X-1529456Y+5293863D02*
X-1529456Y+5304023D01*
X-1529456Y+5349743D02*
X-1529456Y+5359903D01*
X-1529456Y+5370063D02*
X-1529456Y+5380223D01*
X-1524376Y+5288783D02*
X-1524376Y+5298943D01*
X-1524376Y+5344663D02*
X-1524376Y+5354823D01*
X-1524376Y+5370063D02*
X-1524376Y+5380223D01*
X-1519296Y+5283703D02*
X-1519296Y+5293863D01*
X-1519296Y+5339583D02*
X-1519296Y+5349743D01*
X-1519296Y+5370063D02*
X-1519296Y+5380223D01*
X-1514216Y+5278623D02*
X-1514216Y+5288783D01*
X-1514216Y+5334503D02*
X-1514216Y+5344663D01*
X-1514216Y+5370063D02*
X-1514216Y+5380223D01*
X-1509136Y+5273543D02*
X-1509136Y+5283703D01*
X-1509136Y+5334503D02*
X-1509136Y+5390383D01*
X-1504056Y+5268463D02*
X-1504056Y+5278623D01*
X-1504056Y+5334503D02*
X-1504056Y+5390383D01*
X-1498976Y+5263383D02*
X-1498976Y+5273543D01*
X-1498976Y+5370063D02*
X-1498976Y+5380223D01*
X-1493896Y+5258303D02*
X-1493896Y+5268463D01*
X-1493896Y+5370063D02*
X-1493896Y+5380223D01*
X-1488816Y+5253223D02*
X-1488816Y+5304023D01*
X-1488816Y+5319263D02*
X-1488816Y+5329423D01*
X-1488816Y+5370063D02*
X-1488816Y+5380223D01*
X-1483736Y+5253223D02*
X-1483736Y+5304023D01*
X-1483736Y+5319263D02*
X-1483736Y+5329423D01*
X-1483736Y+5370063D02*
X-1483736Y+5380223D01*
X-1304856Y+5268463D02*
X-1304856Y+5293863D01*
X-1304856Y+5344663D02*
X-1304856Y+5390383D01*
X-1299776Y+5258303D02*
X-1299776Y+5298943D01*
X-1299776Y+5344663D02*
X-1299776Y+5390383D01*
X-1294696Y+5258303D02*
X-1294696Y+5268463D01*
X-1294696Y+5288783D02*
X-1294696Y+5304023D01*
X-1294696Y+5344663D02*
X-1294696Y+5354823D01*
X-1289616Y+5253223D02*
X-1289616Y+5263383D01*
X-1289616Y+5293863D02*
X-1289616Y+5304023D01*
X-1289616Y+5344663D02*
X-1289616Y+5354823D01*
X-1284536Y+5253223D02*
X-1284536Y+5263383D01*
X-1284536Y+5293863D02*
X-1284536Y+5304023D01*
X-1284536Y+5344663D02*
X-1284536Y+5354823D01*
X-1279456Y+5293863D02*
X-1279456Y+5304023D01*
X-1279456Y+5339583D02*
X-1279456Y+5349743D01*
X-1279456Y+5354823D02*
X-1279456Y+5375143D01*
X-1274376Y+5288783D02*
X-1274376Y+5298943D01*
X-1274376Y+5339583D02*
X-1274376Y+5385303D01*
X-1269296Y+5283703D02*
X-1269296Y+5293863D01*
X-1269296Y+5339583D02*
X-1269296Y+5354823D01*
X-1269296Y+5375143D02*
X-1269296Y+5385303D01*
X-1264216Y+5278623D02*
X-1264216Y+5288783D01*
X-1264216Y+5380223D02*
X-1264216Y+5390383D01*
X-1259136Y+5273543D02*
X-1259136Y+5283703D01*
X-1259136Y+5380223D02*
X-1259136Y+5390383D01*
X-1254056Y+5268463D02*
X-1254056Y+5278623D01*
X-1254056Y+5380223D02*
X-1254056Y+5390383D01*
X-1248976Y+5263383D02*
X-1248976Y+5273543D01*
X-1248976Y+5339583D02*
X-1248976Y+5349743D01*
X-1248976Y+5380223D02*
X-1248976Y+5390383D01*
X-1243896Y+5258303D02*
X-1243896Y+5268463D01*
X-1243896Y+5339583D02*
X-1243896Y+5354823D01*
X-1243896Y+5375143D02*
X-1243896Y+5385303D01*
X-1238816Y+5253223D02*
X-1238816Y+5304023D01*
X-1238816Y+5319263D02*
X-1238816Y+5329423D01*
X-1238816Y+5344663D02*
X-1238816Y+5385303D01*
X-1233736Y+5253223D02*
X-1233736Y+5304023D01*
X-1233736Y+5319263D02*
X-1233736Y+5329423D01*
X-1233736Y+5349743D02*
X-1233736Y+5375143D01*
X-1044856Y+5268463D02*
X-1044856Y+5293863D01*
X-1044856Y+5354823D02*
X-1044856Y+5380223D01*
X-1039776Y+5258303D02*
X-1039776Y+5298943D01*
X-1039776Y+5349743D02*
X-1039776Y+5385303D01*
X-1034696Y+5258303D02*
X-1034696Y+5268463D01*
X-1034696Y+5288783D02*
X-1034696Y+5304023D01*
X-1034696Y+5344663D02*
X-1034696Y+5359903D01*
X-1034696Y+5375143D02*
X-1034696Y+5390383D01*
X-1029616Y+5253223D02*
X-1029616Y+5263383D01*
X-1029616Y+5293863D02*
X-1029616Y+5304023D01*
X-1029616Y+5344663D02*
X-1029616Y+5354823D01*
X-1029616Y+5380223D02*
X-1029616Y+5390383D01*
X-1024536Y+5253223D02*
X-1024536Y+5263383D01*
X-1024536Y+5293863D02*
X-1024536Y+5304023D01*
X-1024536Y+5339583D02*
X-1024536Y+5349743D01*
X-1019456Y+5293863D02*
X-1019456Y+5304023D01*
X-1019456Y+5339583D02*
X-1019456Y+5349743D01*
X-1019456Y+5359903D02*
X-1019456Y+5380223D01*
X-1014376Y+5288783D02*
X-1014376Y+5298943D01*
X-1014376Y+5339583D02*
X-1014376Y+5385303D01*
X-1009296Y+5283703D02*
X-1009296Y+5293863D01*
X-1009296Y+5339583D02*
X-1009296Y+5354823D01*
X-1009296Y+5375143D02*
X-1009296Y+5385303D01*
X-1004216Y+5278623D02*
X-1004216Y+5288783D01*
X-1004216Y+5339583D02*
X-1004216Y+5349743D01*
X-1004216Y+5380223D02*
X-1004216Y+5390383D01*
X-999136Y+5273543D02*
X-999136Y+5283703D01*
X-999136Y+5339583D02*
X-999136Y+5349743D01*
X-999136Y+5380223D02*
X-999136Y+5390383D01*
X-994056Y+5268463D02*
X-994056Y+5278623D01*
X-994056Y+5339583D02*
X-994056Y+5349743D01*
X-994056Y+5380223D02*
X-994056Y+5390383D01*
X-988976Y+5263383D02*
X-988976Y+5273543D01*
X-988976Y+5344663D02*
X-988976Y+5354823D01*
X-988976Y+5380223D02*
X-988976Y+5390383D01*
X-983896Y+5258303D02*
X-983896Y+5268463D01*
X-983896Y+5344663D02*
X-983896Y+5354823D01*
X-983896Y+5375143D02*
X-983896Y+5385303D01*
X-978816Y+5253223D02*
X-978816Y+5304023D01*
X-978816Y+5319263D02*
X-978816Y+5329423D01*
X-978816Y+5349743D02*
X-978816Y+5385303D01*
X-973736Y+5253223D02*
X-973736Y+5304023D01*
X-973736Y+5319263D02*
X-973736Y+5329423D01*
X-973736Y+5354823D02*
X-973736Y+5375143D01*
X-774856Y+5268463D02*
X-774856Y+5293863D01*
X-774856Y+5339583D02*
X-774856Y+5390383D01*
X-769776Y+5258303D02*
X-769776Y+5298943D01*
X-769776Y+5339583D02*
X-769776Y+5390383D01*
X-764696Y+5258303D02*
X-764696Y+5268463D01*
X-764696Y+5288783D02*
X-764696Y+5304023D01*
X-764696Y+5375143D02*
X-764696Y+5385303D01*
X-759616Y+5253223D02*
X-759616Y+5263383D01*
X-759616Y+5293863D02*
X-759616Y+5304023D01*
X-759616Y+5370063D02*
X-759616Y+5380223D01*
X-754536Y+5253223D02*
X-754536Y+5263383D01*
X-754536Y+5293863D02*
X-754536Y+5304023D01*
X-754536Y+5370063D02*
X-754536Y+5380223D01*
X-749456Y+5293863D02*
X-749456Y+5304023D01*
X-749456Y+5364983D02*
X-749456Y+5375143D01*
X-744376Y+5288783D02*
X-744376Y+5298943D01*
X-744376Y+5364983D02*
X-744376Y+5375143D01*
X-739296Y+5283703D02*
X-739296Y+5293863D01*
X-739296Y+5359903D02*
X-739296Y+5370063D01*
X-734216Y+5278623D02*
X-734216Y+5288783D01*
X-734216Y+5359903D02*
X-734216Y+5370063D01*
X-729136Y+5273543D02*
X-729136Y+5283703D01*
X-729136Y+5354823D02*
X-729136Y+5364983D01*
X-724056Y+5268463D02*
X-724056Y+5278623D01*
X-724056Y+5354823D02*
X-724056Y+5364983D01*
X-718976Y+5263383D02*
X-718976Y+5273543D01*
X-718976Y+5354823D02*
X-718976Y+5364983D01*
X-713896Y+5258303D02*
X-713896Y+5268463D01*
X-713896Y+5349743D02*
X-713896Y+5359903D01*
X-708816Y+5253223D02*
X-708816Y+5304023D01*
X-708816Y+5319263D02*
X-708816Y+5329423D01*
X-708816Y+5349743D02*
X-708816Y+5359903D01*
X-703736Y+5253223D02*
X-703736Y+5304023D01*
X-703736Y+5319263D02*
X-703736Y+5329423D01*
X-703736Y+5349743D02*
X-703736Y+5359903D01*
X+462229Y+7794886D02*
X+462229Y+7799966D01*
X+462229Y+7850766D02*
X+462229Y+7901566D01*
X+467309Y+7789806D02*
X+467309Y+7799966D01*
X+467309Y+7850766D02*
X+467309Y+7901566D01*
X+472389Y+7784726D02*
X+472389Y+7799966D01*
X+472389Y+7886326D02*
X+472389Y+7896486D01*
X+477469Y+7774566D02*
X+477469Y+7799966D01*
X+477469Y+7881246D02*
X+477469Y+7891406D01*
X+482549Y+7769486D02*
X+482549Y+7784726D01*
X+482549Y+7789806D02*
X+482549Y+7799966D01*
X+482549Y+7881246D02*
X+482549Y+7891406D01*
X+487629Y+7769486D02*
X+487629Y+7774566D01*
X+487629Y+7789806D02*
X+487629Y+7799966D01*
X+487629Y+7876166D02*
X+487629Y+7886326D01*
X+492709Y+7789806D02*
X+492709Y+7799966D01*
X+492709Y+7876166D02*
X+492709Y+7886326D01*
X+497789Y+7789806D02*
X+497789Y+7799966D01*
X+497789Y+7871086D02*
X+497789Y+7881246D01*
X+502869Y+7789806D02*
X+502869Y+7799966D01*
X+502869Y+7871086D02*
X+502869Y+7881246D01*
X+507949Y+7789806D02*
X+507949Y+7799966D01*
X+507949Y+7866006D02*
X+507949Y+7876166D01*
X+513029Y+7789806D02*
X+513029Y+7799966D01*
X+513029Y+7866006D02*
X+513029Y+7876166D01*
X+518109Y+7789806D02*
X+518109Y+7799966D01*
X+518109Y+7866006D02*
X+518109Y+7876166D01*
X+523189Y+7789806D02*
X+523189Y+7799966D01*
X+523189Y+7860926D02*
X+523189Y+7871086D01*
X+528269Y+7789806D02*
X+528269Y+7799966D01*
X+528269Y+7830446D02*
X+528269Y+7840606D01*
X+528269Y+7860926D02*
X+528269Y+7871086D01*
X+533349Y+7789806D02*
X+533349Y+7799966D01*
X+533349Y+7830446D02*
X+533349Y+7840606D01*
X+533349Y+7860926D02*
X+533349Y+7871086D01*
X+692229Y+7794886D02*
X+692229Y+7799966D01*
X+692229Y+7866006D02*
X+692229Y+7891406D01*
X+697309Y+7789806D02*
X+697309Y+7799966D01*
X+697309Y+7860926D02*
X+697309Y+7896486D01*
X+702389Y+7784726D02*
X+702389Y+7799966D01*
X+702389Y+7855846D02*
X+702389Y+7871086D01*
X+702389Y+7886326D02*
X+702389Y+7901566D01*
X+707469Y+7774566D02*
X+707469Y+7799966D01*
X+707469Y+7855846D02*
X+707469Y+7866006D01*
X+707469Y+7891406D02*
X+707469Y+7901566D01*
X+712549Y+7769486D02*
X+712549Y+7784726D01*
X+712549Y+7789806D02*
X+712549Y+7799966D01*
X+712549Y+7850766D02*
X+712549Y+7860926D01*
X+717629Y+7769486D02*
X+717629Y+7774566D01*
X+717629Y+7789806D02*
X+717629Y+7799966D01*
X+717629Y+7850766D02*
X+717629Y+7860926D01*
X+717629Y+7871086D02*
X+717629Y+7891406D01*
X+722709Y+7789806D02*
X+722709Y+7799966D01*
X+722709Y+7850766D02*
X+722709Y+7896486D01*
X+727789Y+7789806D02*
X+727789Y+7799966D01*
X+727789Y+7850766D02*
X+727789Y+7866006D01*
X+727789Y+7886326D02*
X+727789Y+7896486D01*
X+732869Y+7789806D02*
X+732869Y+7799966D01*
X+732869Y+7850766D02*
X+732869Y+7860926D01*
X+732869Y+7891406D02*
X+732869Y+7901566D01*
X+737949Y+7789806D02*
X+737949Y+7799966D01*
X+737949Y+7850766D02*
X+737949Y+7860926D01*
X+737949Y+7891406D02*
X+737949Y+7901566D01*
X+743029Y+7789806D02*
X+743029Y+7799966D01*
X+743029Y+7850766D02*
X+743029Y+7860926D01*
X+743029Y+7891406D02*
X+743029Y+7901566D01*
X+748109Y+7789806D02*
X+748109Y+7799966D01*
X+748109Y+7855846D02*
X+748109Y+7866006D01*
X+748109Y+7891406D02*
X+748109Y+7901566D01*
X+753189Y+7789806D02*
X+753189Y+7799966D01*
X+753189Y+7855846D02*
X+753189Y+7866006D01*
X+753189Y+7886326D02*
X+753189Y+7896486D01*
X+758269Y+7789806D02*
X+758269Y+7799966D01*
X+758269Y+7830446D02*
X+758269Y+7840606D01*
X+758269Y+7860926D02*
X+758269Y+7896486D01*
X+763349Y+7789806D02*
X+763349Y+7799966D01*
X+763349Y+7830446D02*
X+763349Y+7840606D01*
X+763349Y+7866006D02*
X+763349Y+7886326D01*
X+952229Y+7794886D02*
X+952229Y+7799966D01*
X+952229Y+7855846D02*
X+952229Y+7901566D01*
X+957309Y+7789806D02*
X+957309Y+7799966D01*
X+957309Y+7855846D02*
X+957309Y+7901566D01*
X+962389Y+7784726D02*
X+962389Y+7799966D01*
X+962389Y+7855846D02*
X+962389Y+7866006D01*
X+967469Y+7774566D02*
X+967469Y+7799966D01*
X+967469Y+7855846D02*
X+967469Y+7866006D01*
X+972549Y+7769486D02*
X+972549Y+7784726D01*
X+972549Y+7789806D02*
X+972549Y+7799966D01*
X+972549Y+7855846D02*
X+972549Y+7866006D01*
X+977629Y+7769486D02*
X+977629Y+7774566D01*
X+977629Y+7789806D02*
X+977629Y+7799966D01*
X+977629Y+7850766D02*
X+977629Y+7860926D01*
X+977629Y+7866006D02*
X+977629Y+7886326D01*
X+982709Y+7789806D02*
X+982709Y+7799966D01*
X+982709Y+7850766D02*
X+982709Y+7896486D01*
X+987789Y+7789806D02*
X+987789Y+7799966D01*
X+987789Y+7850766D02*
X+987789Y+7866006D01*
X+987789Y+7886326D02*
X+987789Y+7896486D01*
X+992869Y+7789806D02*
X+992869Y+7799966D01*
X+992869Y+7891406D02*
X+992869Y+7901566D01*
X+997949Y+7789806D02*
X+997949Y+7799966D01*
X+997949Y+7891406D02*
X+997949Y+7901566D01*
X+1003029Y+7789806D02*
X+1003029Y+7799966D01*
X+1003029Y+7891406D02*
X+1003029Y+7901566D01*
X+1008109Y+7789806D02*
X+1008109Y+7799966D01*
X+1008109Y+7850766D02*
X+1008109Y+7860926D01*
X+1008109Y+7891406D02*
X+1008109Y+7901566D01*
X+1013189Y+7789806D02*
X+1013189Y+7799966D01*
X+1013189Y+7850766D02*
X+1013189Y+7866006D01*
X+1013189Y+7886326D02*
X+1013189Y+7896486D01*
X+1018269Y+7789806D02*
X+1018269Y+7799966D01*
X+1018269Y+7830446D02*
X+1018269Y+7840606D01*
X+1018269Y+7855846D02*
X+1018269Y+7896486D01*
X+1023349Y+7789806D02*
X+1023349Y+7799966D01*
X+1023349Y+7830446D02*
X+1023349Y+7840606D01*
X+1023349Y+7860926D02*
X+1023349Y+7886326D01*
X+1214542Y+7794886D02*
X+1214542Y+7799966D01*
X+1214542Y+7881246D02*
X+1214542Y+7891406D01*
X+1219622Y+7789806D02*
X+1219622Y+7799966D01*
X+1219622Y+7876166D02*
X+1219622Y+7891406D01*
X+1224702Y+7784726D02*
X+1224702Y+7799966D01*
X+1224702Y+7871086D02*
X+1224702Y+7891406D01*
X+1229782Y+7774566D02*
X+1229782Y+7799966D01*
X+1229782Y+7866006D02*
X+1229782Y+7876166D01*
X+1229782Y+7881246D02*
X+1229782Y+7891406D01*
X+1234862Y+7769486D02*
X+1234862Y+7784726D01*
X+1234862Y+7789806D02*
X+1234862Y+7799966D01*
X+1234862Y+7866006D02*
X+1234862Y+7876166D01*
X+1234862Y+7881246D02*
X+1234862Y+7891406D01*
X+1239942Y+7769486D02*
X+1239942Y+7774566D01*
X+1239942Y+7789806D02*
X+1239942Y+7799966D01*
X+1239942Y+7860926D02*
X+1239942Y+7871086D01*
X+1239942Y+7881246D02*
X+1239942Y+7891406D01*
X+1245022Y+7789806D02*
X+1245022Y+7799966D01*
X+1245022Y+7855846D02*
X+1245022Y+7866006D01*
X+1245022Y+7881246D02*
X+1245022Y+7891406D01*
X+1250102Y+7789806D02*
X+1250102Y+7799966D01*
X+1250102Y+7850766D02*
X+1250102Y+7860926D01*
X+1250102Y+7881246D02*
X+1250102Y+7891406D01*
X+1255182Y+7789806D02*
X+1255182Y+7799966D01*
X+1255182Y+7845686D02*
X+1255182Y+7855846D01*
X+1255182Y+7881246D02*
X+1255182Y+7891406D01*
X+1260262Y+7789806D02*
X+1260262Y+7799966D01*
X+1260262Y+7845686D02*
X+1260262Y+7901566D01*
X+1265342Y+7789806D02*
X+1265342Y+7799966D01*
X+1265342Y+7845686D02*
X+1265342Y+7901566D01*
X+1270422Y+7789806D02*
X+1270422Y+7799966D01*
X+1270422Y+7881246D02*
X+1270422Y+7891406D01*
X+1275502Y+7789806D02*
X+1275502Y+7799966D01*
X+1275502Y+7881246D02*
X+1275502Y+7891406D01*
X+1280582Y+7789806D02*
X+1280582Y+7799966D01*
X+1280582Y+7830446D02*
X+1280582Y+7840606D01*
X+1280582Y+7881246D02*
X+1280582Y+7891406D01*
X+1285662Y+7789806D02*
X+1285662Y+7799966D01*
X+1285662Y+7830446D02*
X+1285662Y+7840606D01*
X+1285662Y+7881246D02*
X+1285662Y+7891406D01*
X+1462229Y+7794886D02*
X+1462229Y+7799966D01*
X+1462229Y+7860926D02*
X+1462229Y+7886326D01*
X+1467309Y+7789806D02*
X+1467309Y+7799966D01*
X+1467309Y+7855846D02*
X+1467309Y+7891406D01*
X+1472389Y+7784726D02*
X+1472389Y+7799966D01*
X+1472389Y+7850766D02*
X+1472389Y+7866006D01*
X+1472389Y+7881246D02*
X+1472389Y+7896486D01*
X+1477469Y+7774566D02*
X+1477469Y+7799966D01*
X+1477469Y+7850766D02*
X+1477469Y+7860926D01*
X+1477469Y+7886326D02*
X+1477469Y+7896486D01*
X+1482549Y+7769486D02*
X+1482549Y+7784726D01*
X+1482549Y+7789806D02*
X+1482549Y+7799966D01*
X+1482549Y+7886326D02*
X+1482549Y+7896486D01*
X+1487629Y+7769486D02*
X+1487629Y+7774566D01*
X+1487629Y+7789806D02*
X+1487629Y+7799966D01*
X+1487629Y+7881246D02*
X+1487629Y+7896486D01*
X+1492709Y+7789806D02*
X+1492709Y+7799966D01*
X+1492709Y+7866006D02*
X+1492709Y+7891406D01*
X+1497789Y+7789806D02*
X+1497789Y+7799966D01*
X+1497789Y+7866006D02*
X+1497789Y+7896486D01*
X+1502869Y+7789806D02*
X+1502869Y+7799966D01*
X+1502869Y+7886326D02*
X+1502869Y+7896486D01*
X+1507949Y+7789806D02*
X+1507949Y+7799966D01*
X+1507949Y+7891406D02*
X+1507949Y+7901566D01*
X+1513029Y+7789806D02*
X+1513029Y+7799966D01*
X+1513029Y+7891406D02*
X+1513029Y+7901566D01*
X+1518109Y+7789806D02*
X+1518109Y+7799966D01*
X+1518109Y+7850766D02*
X+1518109Y+7860926D01*
X+1518109Y+7891406D02*
X+1518109Y+7901566D01*
X+1523189Y+7789806D02*
X+1523189Y+7799966D01*
X+1523189Y+7850766D02*
X+1523189Y+7866006D01*
X+1523189Y+7886326D02*
X+1523189Y+7896486D01*
X+1528269Y+7789806D02*
X+1528269Y+7799966D01*
X+1528269Y+7830446D02*
X+1528269Y+7840606D01*
X+1528269Y+7855846D02*
X+1528269Y+7896486D01*
X+1533349Y+7789806D02*
X+1533349Y+7799966D01*
X+1533349Y+7830446D02*
X+1533349Y+7840606D01*
X+1533349Y+7860926D02*
X+1533349Y+7886326D01*
X+1712229Y+7794886D02*
X+1712229Y+7799966D01*
X+1712229Y+7866006D02*
X+1712229Y+7891406D01*
X+1717309Y+7789806D02*
X+1717309Y+7799966D01*
X+1717309Y+7855846D02*
X+1717309Y+7896486D01*
X+1722389Y+7784726D02*
X+1722389Y+7799966D01*
X+1722389Y+7855846D02*
X+1722389Y+7866006D01*
X+1722389Y+7886326D02*
X+1722389Y+7901566D01*
X+1727469Y+7774566D02*
X+1727469Y+7799966D01*
X+1727469Y+7850766D02*
X+1727469Y+7860926D01*
X+1727469Y+7891406D02*
X+1727469Y+7901566D01*
X+1732549Y+7769486D02*
X+1732549Y+7784726D01*
X+1732549Y+7789806D02*
X+1732549Y+7799966D01*
X+1732549Y+7850766D02*
X+1732549Y+7860926D01*
X+1732549Y+7891406D02*
X+1732549Y+7901566D01*
X+1737629Y+7769486D02*
X+1737629Y+7774566D01*
X+1737629Y+7789806D02*
X+1737629Y+7799966D01*
X+1737629Y+7891406D02*
X+1737629Y+7901566D01*
X+1742709Y+7789806D02*
X+1742709Y+7799966D01*
X+1742709Y+7886326D02*
X+1742709Y+7896486D01*
X+1747789Y+7789806D02*
X+1747789Y+7799966D01*
X+1747789Y+7881246D02*
X+1747789Y+7891406D01*
X+1752869Y+7789806D02*
X+1752869Y+7799966D01*
X+1752869Y+7876166D02*
X+1752869Y+7886326D01*
X+1757949Y+7789806D02*
X+1757949Y+7799966D01*
X+1757949Y+7871086D02*
X+1757949Y+7881246D01*
X+1763029Y+7789806D02*
X+1763029Y+7799966D01*
X+1763029Y+7866006D02*
X+1763029Y+7876166D01*
X+1768109Y+7789806D02*
X+1768109Y+7799966D01*
X+1768109Y+7860926D02*
X+1768109Y+7871086D01*
X+1773189Y+7789806D02*
X+1773189Y+7799966D01*
X+1773189Y+7855846D02*
X+1773189Y+7866006D01*
X+1778269Y+7789806D02*
X+1778269Y+7799966D01*
X+1778269Y+7830446D02*
X+1778269Y+7840606D01*
X+1778269Y+7850766D02*
X+1778269Y+7901566D01*
X+1783349Y+7789806D02*
X+1783349Y+7799966D01*
X+1783349Y+7830446D02*
X+1783349Y+7840606D01*
X+1783349Y+7850766D02*
X+1783349Y+7901566D01*
X+1972229Y+7794886D02*
X+1972229Y+7799966D01*
X+1972229Y+7881246D02*
X+1972229Y+7886326D01*
X+1977309Y+7789806D02*
X+1977309Y+7799966D01*
X+1977309Y+7876166D02*
X+1977309Y+7886326D01*
X+1982389Y+7784726D02*
X+1982389Y+7799966D01*
X+1982389Y+7871086D02*
X+1982389Y+7886326D01*
X+1987469Y+7774566D02*
X+1987469Y+7799966D01*
X+1987469Y+7860926D02*
X+1987469Y+7886326D01*
X+1992549Y+7769486D02*
X+1992549Y+7784726D01*
X+1992549Y+7789806D02*
X+1992549Y+7799966D01*
X+1992549Y+7855846D02*
X+1992549Y+7871086D01*
X+1992549Y+7876166D02*
X+1992549Y+7886326D01*
X+1997629Y+7769486D02*
X+1997629Y+7774566D01*
X+1997629Y+7789806D02*
X+1997629Y+7799966D01*
X+1997629Y+7855846D02*
X+1997629Y+7860926D01*
X+1997629Y+7876166D02*
X+1997629Y+7886326D01*
X+2002709Y+7789806D02*
X+2002709Y+7799966D01*
X+2002709Y+7876166D02*
X+2002709Y+7886326D01*
X+2007789Y+7789806D02*
X+2007789Y+7799966D01*
X+2007789Y+7876166D02*
X+2007789Y+7886326D01*
X+2012869Y+7789806D02*
X+2012869Y+7799966D01*
X+2012869Y+7876166D02*
X+2012869Y+7886326D01*
X+2017949Y+7789806D02*
X+2017949Y+7799966D01*
X+2017949Y+7876166D02*
X+2017949Y+7886326D01*
X+2023029Y+7789806D02*
X+2023029Y+7799966D01*
X+2023029Y+7876166D02*
X+2023029Y+7886326D01*
X+2028109Y+7789806D02*
X+2028109Y+7799966D01*
X+2028109Y+7876166D02*
X+2028109Y+7886326D01*
X+2033189Y+7789806D02*
X+2033189Y+7799966D01*
X+2033189Y+7876166D02*
X+2033189Y+7886326D01*
X+2038269Y+7789806D02*
X+2038269Y+7799966D01*
X+2038269Y+7830446D02*
X+2038269Y+7840606D01*
X+2038269Y+7876166D02*
X+2038269Y+7886326D01*
X+2043349Y+7789806D02*
X+2043349Y+7799966D01*
X+2043349Y+7830446D02*
X+2043349Y+7840606D01*
X+2043349Y+7876166D02*
X+2043349Y+7886326D01*
X+2242229Y+7794886D02*
X+2242229Y+7799966D01*
X+2242229Y+7866006D02*
X+2242229Y+7886326D01*
X+2247309Y+7789806D02*
X+2247309Y+7799966D01*
X+2247309Y+7860926D02*
X+2247309Y+7891406D01*
X+2252389Y+7784726D02*
X+2252389Y+7799966D01*
X+2252389Y+7855846D02*
X+2252389Y+7866006D01*
X+2252389Y+7886326D02*
X+2252389Y+7896486D01*
X+2257469Y+7774566D02*
X+2257469Y+7799966D01*
X+2257469Y+7855846D02*
X+2257469Y+7866006D01*
X+2257469Y+7886326D02*
X+2257469Y+7896486D01*
X+2262549Y+7769486D02*
X+2262549Y+7784726D01*
X+2262549Y+7789806D02*
X+2262549Y+7799966D01*
X+2262549Y+7850766D02*
X+2262549Y+7860926D01*
X+2262549Y+7891406D02*
X+2262549Y+7901566D01*
X+2267629Y+7769486D02*
X+2267629Y+7774566D01*
X+2267629Y+7789806D02*
X+2267629Y+7799966D01*
X+2267629Y+7850766D02*
X+2267629Y+7860926D01*
X+2267629Y+7891406D02*
X+2267629Y+7901566D01*
X+2272709Y+7789806D02*
X+2272709Y+7799966D01*
X+2272709Y+7850766D02*
X+2272709Y+7860926D01*
X+2272709Y+7891406D02*
X+2272709Y+7901566D01*
X+2277789Y+7789806D02*
X+2277789Y+7799966D01*
X+2277789Y+7850766D02*
X+2277789Y+7860926D01*
X+2277789Y+7891406D02*
X+2277789Y+7901566D01*
X+2282869Y+7789806D02*
X+2282869Y+7799966D01*
X+2282869Y+7850766D02*
X+2282869Y+7860926D01*
X+2282869Y+7891406D02*
X+2282869Y+7901566D01*
X+2287949Y+7789806D02*
X+2287949Y+7799966D01*
X+2287949Y+7850766D02*
X+2287949Y+7860926D01*
X+2287949Y+7891406D02*
X+2287949Y+7901566D01*
X+2293029Y+7789806D02*
X+2293029Y+7799966D01*
X+2293029Y+7850766D02*
X+2293029Y+7860926D01*
X+2293029Y+7891406D02*
X+2293029Y+7901566D01*
X+2298109Y+7789806D02*
X+2298109Y+7799966D01*
X+2298109Y+7855846D02*
X+2298109Y+7866006D01*
X+2298109Y+7886326D02*
X+2298109Y+7896486D01*
X+2303189Y+7789806D02*
X+2303189Y+7799966D01*
X+2303189Y+7855846D02*
X+2303189Y+7866006D01*
X+2303189Y+7886326D02*
X+2303189Y+7896486D01*
X+2308269Y+7789806D02*
X+2308269Y+7799966D01*
X+2308269Y+7830446D02*
X+2308269Y+7840606D01*
X+2308269Y+7860926D02*
X+2308269Y+7891406D01*
X+2313349Y+7789806D02*
X+2313349Y+7799966D01*
X+2313349Y+7830446D02*
X+2313349Y+7840606D01*
X+2313349Y+7866006D02*
X+2313349Y+7886326D01*
X-1834185Y+7777130D02*
X-1834185Y+7802530D01*
X-1834185Y+7853330D02*
X-1834185Y+7904130D01*
X-1829105Y+7772050D02*
X-1829105Y+7807610D01*
X-1829105Y+7853330D02*
X-1829105Y+7904130D01*
X-1824025Y+7766970D02*
X-1824025Y+7782210D01*
X-1824025Y+7797450D02*
X-1824025Y+7812690D01*
X-1824025Y+7888890D02*
X-1824025Y+7899050D01*
X-1818945Y+7766970D02*
X-1818945Y+7777130D01*
X-1818945Y+7802530D02*
X-1818945Y+7812690D01*
X-1818945Y+7883810D02*
X-1818945Y+7893970D01*
X-1813865Y+7802530D02*
X-1813865Y+7812690D01*
X-1813865Y+7883810D02*
X-1813865Y+7893970D01*
X-1808785Y+7797450D02*
X-1808785Y+7812690D01*
X-1808785Y+7878730D02*
X-1808785Y+7888890D01*
X-1803705Y+7782210D02*
X-1803705Y+7807610D01*
X-1803705Y+7878730D02*
X-1803705Y+7888890D01*
X-1798625Y+7782210D02*
X-1798625Y+7812690D01*
X-1798625Y+7873650D02*
X-1798625Y+7883810D01*
X-1793545Y+7802530D02*
X-1793545Y+7812690D01*
X-1793545Y+7873650D02*
X-1793545Y+7883810D01*
X-1788465Y+7807610D02*
X-1788465Y+7817770D01*
X-1788465Y+7868570D02*
X-1788465Y+7878730D01*
X-1783385Y+7807610D02*
X-1783385Y+7817770D01*
X-1783385Y+7868570D02*
X-1783385Y+7878730D01*
X-1778305Y+7766970D02*
X-1778305Y+7777130D01*
X-1778305Y+7807610D02*
X-1778305Y+7817770D01*
X-1778305Y+7868570D02*
X-1778305Y+7878730D01*
X-1773225Y+7766970D02*
X-1773225Y+7782210D01*
X-1773225Y+7802530D02*
X-1773225Y+7812690D01*
X-1773225Y+7863490D02*
X-1773225Y+7873650D01*
X-1768145Y+7772050D02*
X-1768145Y+7812690D01*
X-1768145Y+7833010D02*
X-1768145Y+7843170D01*
X-1768145Y+7863490D02*
X-1768145Y+7873650D01*
X-1763065Y+7777130D02*
X-1763065Y+7802530D01*
X-1763065Y+7833010D02*
X-1763065Y+7843170D01*
X-1763065Y+7863490D02*
X-1763065Y+7873650D01*
X-1594185Y+7777130D02*
X-1594185Y+7802530D01*
X-1594185Y+7868570D02*
X-1594185Y+7893970D01*
X-1589105Y+7772050D02*
X-1589105Y+7807610D01*
X-1589105Y+7863490D02*
X-1589105Y+7899050D01*
X-1584025Y+7766970D02*
X-1584025Y+7782210D01*
X-1584025Y+7797450D02*
X-1584025Y+7812690D01*
X-1584025Y+7858410D02*
X-1584025Y+7873650D01*
X-1584025Y+7888890D02*
X-1584025Y+7904130D01*
X-1578945Y+7766970D02*
X-1578945Y+7777130D01*
X-1578945Y+7802530D02*
X-1578945Y+7812690D01*
X-1578945Y+7858410D02*
X-1578945Y+7868570D01*
X-1578945Y+7893970D02*
X-1578945Y+7904130D01*
X-1573865Y+7802530D02*
X-1573865Y+7812690D01*
X-1573865Y+7853330D02*
X-1573865Y+7863490D01*
X-1568785Y+7797450D02*
X-1568785Y+7812690D01*
X-1568785Y+7853330D02*
X-1568785Y+7863490D01*
X-1568785Y+7873650D02*
X-1568785Y+7893970D01*
X-1563705Y+7782210D02*
X-1563705Y+7807610D01*
X-1563705Y+7853330D02*
X-1563705Y+7899050D01*
X-1558625Y+7782210D02*
X-1558625Y+7812690D01*
X-1558625Y+7853330D02*
X-1558625Y+7868570D01*
X-1558625Y+7888890D02*
X-1558625Y+7899050D01*
X-1553545Y+7802530D02*
X-1553545Y+7812690D01*
X-1553545Y+7853330D02*
X-1553545Y+7863490D01*
X-1553545Y+7893970D02*
X-1553545Y+7904130D01*
X-1548465Y+7807610D02*
X-1548465Y+7817770D01*
X-1548465Y+7853330D02*
X-1548465Y+7863490D01*
X-1548465Y+7893970D02*
X-1548465Y+7904130D01*
X-1543385Y+7807610D02*
X-1543385Y+7817770D01*
X-1543385Y+7853330D02*
X-1543385Y+7863490D01*
X-1543385Y+7893970D02*
X-1543385Y+7904130D01*
X-1538305Y+7766970D02*
X-1538305Y+7777130D01*
X-1538305Y+7807610D02*
X-1538305Y+7817770D01*
X-1538305Y+7858410D02*
X-1538305Y+7868570D01*
X-1538305Y+7893970D02*
X-1538305Y+7904130D01*
X-1533225Y+7766970D02*
X-1533225Y+7782210D01*
X-1533225Y+7802530D02*
X-1533225Y+7812690D01*
X-1533225Y+7858410D02*
X-1533225Y+7868570D01*
X-1533225Y+7888890D02*
X-1533225Y+7899050D01*
X-1528145Y+7772050D02*
X-1528145Y+7812690D01*
X-1528145Y+7833010D02*
X-1528145Y+7843170D01*
X-1528145Y+7863490D02*
X-1528145Y+7899050D01*
X-1523065Y+7777130D02*
X-1523065Y+7802530D01*
X-1523065Y+7833010D02*
X-1523065Y+7843170D01*
X-1523065Y+7868570D02*
X-1523065Y+7888890D01*
X-1334185Y+7777130D02*
X-1334185Y+7802530D01*
X-1334185Y+7858410D02*
X-1334185Y+7904130D01*
X-1329105Y+7772050D02*
X-1329105Y+7807610D01*
X-1329105Y+7858410D02*
X-1329105Y+7904130D01*
X-1324025Y+7766970D02*
X-1324025Y+7782210D01*
X-1324025Y+7797450D02*
X-1324025Y+7812690D01*
X-1324025Y+7858410D02*
X-1324025Y+7868570D01*
X-1318945Y+7766970D02*
X-1318945Y+7777130D01*
X-1318945Y+7802530D02*
X-1318945Y+7812690D01*
X-1318945Y+7858410D02*
X-1318945Y+7868570D01*
X-1313865Y+7802530D02*
X-1313865Y+7812690D01*
X-1313865Y+7858410D02*
X-1313865Y+7868570D01*
X-1308785Y+7797450D02*
X-1308785Y+7812690D01*
X-1308785Y+7853330D02*
X-1308785Y+7863490D01*
X-1308785Y+7868570D02*
X-1308785Y+7888890D01*
X-1303705Y+7782210D02*
X-1303705Y+7807610D01*
X-1303705Y+7853330D02*
X-1303705Y+7899050D01*
X-1298625Y+7782210D02*
X-1298625Y+7812690D01*
X-1298625Y+7853330D02*
X-1298625Y+7868570D01*
X-1298625Y+7888890D02*
X-1298625Y+7899050D01*
X-1293545Y+7802530D02*
X-1293545Y+7812690D01*
X-1293545Y+7893970D02*
X-1293545Y+7904130D01*
X-1288465Y+7807610D02*
X-1288465Y+7817770D01*
X-1288465Y+7893970D02*
X-1288465Y+7904130D01*
X-1283385Y+7807610D02*
X-1283385Y+7817770D01*
X-1283385Y+7893970D02*
X-1283385Y+7904130D01*
X-1278305Y+7766970D02*
X-1278305Y+7777130D01*
X-1278305Y+7807610D02*
X-1278305Y+7817770D01*
X-1278305Y+7853330D02*
X-1278305Y+7863490D01*
X-1278305Y+7893970D02*
X-1278305Y+7904130D01*
X-1273225Y+7766970D02*
X-1273225Y+7782210D01*
X-1273225Y+7802530D02*
X-1273225Y+7812690D01*
X-1273225Y+7853330D02*
X-1273225Y+7868570D01*
X-1273225Y+7888890D02*
X-1273225Y+7899050D01*
X-1268145Y+7772050D02*
X-1268145Y+7812690D01*
X-1268145Y+7833010D02*
X-1268145Y+7843170D01*
X-1268145Y+7858410D02*
X-1268145Y+7899050D01*
X-1263065Y+7777130D02*
X-1263065Y+7802530D01*
X-1263065Y+7833010D02*
X-1263065Y+7843170D01*
X-1263065Y+7863490D02*
X-1263065Y+7888890D01*
X-1071872Y+7777130D02*
X-1071872Y+7802530D01*
X-1071872Y+7883810D02*
X-1071872Y+7893970D01*
X-1066792Y+7772050D02*
X-1066792Y+7807610D01*
X-1066792Y+7878730D02*
X-1066792Y+7893970D01*
X-1061712Y+7766970D02*
X-1061712Y+7782210D01*
X-1061712Y+7797450D02*
X-1061712Y+7812690D01*
X-1061712Y+7873650D02*
X-1061712Y+7893970D01*
X-1056632Y+7766970D02*
X-1056632Y+7777130D01*
X-1056632Y+7802530D02*
X-1056632Y+7812690D01*
X-1056632Y+7868570D02*
X-1056632Y+7878730D01*
X-1056632Y+7883810D02*
X-1056632Y+7893970D01*
X-1051552Y+7802530D02*
X-1051552Y+7812690D01*
X-1051552Y+7868570D02*
X-1051552Y+7878730D01*
X-1051552Y+7883810D02*
X-1051552Y+7893970D01*
X-1046472Y+7797450D02*
X-1046472Y+7812690D01*
X-1046472Y+7863490D02*
X-1046472Y+7873650D01*
X-1046472Y+7883810D02*
X-1046472Y+7893970D01*
X-1041392Y+7782210D02*
X-1041392Y+7807610D01*
X-1041392Y+7858410D02*
X-1041392Y+7868570D01*
X-1041392Y+7883810D02*
X-1041392Y+7893970D01*
X-1036312Y+7782210D02*
X-1036312Y+7812690D01*
X-1036312Y+7853330D02*
X-1036312Y+7863490D01*
X-1036312Y+7883810D02*
X-1036312Y+7893970D01*
X-1031232Y+7802530D02*
X-1031232Y+7812690D01*
X-1031232Y+7848250D02*
X-1031232Y+7858410D01*
X-1031232Y+7883810D02*
X-1031232Y+7893970D01*
X-1026152Y+7807610D02*
X-1026152Y+7817770D01*
X-1026152Y+7848250D02*
X-1026152Y+7904130D01*
X-1021072Y+7807610D02*
X-1021072Y+7817770D01*
X-1021072Y+7848250D02*
X-1021072Y+7904130D01*
X-1015992Y+7766970D02*
X-1015992Y+7777130D01*
X-1015992Y+7807610D02*
X-1015992Y+7817770D01*
X-1015992Y+7883810D02*
X-1015992Y+7893970D01*
X-1010912Y+7766970D02*
X-1010912Y+7782210D01*
X-1010912Y+7802530D02*
X-1010912Y+7812690D01*
X-1010912Y+7883810D02*
X-1010912Y+7893970D01*
X-1005832Y+7772050D02*
X-1005832Y+7812690D01*
X-1005832Y+7833010D02*
X-1005832Y+7843170D01*
X-1005832Y+7883810D02*
X-1005832Y+7893970D01*
X-1000752Y+7777130D02*
X-1000752Y+7802530D01*
X-1000752Y+7833010D02*
X-1000752Y+7843170D01*
X-1000752Y+7883810D02*
X-1000752Y+7893970D01*
X-824185Y+7777130D02*
X-824185Y+7802530D01*
X-824185Y+7863490D02*
X-824185Y+7888890D01*
X-819105Y+7772050D02*
X-819105Y+7807610D01*
X-819105Y+7858410D02*
X-819105Y+7893970D01*
X-814025Y+7766970D02*
X-814025Y+7782210D01*
X-814025Y+7797450D02*
X-814025Y+7812690D01*
X-814025Y+7853330D02*
X-814025Y+7868570D01*
X-814025Y+7883810D02*
X-814025Y+7899050D01*
X-808945Y+7766970D02*
X-808945Y+7777130D01*
X-808945Y+7802530D02*
X-808945Y+7812690D01*
X-808945Y+7853330D02*
X-808945Y+7863490D01*
X-808945Y+7888890D02*
X-808945Y+7899050D01*
X-803865Y+7802530D02*
X-803865Y+7812690D01*
X-803865Y+7888890D02*
X-803865Y+7899050D01*
X-798785Y+7797450D02*
X-798785Y+7812690D01*
X-798785Y+7883810D02*
X-798785Y+7899050D01*
X-793705Y+7782210D02*
X-793705Y+7807610D01*
X-793705Y+7868570D02*
X-793705Y+7893970D01*
X-788625Y+7782210D02*
X-788625Y+7812690D01*
X-788625Y+7868570D02*
X-788625Y+7899050D01*
X-783545Y+7802530D02*
X-783545Y+7812690D01*
X-783545Y+7888890D02*
X-783545Y+7899050D01*
X-778465Y+7807610D02*
X-778465Y+7817770D01*
X-778465Y+7893970D02*
X-778465Y+7904130D01*
X-773385Y+7807610D02*
X-773385Y+7817770D01*
X-773385Y+7893970D02*
X-773385Y+7904130D01*
X-768305Y+7766970D02*
X-768305Y+7777130D01*
X-768305Y+7807610D02*
X-768305Y+7817770D01*
X-768305Y+7853330D02*
X-768305Y+7863490D01*
X-768305Y+7893970D02*
X-768305Y+7904130D01*
X-763225Y+7766970D02*
X-763225Y+7782210D01*
X-763225Y+7802530D02*
X-763225Y+7812690D01*
X-763225Y+7853330D02*
X-763225Y+7868570D01*
X-763225Y+7888890D02*
X-763225Y+7899050D01*
X-758145Y+7772050D02*
X-758145Y+7812690D01*
X-758145Y+7833010D02*
X-758145Y+7843170D01*
X-758145Y+7858410D02*
X-758145Y+7899050D01*
X-753065Y+7777130D02*
X-753065Y+7802530D01*
X-753065Y+7833010D02*
X-753065Y+7843170D01*
X-753065Y+7863490D02*
X-753065Y+7888890D01*
X-574185Y+7777130D02*
X-574185Y+7802530D01*
X-574185Y+7868570D02*
X-574185Y+7893970D01*
X-569105Y+7772050D02*
X-569105Y+7807610D01*
X-569105Y+7858410D02*
X-569105Y+7899050D01*
X-564025Y+7766970D02*
X-564025Y+7782210D01*
X-564025Y+7797450D02*
X-564025Y+7812690D01*
X-564025Y+7858410D02*
X-564025Y+7868570D01*
X-564025Y+7888890D02*
X-564025Y+7904130D01*
X-558945Y+7766970D02*
X-558945Y+7777130D01*
X-558945Y+7802530D02*
X-558945Y+7812690D01*
X-558945Y+7853330D02*
X-558945Y+7863490D01*
X-558945Y+7893970D02*
X-558945Y+7904130D01*
X-553865Y+7802530D02*
X-553865Y+7812690D01*
X-553865Y+7853330D02*
X-553865Y+7863490D01*
X-553865Y+7893970D02*
X-553865Y+7904130D01*
X-548785Y+7797450D02*
X-548785Y+7812690D01*
X-548785Y+7893970D02*
X-548785Y+7904130D01*
X-543705Y+7782210D02*
X-543705Y+7807610D01*
X-543705Y+7888890D02*
X-543705Y+7899050D01*
X-538625Y+7782210D02*
X-538625Y+7812690D01*
X-538625Y+7883810D02*
X-538625Y+7893970D01*
X-533545Y+7802530D02*
X-533545Y+7812690D01*
X-533545Y+7878730D02*
X-533545Y+7888890D01*
X-528465Y+7807610D02*
X-528465Y+7817770D01*
X-528465Y+7873650D02*
X-528465Y+7883810D01*
X-523385Y+7807610D02*
X-523385Y+7817770D01*
X-523385Y+7868570D02*
X-523385Y+7878730D01*
X-518305Y+7766970D02*
X-518305Y+7777130D01*
X-518305Y+7807610D02*
X-518305Y+7817770D01*
X-518305Y+7863490D02*
X-518305Y+7873650D01*
X-513225Y+7766970D02*
X-513225Y+7782210D01*
X-513225Y+7802530D02*
X-513225Y+7812690D01*
X-513225Y+7858410D02*
X-513225Y+7868570D01*
X-508145Y+7772050D02*
X-508145Y+7812690D01*
X-508145Y+7833010D02*
X-508145Y+7843170D01*
X-508145Y+7853330D02*
X-508145Y+7904130D01*
X-503065Y+7777130D02*
X-503065Y+7802530D01*
X-503065Y+7833010D02*
X-503065Y+7843170D01*
X-503065Y+7853330D02*
X-503065Y+7904130D01*
X-314185Y+7777130D02*
X-314185Y+7802530D01*
X-314185Y+7883810D02*
X-314185Y+7888890D01*
X-309105Y+7772050D02*
X-309105Y+7807610D01*
X-309105Y+7878730D02*
X-309105Y+7888890D01*
X-304025Y+7766970D02*
X-304025Y+7782210D01*
X-304025Y+7797450D02*
X-304025Y+7812690D01*
X-304025Y+7873650D02*
X-304025Y+7888890D01*
X-298945Y+7766970D02*
X-298945Y+7777130D01*
X-298945Y+7802530D02*
X-298945Y+7812690D01*
X-298945Y+7863490D02*
X-298945Y+7888890D01*
X-293865Y+7802530D02*
X-293865Y+7812690D01*
X-293865Y+7858410D02*
X-293865Y+7873650D01*
X-293865Y+7878730D02*
X-293865Y+7888890D01*
X-288785Y+7797450D02*
X-288785Y+7812690D01*
X-288785Y+7858410D02*
X-288785Y+7863490D01*
X-288785Y+7878730D02*
X-288785Y+7888890D01*
X-283705Y+7782210D02*
X-283705Y+7807610D01*
X-283705Y+7878730D02*
X-283705Y+7888890D01*
X-278625Y+7782210D02*
X-278625Y+7812690D01*
X-278625Y+7878730D02*
X-278625Y+7888890D01*
X-273545Y+7802530D02*
X-273545Y+7812690D01*
X-273545Y+7878730D02*
X-273545Y+7888890D01*
X-268465Y+7807610D02*
X-268465Y+7817770D01*
X-268465Y+7878730D02*
X-268465Y+7888890D01*
X-263385Y+7807610D02*
X-263385Y+7817770D01*
X-263385Y+7878730D02*
X-263385Y+7888890D01*
X-258305Y+7766970D02*
X-258305Y+7777130D01*
X-258305Y+7807610D02*
X-258305Y+7817770D01*
X-258305Y+7878730D02*
X-258305Y+7888890D01*
X-253225Y+7766970D02*
X-253225Y+7782210D01*
X-253225Y+7802530D02*
X-253225Y+7812690D01*
X-253225Y+7878730D02*
X-253225Y+7888890D01*
X-248145Y+7772050D02*
X-248145Y+7812690D01*
X-248145Y+7833010D02*
X-248145Y+7843170D01*
X-248145Y+7878730D02*
X-248145Y+7888890D01*
X-243065Y+7777130D02*
X-243065Y+7802530D01*
X-243065Y+7833010D02*
X-243065Y+7843170D01*
X-243065Y+7878730D02*
X-243065Y+7888890D01*
X-44185Y+7777130D02*
X-44185Y+7802530D01*
X-44185Y+7868570D02*
X-44185Y+7888890D01*
X-39105Y+7772050D02*
X-39105Y+7807610D01*
X-39105Y+7863490D02*
X-39105Y+7893970D01*
X-34025Y+7766970D02*
X-34025Y+7782210D01*
X-34025Y+7797450D02*
X-34025Y+7812690D01*
X-34025Y+7858410D02*
X-34025Y+7868570D01*
X-34025Y+7888890D02*
X-34025Y+7899050D01*
X-28945Y+7766970D02*
X-28945Y+7777130D01*
X-28945Y+7802530D02*
X-28945Y+7812690D01*
X-28945Y+7858410D02*
X-28945Y+7868570D01*
X-28945Y+7888890D02*
X-28945Y+7899050D01*
X-23865Y+7802530D02*
X-23865Y+7812690D01*
X-23865Y+7853330D02*
X-23865Y+7863490D01*
X-23865Y+7893970D02*
X-23865Y+7904130D01*
X-18785Y+7797450D02*
X-18785Y+7812690D01*
X-18785Y+7853330D02*
X-18785Y+7863490D01*
X-18785Y+7893970D02*
X-18785Y+7904130D01*
X-13705Y+7782210D02*
X-13705Y+7807610D01*
X-13705Y+7853330D02*
X-13705Y+7863490D01*
X-13705Y+7893970D02*
X-13705Y+7904130D01*
X-8625Y+7782210D02*
X-8625Y+7812690D01*
X-8625Y+7853330D02*
X-8625Y+7863490D01*
X-8625Y+7893970D02*
X-8625Y+7904130D01*
X-3545Y+7802530D02*
X-3545Y+7812690D01*
X-3545Y+7853330D02*
X-3545Y+7863490D01*
X-3545Y+7893970D02*
X-3545Y+7904130D01*
X+1535Y+7807610D02*
X+1535Y+7817770D01*
X+1535Y+7853330D02*
X+1535Y+7863490D01*
X+1535Y+7893970D02*
X+1535Y+7904130D01*
X+6615Y+7807610D02*
X+6615Y+7817770D01*
X+6615Y+7853330D02*
X+6615Y+7863490D01*
X+6615Y+7893970D02*
X+6615Y+7904130D01*
X+11695Y+7766970D02*
X+11695Y+7777130D01*
X+11695Y+7807610D02*
X+11695Y+7817770D01*
X+11695Y+7858410D02*
X+11695Y+7868570D01*
X+11695Y+7888890D02*
X+11695Y+7899050D01*
X+16775Y+7766970D02*
X+16775Y+7782210D01*
X+16775Y+7802530D02*
X+16775Y+7812690D01*
X+16775Y+7858410D02*
X+16775Y+7868570D01*
X+16775Y+7888890D02*
X+16775Y+7899050D01*
X+21855Y+7772050D02*
X+21855Y+7812690D01*
X+21855Y+7833010D02*
X+21855Y+7843170D01*
X+21855Y+7863490D02*
X+21855Y+7893970D01*
X+26935Y+7777130D02*
X+26935Y+7802530D01*
X+26935Y+7833010D02*
X+26935Y+7843170D01*
X+26935Y+7868570D02*
X+26935Y+7888890D01*
X+222666Y+5259646D02*
X+222666Y+5279966D01*
X+222666Y+5330766D02*
X+222666Y+5381566D01*
X+227746Y+5254566D02*
X+227746Y+5285046D01*
X+227746Y+5330766D02*
X+227746Y+5381566D01*
X+232826Y+5249486D02*
X+232826Y+5259646D01*
X+232826Y+5279966D02*
X+232826Y+5290126D01*
X+232826Y+5366326D02*
X+232826Y+5376486D01*
X+237906Y+5249486D02*
X+237906Y+5259646D01*
X+237906Y+5279966D02*
X+237906Y+5290126D01*
X+237906Y+5361246D02*
X+237906Y+5371406D01*
X+242986Y+5244406D02*
X+242986Y+5254566D01*
X+242986Y+5285046D02*
X+242986Y+5295206D01*
X+242986Y+5361246D02*
X+242986Y+5371406D01*
X+248066Y+5244406D02*
X+248066Y+5254566D01*
X+248066Y+5285046D02*
X+248066Y+5295206D01*
X+248066Y+5356166D02*
X+248066Y+5366326D01*
X+253146Y+5244406D02*
X+253146Y+5254566D01*
X+253146Y+5285046D02*
X+253146Y+5295206D01*
X+253146Y+5356166D02*
X+253146Y+5366326D01*
X+258226Y+5244406D02*
X+258226Y+5254566D01*
X+258226Y+5285046D02*
X+258226Y+5295206D01*
X+258226Y+5351086D02*
X+258226Y+5361246D01*
X+263306Y+5244406D02*
X+263306Y+5254566D01*
X+263306Y+5285046D02*
X+263306Y+5295206D01*
X+263306Y+5351086D02*
X+263306Y+5361246D01*
X+268386Y+5244406D02*
X+268386Y+5254566D01*
X+268386Y+5285046D02*
X+268386Y+5295206D01*
X+268386Y+5346006D02*
X+268386Y+5356166D01*
X+273466Y+5244406D02*
X+273466Y+5254566D01*
X+273466Y+5285046D02*
X+273466Y+5295206D01*
X+273466Y+5346006D02*
X+273466Y+5356166D01*
X+278546Y+5249486D02*
X+278546Y+5259646D01*
X+278546Y+5279966D02*
X+278546Y+5290126D01*
X+278546Y+5346006D02*
X+278546Y+5356166D01*
X+283626Y+5249486D02*
X+283626Y+5259646D01*
X+283626Y+5279966D02*
X+283626Y+5290126D01*
X+283626Y+5340926D02*
X+283626Y+5351086D01*
X+288706Y+5254566D02*
X+288706Y+5285046D01*
X+288706Y+5310446D02*
X+288706Y+5320606D01*
X+288706Y+5340926D02*
X+288706Y+5351086D01*
X+293786Y+5259646D02*
X+293786Y+5279966D01*
X+293786Y+5310446D02*
X+293786Y+5320606D01*
X+293786Y+5340926D02*
X+293786Y+5351086D01*
X+462666Y+5259646D02*
X+462666Y+5279966D01*
X+462666Y+5346006D02*
X+462666Y+5371406D01*
X+467746Y+5254566D02*
X+467746Y+5285046D01*
X+467746Y+5340926D02*
X+467746Y+5376486D01*
X+472826Y+5249486D02*
X+472826Y+5259646D01*
X+472826Y+5279966D02*
X+472826Y+5290126D01*
X+472826Y+5335846D02*
X+472826Y+5351086D01*
X+472826Y+5366326D02*
X+472826Y+5381566D01*
X+477906Y+5249486D02*
X+477906Y+5259646D01*
X+477906Y+5279966D02*
X+477906Y+5290126D01*
X+477906Y+5335846D02*
X+477906Y+5346006D01*
X+477906Y+5371406D02*
X+477906Y+5381566D01*
X+482986Y+5244406D02*
X+482986Y+5254566D01*
X+482986Y+5285046D02*
X+482986Y+5295206D01*
X+482986Y+5330766D02*
X+482986Y+5340926D01*
X+488066Y+5244406D02*
X+488066Y+5254566D01*
X+488066Y+5285046D02*
X+488066Y+5295206D01*
X+488066Y+5330766D02*
X+488066Y+5340926D01*
X+488066Y+5351086D02*
X+488066Y+5371406D01*
X+493146Y+5244406D02*
X+493146Y+5254566D01*
X+493146Y+5285046D02*
X+493146Y+5295206D01*
X+493146Y+5330766D02*
X+493146Y+5376486D01*
X+498226Y+5244406D02*
X+498226Y+5254566D01*
X+498226Y+5285046D02*
X+498226Y+5295206D01*
X+498226Y+5330766D02*
X+498226Y+5346006D01*
X+498226Y+5366326D02*
X+498226Y+5376486D01*
X+503306Y+5244406D02*
X+503306Y+5254566D01*
X+503306Y+5285046D02*
X+503306Y+5295206D01*
X+503306Y+5330766D02*
X+503306Y+5340926D01*
X+503306Y+5371406D02*
X+503306Y+5381566D01*
X+508386Y+5244406D02*
X+508386Y+5254566D01*
X+508386Y+5285046D02*
X+508386Y+5295206D01*
X+508386Y+5330766D02*
X+508386Y+5340926D01*
X+508386Y+5371406D02*
X+508386Y+5381566D01*
X+513466Y+5244406D02*
X+513466Y+5254566D01*
X+513466Y+5285046D02*
X+513466Y+5295206D01*
X+513466Y+5330766D02*
X+513466Y+5340926D01*
X+513466Y+5371406D02*
X+513466Y+5381566D01*
X+518546Y+5249486D02*
X+518546Y+5259646D01*
X+518546Y+5279966D02*
X+518546Y+5290126D01*
X+518546Y+5335846D02*
X+518546Y+5346006D01*
X+518546Y+5371406D02*
X+518546Y+5381566D01*
X+523626Y+5249486D02*
X+523626Y+5259646D01*
X+523626Y+5279966D02*
X+523626Y+5290126D01*
X+523626Y+5335846D02*
X+523626Y+5346006D01*
X+523626Y+5366326D02*
X+523626Y+5376486D01*
X+528706Y+5254566D02*
X+528706Y+5285046D01*
X+528706Y+5310446D02*
X+528706Y+5320606D01*
X+528706Y+5340926D02*
X+528706Y+5376486D01*
X+533786Y+5259646D02*
X+533786Y+5279966D01*
X+533786Y+5310446D02*
X+533786Y+5320606D01*
X+533786Y+5346006D02*
X+533786Y+5366326D01*
X+722666Y+5259646D02*
X+722666Y+5279966D01*
X+722666Y+5335846D02*
X+722666Y+5381566D01*
X+727746Y+5254566D02*
X+727746Y+5285046D01*
X+727746Y+5335846D02*
X+727746Y+5381566D01*
X+732826Y+5249486D02*
X+732826Y+5259646D01*
X+732826Y+5279966D02*
X+732826Y+5290126D01*
X+732826Y+5335846D02*
X+732826Y+5346006D01*
X+737906Y+5249486D02*
X+737906Y+5259646D01*
X+737906Y+5279966D02*
X+737906Y+5290126D01*
X+737906Y+5335846D02*
X+737906Y+5346006D01*
X+742986Y+5244406D02*
X+742986Y+5254566D01*
X+742986Y+5285046D02*
X+742986Y+5295206D01*
X+742986Y+5335846D02*
X+742986Y+5346006D01*
X+748066Y+5244406D02*
X+748066Y+5254566D01*
X+748066Y+5285046D02*
X+748066Y+5295206D01*
X+748066Y+5330766D02*
X+748066Y+5340926D01*
X+748066Y+5346006D02*
X+748066Y+5366326D01*
X+753146Y+5244406D02*
X+753146Y+5254566D01*
X+753146Y+5285046D02*
X+753146Y+5295206D01*
X+753146Y+5330766D02*
X+753146Y+5376486D01*
X+758226Y+5244406D02*
X+758226Y+5254566D01*
X+758226Y+5285046D02*
X+758226Y+5295206D01*
X+758226Y+5330766D02*
X+758226Y+5346006D01*
X+758226Y+5366326D02*
X+758226Y+5376486D01*
X+763306Y+5244406D02*
X+763306Y+5254566D01*
X+763306Y+5285046D02*
X+763306Y+5295206D01*
X+763306Y+5371406D02*
X+763306Y+5381566D01*
X+768386Y+5244406D02*
X+768386Y+5254566D01*
X+768386Y+5285046D02*
X+768386Y+5295206D01*
X+768386Y+5371406D02*
X+768386Y+5381566D01*
X+773466Y+5244406D02*
X+773466Y+5254566D01*
X+773466Y+5285046D02*
X+773466Y+5295206D01*
X+773466Y+5371406D02*
X+773466Y+5381566D01*
X+778546Y+5249486D02*
X+778546Y+5259646D01*
X+778546Y+5279966D02*
X+778546Y+5290126D01*
X+778546Y+5330766D02*
X+778546Y+5340926D01*
X+778546Y+5371406D02*
X+778546Y+5381566D01*
X+783626Y+5249486D02*
X+783626Y+5259646D01*
X+783626Y+5279966D02*
X+783626Y+5290126D01*
X+783626Y+5330766D02*
X+783626Y+5346006D01*
X+783626Y+5366326D02*
X+783626Y+5376486D01*
X+788706Y+5254566D02*
X+788706Y+5285046D01*
X+788706Y+5310446D02*
X+788706Y+5320606D01*
X+788706Y+5335846D02*
X+788706Y+5376486D01*
X+793786Y+5259646D02*
X+793786Y+5279966D01*
X+793786Y+5310446D02*
X+793786Y+5320606D01*
X+793786Y+5340926D02*
X+793786Y+5366326D01*
X+984979Y+5259646D02*
X+984979Y+5279966D01*
X+984979Y+5361246D02*
X+984979Y+5371406D01*
X+990059Y+5254566D02*
X+990059Y+5285046D01*
X+990059Y+5356166D02*
X+990059Y+5371406D01*
X+995139Y+5249486D02*
X+995139Y+5259646D01*
X+995139Y+5279966D02*
X+995139Y+5290126D01*
X+995139Y+5351086D02*
X+995139Y+5371406D01*
X+1000219Y+5249486D02*
X+1000219Y+5259646D01*
X+1000219Y+5279966D02*
X+1000219Y+5290126D01*
X+1000219Y+5346006D02*
X+1000219Y+5356166D01*
X+1000219Y+5361246D02*
X+1000219Y+5371406D01*
X+1005299Y+5244406D02*
X+1005299Y+5254566D01*
X+1005299Y+5285046D02*
X+1005299Y+5295206D01*
X+1005299Y+5346006D02*
X+1005299Y+5356166D01*
X+1005299Y+5361246D02*
X+1005299Y+5371406D01*
X+1010379Y+5244406D02*
X+1010379Y+5254566D01*
X+1010379Y+5285046D02*
X+1010379Y+5295206D01*
X+1010379Y+5340926D02*
X+1010379Y+5351086D01*
X+1010379Y+5361246D02*
X+1010379Y+5371406D01*
X+1015459Y+5244406D02*
X+1015459Y+5254566D01*
X+1015459Y+5285046D02*
X+1015459Y+5295206D01*
X+1015459Y+5335846D02*
X+1015459Y+5346006D01*
X+1015459Y+5361246D02*
X+1015459Y+5371406D01*
X+1020539Y+5244406D02*
X+1020539Y+5254566D01*
X+1020539Y+5285046D02*
X+1020539Y+5295206D01*
X+1020539Y+5330766D02*
X+1020539Y+5340926D01*
X+1020539Y+5361246D02*
X+1020539Y+5371406D01*
X+1025619Y+5244406D02*
X+1025619Y+5254566D01*
X+1025619Y+5285046D02*
X+1025619Y+5295206D01*
X+1025619Y+5325686D02*
X+1025619Y+5335846D01*
X+1025619Y+5361246D02*
X+1025619Y+5371406D01*
X+1030699Y+5244406D02*
X+1030699Y+5254566D01*
X+1030699Y+5285046D02*
X+1030699Y+5295206D01*
X+1030699Y+5325686D02*
X+1030699Y+5381566D01*
X+1035779Y+5244406D02*
X+1035779Y+5254566D01*
X+1035779Y+5285046D02*
X+1035779Y+5295206D01*
X+1035779Y+5325686D02*
X+1035779Y+5381566D01*
X+1040859Y+5249486D02*
X+1040859Y+5259646D01*
X+1040859Y+5279966D02*
X+1040859Y+5290126D01*
X+1040859Y+5361246D02*
X+1040859Y+5371406D01*
X+1045939Y+5249486D02*
X+1045939Y+5259646D01*
X+1045939Y+5279966D02*
X+1045939Y+5290126D01*
X+1045939Y+5361246D02*
X+1045939Y+5371406D01*
X+1051019Y+5254566D02*
X+1051019Y+5285046D01*
X+1051019Y+5310446D02*
X+1051019Y+5320606D01*
X+1051019Y+5361246D02*
X+1051019Y+5371406D01*
X+1056099Y+5259646D02*
X+1056099Y+5279966D01*
X+1056099Y+5310446D02*
X+1056099Y+5320606D01*
X+1056099Y+5361246D02*
X+1056099Y+5371406D01*
X+1232666Y+5259646D02*
X+1232666Y+5279966D01*
X+1232666Y+5340926D02*
X+1232666Y+5366326D01*
X+1237746Y+5254566D02*
X+1237746Y+5285046D01*
X+1237746Y+5335846D02*
X+1237746Y+5371406D01*
X+1242826Y+5249486D02*
X+1242826Y+5259646D01*
X+1242826Y+5279966D02*
X+1242826Y+5290126D01*
X+1242826Y+5330766D02*
X+1242826Y+5346006D01*
X+1242826Y+5361246D02*
X+1242826Y+5376486D01*
X+1247906Y+5249486D02*
X+1247906Y+5259646D01*
X+1247906Y+5279966D02*
X+1247906Y+5290126D01*
X+1247906Y+5330766D02*
X+1247906Y+5340926D01*
X+1247906Y+5366326D02*
X+1247906Y+5376486D01*
X+1252986Y+5244406D02*
X+1252986Y+5254566D01*
X+1252986Y+5285046D02*
X+1252986Y+5295206D01*
X+1252986Y+5366326D02*
X+1252986Y+5376486D01*
X+1258066Y+5244406D02*
X+1258066Y+5254566D01*
X+1258066Y+5285046D02*
X+1258066Y+5295206D01*
X+1258066Y+5361246D02*
X+1258066Y+5376486D01*
X+1263146Y+5244406D02*
X+1263146Y+5254566D01*
X+1263146Y+5285046D02*
X+1263146Y+5295206D01*
X+1263146Y+5346006D02*
X+1263146Y+5371406D01*
X+1268226Y+5244406D02*
X+1268226Y+5254566D01*
X+1268226Y+5285046D02*
X+1268226Y+5295206D01*
X+1268226Y+5346006D02*
X+1268226Y+5376486D01*
X+1273306Y+5244406D02*
X+1273306Y+5254566D01*
X+1273306Y+5285046D02*
X+1273306Y+5295206D01*
X+1273306Y+5366326D02*
X+1273306Y+5376486D01*
X+1278386Y+5244406D02*
X+1278386Y+5254566D01*
X+1278386Y+5285046D02*
X+1278386Y+5295206D01*
X+1278386Y+5371406D02*
X+1278386Y+5381566D01*
X+1283466Y+5244406D02*
X+1283466Y+5254566D01*
X+1283466Y+5285046D02*
X+1283466Y+5295206D01*
X+1283466Y+5371406D02*
X+1283466Y+5381566D01*
X+1288546Y+5249486D02*
X+1288546Y+5259646D01*
X+1288546Y+5279966D02*
X+1288546Y+5290126D01*
X+1288546Y+5330766D02*
X+1288546Y+5340926D01*
X+1288546Y+5371406D02*
X+1288546Y+5381566D01*
X+1293626Y+5249486D02*
X+1293626Y+5259646D01*
X+1293626Y+5279966D02*
X+1293626Y+5290126D01*
X+1293626Y+5330766D02*
X+1293626Y+5346006D01*
X+1293626Y+5366326D02*
X+1293626Y+5376486D01*
X+1298706Y+5254566D02*
X+1298706Y+5285046D01*
X+1298706Y+5310446D02*
X+1298706Y+5320606D01*
X+1298706Y+5335846D02*
X+1298706Y+5376486D01*
X+1303786Y+5259646D02*
X+1303786Y+5279966D01*
X+1303786Y+5310446D02*
X+1303786Y+5320606D01*
X+1303786Y+5340926D02*
X+1303786Y+5366326D01*
X+1482666Y+5259646D02*
X+1482666Y+5279966D01*
X+1482666Y+5346006D02*
X+1482666Y+5371406D01*
X+1487746Y+5254566D02*
X+1487746Y+5285046D01*
X+1487746Y+5335846D02*
X+1487746Y+5376486D01*
X+1492826Y+5249486D02*
X+1492826Y+5259646D01*
X+1492826Y+5279966D02*
X+1492826Y+5290126D01*
X+1492826Y+5335846D02*
X+1492826Y+5346006D01*
X+1492826Y+5366326D02*
X+1492826Y+5381566D01*
X+1497906Y+5249486D02*
X+1497906Y+5259646D01*
X+1497906Y+5279966D02*
X+1497906Y+5290126D01*
X+1497906Y+5330766D02*
X+1497906Y+5340926D01*
X+1497906Y+5371406D02*
X+1497906Y+5381566D01*
X+1502986Y+5244406D02*
X+1502986Y+5254566D01*
X+1502986Y+5285046D02*
X+1502986Y+5295206D01*
X+1502986Y+5330766D02*
X+1502986Y+5340926D01*
X+1502986Y+5371406D02*
X+1502986Y+5381566D01*
X+1508066Y+5244406D02*
X+1508066Y+5254566D01*
X+1508066Y+5285046D02*
X+1508066Y+5295206D01*
X+1508066Y+5371406D02*
X+1508066Y+5381566D01*
X+1513146Y+5244406D02*
X+1513146Y+5254566D01*
X+1513146Y+5285046D02*
X+1513146Y+5295206D01*
X+1513146Y+5366326D02*
X+1513146Y+5376486D01*
X+1518226Y+5244406D02*
X+1518226Y+5254566D01*
X+1518226Y+5285046D02*
X+1518226Y+5295206D01*
X+1518226Y+5361246D02*
X+1518226Y+5371406D01*
X+1523306Y+5244406D02*
X+1523306Y+5254566D01*
X+1523306Y+5285046D02*
X+1523306Y+5295206D01*
X+1523306Y+5356166D02*
X+1523306Y+5366326D01*
X+1528386Y+5244406D02*
X+1528386Y+5254566D01*
X+1528386Y+5285046D02*
X+1528386Y+5295206D01*
X+1528386Y+5351086D02*
X+1528386Y+5361246D01*
X+1533466Y+5244406D02*
X+1533466Y+5254566D01*
X+1533466Y+5285046D02*
X+1533466Y+5295206D01*
X+1533466Y+5346006D02*
X+1533466Y+5356166D01*
X+1538546Y+5249486D02*
X+1538546Y+5259646D01*
X+1538546Y+5279966D02*
X+1538546Y+5290126D01*
X+1538546Y+5340926D02*
X+1538546Y+5351086D01*
X+1543626Y+5249486D02*
X+1543626Y+5259646D01*
X+1543626Y+5279966D02*
X+1543626Y+5290126D01*
X+1543626Y+5335846D02*
X+1543626Y+5346006D01*
X+1548706Y+5254566D02*
X+1548706Y+5285046D01*
X+1548706Y+5310446D02*
X+1548706Y+5320606D01*
X+1548706Y+5330766D02*
X+1548706Y+5381566D01*
X+1553786Y+5259646D02*
X+1553786Y+5279966D01*
X+1553786Y+5310446D02*
X+1553786Y+5320606D01*
X+1553786Y+5330766D02*
X+1553786Y+5381566D01*
X+1742666Y+5259646D02*
X+1742666Y+5279966D01*
X+1742666Y+5361246D02*
X+1742666Y+5366326D01*
X+1747746Y+5254566D02*
X+1747746Y+5285046D01*
X+1747746Y+5356166D02*
X+1747746Y+5366326D01*
X+1752826Y+5249486D02*
X+1752826Y+5259646D01*
X+1752826Y+5279966D02*
X+1752826Y+5290126D01*
X+1752826Y+5351086D02*
X+1752826Y+5366326D01*
X+1757906Y+5249486D02*
X+1757906Y+5259646D01*
X+1757906Y+5279966D02*
X+1757906Y+5290126D01*
X+1757906Y+5340926D02*
X+1757906Y+5366326D01*
X+1762986Y+5244406D02*
X+1762986Y+5254566D01*
X+1762986Y+5285046D02*
X+1762986Y+5295206D01*
X+1762986Y+5335846D02*
X+1762986Y+5351086D01*
X+1762986Y+5356166D02*
X+1762986Y+5366326D01*
X+1768066Y+5244406D02*
X+1768066Y+5254566D01*
X+1768066Y+5285046D02*
X+1768066Y+5295206D01*
X+1768066Y+5335846D02*
X+1768066Y+5340926D01*
X+1768066Y+5356166D02*
X+1768066Y+5366326D01*
X+1773146Y+5244406D02*
X+1773146Y+5254566D01*
X+1773146Y+5285046D02*
X+1773146Y+5295206D01*
X+1773146Y+5356166D02*
X+1773146Y+5366326D01*
X+1778226Y+5244406D02*
X+1778226Y+5254566D01*
X+1778226Y+5285046D02*
X+1778226Y+5295206D01*
X+1778226Y+5356166D02*
X+1778226Y+5366326D01*
X+1783306Y+5244406D02*
X+1783306Y+5254566D01*
X+1783306Y+5285046D02*
X+1783306Y+5295206D01*
X+1783306Y+5356166D02*
X+1783306Y+5366326D01*
X+1788386Y+5244406D02*
X+1788386Y+5254566D01*
X+1788386Y+5285046D02*
X+1788386Y+5295206D01*
X+1788386Y+5356166D02*
X+1788386Y+5366326D01*
X+1793466Y+5244406D02*
X+1793466Y+5254566D01*
X+1793466Y+5285046D02*
X+1793466Y+5295206D01*
X+1793466Y+5356166D02*
X+1793466Y+5366326D01*
X+1798546Y+5249486D02*
X+1798546Y+5259646D01*
X+1798546Y+5279966D02*
X+1798546Y+5290126D01*
X+1798546Y+5356166D02*
X+1798546Y+5366326D01*
X+1803626Y+5249486D02*
X+1803626Y+5259646D01*
X+1803626Y+5279966D02*
X+1803626Y+5290126D01*
X+1803626Y+5356166D02*
X+1803626Y+5366326D01*
X+1808706Y+5254566D02*
X+1808706Y+5285046D01*
X+1808706Y+5310446D02*
X+1808706Y+5320606D01*
X+1808706Y+5356166D02*
X+1808706Y+5366326D01*
X+1813786Y+5259646D02*
X+1813786Y+5279966D01*
X+1813786Y+5310446D02*
X+1813786Y+5320606D01*
X+1813786Y+5356166D02*
X+1813786Y+5366326D01*
X+1992666Y+5259646D02*
X+1992666Y+5279966D01*
X+1992666Y+5346006D02*
X+1992666Y+5366326D01*
X+1997746Y+5254566D02*
X+1997746Y+5285046D01*
X+1997746Y+5340926D02*
X+1997746Y+5371406D01*
X+2002826Y+5249486D02*
X+2002826Y+5259646D01*
X+2002826Y+5279966D02*
X+2002826Y+5290126D01*
X+2002826Y+5335846D02*
X+2002826Y+5346006D01*
X+2002826Y+5366326D02*
X+2002826Y+5376486D01*
X+2007906Y+5249486D02*
X+2007906Y+5259646D01*
X+2007906Y+5279966D02*
X+2007906Y+5290126D01*
X+2007906Y+5335846D02*
X+2007906Y+5346006D01*
X+2007906Y+5366326D02*
X+2007906Y+5376486D01*
X+2012986Y+5244406D02*
X+2012986Y+5254566D01*
X+2012986Y+5285046D02*
X+2012986Y+5295206D01*
X+2012986Y+5330766D02*
X+2012986Y+5340926D01*
X+2012986Y+5371406D02*
X+2012986Y+5381566D01*
X+2018066Y+5244406D02*
X+2018066Y+5254566D01*
X+2018066Y+5285046D02*
X+2018066Y+5295206D01*
X+2018066Y+5330766D02*
X+2018066Y+5340926D01*
X+2018066Y+5371406D02*
X+2018066Y+5381566D01*
X+2023146Y+5244406D02*
X+2023146Y+5254566D01*
X+2023146Y+5285046D02*
X+2023146Y+5295206D01*
X+2023146Y+5330766D02*
X+2023146Y+5340926D01*
X+2023146Y+5371406D02*
X+2023146Y+5381566D01*
X+2028226Y+5244406D02*
X+2028226Y+5254566D01*
X+2028226Y+5285046D02*
X+2028226Y+5295206D01*
X+2028226Y+5330766D02*
X+2028226Y+5340926D01*
X+2028226Y+5371406D02*
X+2028226Y+5381566D01*
X+2033306Y+5244406D02*
X+2033306Y+5254566D01*
X+2033306Y+5285046D02*
X+2033306Y+5295206D01*
X+2033306Y+5330766D02*
X+2033306Y+5340926D01*
X+2033306Y+5371406D02*
X+2033306Y+5381566D01*
X+2038386Y+5244406D02*
X+2038386Y+5254566D01*
X+2038386Y+5285046D02*
X+2038386Y+5295206D01*
X+2038386Y+5330766D02*
X+2038386Y+5340926D01*
X+2038386Y+5371406D02*
X+2038386Y+5381566D01*
X+2043466Y+5244406D02*
X+2043466Y+5254566D01*
X+2043466Y+5285046D02*
X+2043466Y+5295206D01*
X+2043466Y+5330766D02*
X+2043466Y+5340926D01*
X+2043466Y+5371406D02*
X+2043466Y+5381566D01*
X+2048546Y+5249486D02*
X+2048546Y+5259646D01*
X+2048546Y+5279966D02*
X+2048546Y+5290126D01*
X+2048546Y+5335846D02*
X+2048546Y+5346006D01*
X+2048546Y+5366326D02*
X+2048546Y+5376486D01*
X+2053626Y+5249486D02*
X+2053626Y+5259646D01*
X+2053626Y+5279966D02*
X+2053626Y+5290126D01*
X+2053626Y+5335846D02*
X+2053626Y+5346006D01*
X+2053626Y+5366326D02*
X+2053626Y+5376486D01*
X+2058706Y+5254566D02*
X+2058706Y+5285046D01*
X+2058706Y+5310446D02*
X+2058706Y+5320606D01*
X+2058706Y+5340926D02*
X+2058706Y+5371406D01*
X+2063786Y+5259646D02*
X+2063786Y+5279966D01*
X+2063786Y+5310446D02*
X+2063786Y+5320606D01*
X+2063786Y+5346006D02*
X+2063786Y+5366326D01*
X+1403087Y+8299357D02*
X+1423407Y+8299357D01*
X+1448807Y+8299357D02*
X+1474207Y+8299357D01*
X+1489447Y+8299357D02*
X+1519927Y+8299357D01*
X+1398007Y+8304437D02*
X+1403087Y+8304437D01*
X+1423407Y+8304437D02*
X+1428487Y+8304437D01*
X+1443727Y+8304437D02*
X+1448807Y+8304437D01*
X+1474207Y+8304437D02*
X+1479287Y+8304437D01*
X+1489447Y+8304437D02*
X+1494527Y+8304437D01*
X+1519927Y+8304437D02*
X+1525007Y+8304437D01*
X+1392927Y+8309517D02*
X+1398007Y+8309517D01*
X+1428487Y+8309517D02*
X+1433567Y+8309517D01*
X+1443727Y+8309517D02*
X+1448807Y+8309517D01*
X+1474207Y+8309517D02*
X+1479287Y+8309517D01*
X+1489447Y+8309517D02*
X+1494527Y+8309517D01*
X+1519927Y+8309517D02*
X+1525007Y+8309517D01*
X+1392927Y+8314597D02*
X+1398007Y+8314597D01*
X+1428487Y+8314597D02*
X+1433567Y+8314597D01*
X+1474207Y+8314597D02*
X+1479287Y+8314597D01*
X+1489447Y+8314597D02*
X+1494527Y+8314597D01*
X+1519927Y+8314597D02*
X+1525007Y+8314597D01*
X+1392927Y+8319677D02*
X+1398007Y+8319677D01*
X+1428487Y+8319677D02*
X+1433567Y+8319677D01*
X+1464047Y+8319677D02*
X+1474207Y+8319677D01*
X+1489447Y+8319677D02*
X+1494527Y+8319677D01*
X+1519927Y+8319677D02*
X+1525007Y+8319677D01*
X+1392927Y+8324757D02*
X+1398007Y+8324757D01*
X+1428487Y+8324757D02*
X+1433567Y+8324757D01*
X+1448807Y+8324757D02*
X+1464047Y+8324757D01*
X+1489447Y+8324757D02*
X+1519927Y+8324757D01*
X+1392927Y+8329837D02*
X+1398007Y+8329837D01*
X+1428487Y+8329837D02*
X+1433567Y+8329837D01*
X+1443727Y+8329837D02*
X+1448807Y+8329837D01*
X+1489447Y+8329837D02*
X+1494527Y+8329837D01*
X+1519927Y+8329837D02*
X+1525007Y+8329837D01*
X+1392927Y+8334917D02*
X+1398007Y+8334917D01*
X+1428487Y+8334917D02*
X+1433567Y+8334917D01*
X+1443727Y+8334917D02*
X+1448807Y+8334917D01*
X+1474207Y+8334917D02*
X+1479287Y+8334917D01*
X+1489447Y+8334917D02*
X+1494527Y+8334917D01*
X+1519927Y+8334917D02*
X+1525007Y+8334917D01*
X+1392927Y+8339997D02*
X+1398007Y+8339997D01*
X+1428487Y+8339997D02*
X+1433567Y+8339997D01*
X+1443727Y+8339997D02*
X+1448807Y+8339997D01*
X+1474207Y+8339997D02*
X+1479287Y+8339997D01*
X+1489447Y+8339997D02*
X+1494527Y+8339997D01*
X+1519927Y+8339997D02*
X+1525007Y+8339997D01*
X+1392927Y+8345077D02*
X+1398007Y+8345077D01*
X+1428487Y+8345077D02*
X+1433567Y+8345077D01*
X+1448807Y+8345077D02*
X+1474207Y+8345077D01*
X+1489447Y+8345077D02*
X+1519927Y+8345077D01*
X+1892927Y+8299357D02*
X+1923407Y+8299357D01*
X+1948807Y+8299357D02*
X+1969127Y+8299357D01*
X+1994527Y+8299357D02*
X+2019927Y+8299357D01*
X+2050407Y+8299357D02*
X+2055487Y+8299357D01*
X+1892927Y+8304437D02*
X+1898007Y+8304437D01*
X+1923407Y+8304437D02*
X+1928487Y+8304437D01*
X+1943727Y+8304437D02*
X+1948807Y+8304437D01*
X+1969127Y+8304437D02*
X+1974207Y+8304437D01*
X+1989447Y+8304437D02*
X+1994527Y+8304437D01*
X+2019927Y+8304437D02*
X+2025007Y+8304437D01*
X+2050407Y+8304437D02*
X+2055487Y+8304437D01*
X+1892927Y+8309517D02*
X+1898007Y+8309517D01*
X+1923407Y+8309517D02*
X+1928487Y+8309517D01*
X+1938647Y+8309517D02*
X+1943727Y+8309517D01*
X+1974207Y+8309517D02*
X+1979287Y+8309517D01*
X+1989447Y+8309517D02*
X+1994527Y+8309517D01*
X+2019927Y+8309517D02*
X+2025007Y+8309517D01*
X+2050407Y+8309517D02*
X+2055487Y+8309517D01*
X+1892927Y+8314597D02*
X+1898007Y+8314597D01*
X+1923407Y+8314597D02*
X+1928487Y+8314597D01*
X+1938647Y+8314597D02*
X+1943727Y+8314597D01*
X+1974207Y+8314597D02*
X+1979287Y+8314597D01*
X+2019927Y+8314597D02*
X+2025007Y+8314597D01*
X+2050407Y+8314597D02*
X+2055487Y+8314597D01*
X+1892927Y+8319677D02*
X+1898007Y+8319677D01*
X+1923407Y+8319677D02*
X+1928487Y+8319677D01*
X+1938647Y+8319677D02*
X+1943727Y+8319677D01*
X+1974207Y+8319677D02*
X+1979287Y+8319677D01*
X+2009767Y+8319677D02*
X+2019927Y+8319677D01*
X+2050407Y+8319677D02*
X+2055487Y+8319677D01*
X+1892927Y+8324757D02*
X+1923407Y+8324757D01*
X+1938647Y+8324757D02*
X+1943727Y+8324757D01*
X+1974207Y+8324757D02*
X+1979287Y+8324757D01*
X+1994527Y+8324757D02*
X+2009767Y+8324757D01*
X+2045327Y+8324757D02*
X+2050407Y+8324757D01*
X+2055487Y+8324757D02*
X+2060567Y+8324757D01*
X+1892927Y+8329837D02*
X+1898007Y+8329837D01*
X+1923407Y+8329837D02*
X+1928487Y+8329837D01*
X+1938647Y+8329837D02*
X+1943727Y+8329837D01*
X+1974207Y+8329837D02*
X+1979287Y+8329837D01*
X+1989447Y+8329837D02*
X+1994527Y+8329837D01*
X+2040247Y+8329837D02*
X+2045327Y+8329837D01*
X+2060567Y+8329837D02*
X+2065647Y+8329837D01*
X+1892927Y+8334917D02*
X+1898007Y+8334917D01*
X+1923407Y+8334917D02*
X+1928487Y+8334917D01*
X+1938647Y+8334917D02*
X+1943727Y+8334917D01*
X+1974207Y+8334917D02*
X+1979287Y+8334917D01*
X+1989447Y+8334917D02*
X+1994527Y+8334917D01*
X+2019927Y+8334917D02*
X+2025007Y+8334917D01*
X+2040247Y+8334917D02*
X+2045327Y+8334917D01*
X+2060567Y+8334917D02*
X+2065647Y+8334917D01*
X+1892927Y+8339997D02*
X+1898007Y+8339997D01*
X+1923407Y+8339997D02*
X+1928487Y+8339997D01*
X+1938647Y+8339997D02*
X+1943727Y+8339997D01*
X+1974207Y+8339997D02*
X+1979287Y+8339997D01*
X+1989447Y+8339997D02*
X+1994527Y+8339997D01*
X+2019927Y+8339997D02*
X+2025007Y+8339997D01*
X+2035167Y+8339997D02*
X+2040247Y+8339997D01*
X+2065647Y+8339997D02*
X+2070727Y+8339997D01*
X+1892927Y+8345077D02*
X+1923407Y+8345077D01*
X+1938647Y+8345077D02*
X+1943727Y+8345077D01*
X+1974207Y+8345077D02*
X+1979287Y+8345077D01*
X+1994527Y+8345077D02*
X+2019927Y+8345077D01*
X+2030087Y+8345077D02*
X+2035167Y+8345077D01*
X+2070727Y+8345077D02*
X+2075807Y+8345077D01*
M02*
