G04 PROTEUS GERBER X2 FILE*
%TF.GenerationSoftware,Labcenter,Proteus,8.17-SP5-Build39395*%
%TF.CreationDate,2026-01-10T11:00:32+00:00*%
%TF.FileFunction,Paste,Top*%
%TF.FilePolarity,Positive*%
%TF.Part,Single*%
%TF.SameCoordinates,{bf2e7aaa-9c56-4ce5-bc4f-43878dba84a3}*%
%FSLAX45Y45*%
%MOMM*%
G01*
%TA.AperFunction,Material*%
%ADD103R,0.500000X1.500000*%
%ADD104R,1.500000X0.500000*%
%TA.AperFunction,Material*%
%ADD105R,1.803400X1.143000*%
%TA.AperFunction,Material*%
%ADD106R,2.032000X1.524000*%
%ADD107R,2.032000X3.810000*%
%TA.AperFunction,Material*%
%ADD108R,1.244600X1.803400*%
%ADD109R,1.016000X1.524000*%
%ADD110R,1.780000X3.150000*%
%AMPPAD101*
4,1,36,
-0.463580,-0.599100,
-0.459500,-0.612240,
-0.453040,-0.624130,
-0.444490,-0.634490,
-0.434130,-0.643040,
-0.422240,-0.649500,
-0.409100,-0.653580,
-0.395000,-0.655000,
0.395000,-0.655000,
0.409100,-0.653580,
0.422240,-0.649500,
0.434130,-0.643040,
0.444490,-0.634490,
0.453040,-0.624130,
0.459500,-0.612240,
0.463580,-0.599100,
0.465000,-0.585000,
0.465000,0.585000,
0.463580,0.599100,
0.459500,0.612240,
0.453040,0.624130,
0.444490,0.634490,
0.434130,0.643040,
0.422240,0.649500,
0.409100,0.653580,
0.395000,0.655000,
-0.395000,0.655000,
-0.409100,0.653580,
-0.422240,0.649500,
-0.434130,0.643040,
-0.444490,0.634490,
-0.453040,0.624130,
-0.459500,0.612240,
-0.463580,0.599100,
-0.465000,0.585000,
-0.465000,-0.585000,
-0.463580,-0.599100,
0*%
%TA.AperFunction,Material*%
%ADD111PPAD101*%
%AMPPAD102*
4,1,36,
-1.617970,-0.575150,
-1.612140,-0.593920,
-1.602920,-0.610910,
-1.590710,-0.625710,
-1.575910,-0.637920,
-1.558920,-0.647140,
-1.540150,-0.652970,
-1.520000,-0.655000,
1.520000,-0.655000,
1.540150,-0.652970,
1.558920,-0.647140,
1.575910,-0.637920,
1.590710,-0.625710,
1.602920,-0.610910,
1.612140,-0.593920,
1.617970,-0.575150,
1.620000,-0.555000,
1.620000,0.555000,
1.617970,0.575150,
1.612140,0.593920,
1.602920,0.610910,
1.590710,0.625710,
1.575910,0.637920,
1.558920,0.647140,
1.540150,0.652970,
1.520000,0.655000,
-1.520000,0.655000,
-1.540150,0.652970,
-1.558920,0.647140,
-1.575910,0.637920,
-1.590710,0.625710,
-1.602920,0.610910,
-1.612140,0.593920,
-1.617970,0.575150,
-1.620000,0.555000,
-1.620000,-0.555000,
-1.617970,-0.575150,
0*%
%ADD112PPAD102*%
%TA.AperFunction,Material*%
%ADD113R,1.150000X1.300000*%
%TA.AperFunction,Profile*%
%ADD51C,0.101600*%
%TD.AperFunction*%
D103*
X+279837Y+7142000D03*
X+199837Y+7142000D03*
X+119837Y+7142000D03*
X+39837Y+7142000D03*
X-40153Y+7142000D03*
X-120163Y+7142000D03*
X-200173Y+7142000D03*
X-280163Y+7142000D03*
X-360163Y+7142000D03*
X-440163Y+7142000D03*
X-520163Y+7142000D03*
D104*
X-700163Y+6962000D03*
X-700163Y+6882000D03*
X-700163Y+6802000D03*
X-700163Y+6722000D03*
X-700163Y+6642010D03*
X-700163Y+6562000D03*
X-700163Y+6481990D03*
X-700163Y+6402000D03*
X-700163Y+6322000D03*
X-700163Y+6242000D03*
X-700163Y+6162000D03*
D103*
X-520163Y+5982000D03*
X-440163Y+5982000D03*
X-360163Y+5982000D03*
X-280163Y+5982000D03*
X-200173Y+5982000D03*
X-120163Y+5982000D03*
X-40153Y+5982000D03*
X+39837Y+5982000D03*
X+119837Y+5982000D03*
X+199837Y+5982000D03*
X+279837Y+5982000D03*
D104*
X+459837Y+6162000D03*
X+459837Y+6242000D03*
X+459837Y+6322000D03*
X+459837Y+6402000D03*
X+459837Y+6481990D03*
X+459837Y+6562000D03*
X+459837Y+6642010D03*
X+459837Y+6722000D03*
X+459837Y+6802000D03*
X+459837Y+6882000D03*
X+459837Y+6962000D03*
D105*
X-2910000Y+6900000D03*
X-2910000Y+6600000D03*
D106*
X-3190000Y+6620000D03*
D107*
X-3819920Y+6851140D03*
D106*
X-3190000Y+6851140D03*
X-3190000Y+7082280D03*
D108*
X-3640000Y+6325000D03*
X-3640000Y+6065000D03*
X-3070000Y+6325000D03*
X-3070000Y+6065000D03*
D109*
X-3714960Y+7450000D03*
X-3400000Y+7450000D03*
D110*
X-3814000Y+7450000D03*
X-3290000Y+7450000D03*
D111*
X-1970000Y+8800000D03*
X-2199000Y+8800000D03*
X-2428000Y+8800000D03*
D112*
X-2199000Y+8132000D03*
D113*
X-2099200Y+5034800D03*
X-1875200Y+5034800D03*
D105*
X-2900000Y+7160000D03*
X-2900000Y+7460000D03*
D51*
X+2700000Y+4900000D02*
X+2880000Y+5170000D01*
X+2700000Y+4570000D02*
X-4010000Y+4570000D01*
X-4020000Y+9910000D01*
X+2600000Y+9910000D01*
X+2600000Y+8620000D01*
X+2880000Y+8460000D01*
X+2880000Y+5170000D01*
X-2384640Y+9730249D02*
X-2385066Y+9740627D01*
X-2388528Y+9761385D01*
X-2395763Y+9782143D01*
X-2407557Y+9802901D01*
X-2425602Y+9823498D01*
X-2446360Y+9838972D01*
X-2467118Y+9848925D01*
X-2487876Y+9854691D01*
X-2508634Y+9856842D01*
X-2511260Y+9856869D01*
X-2637880Y+9730249D02*
X-2637454Y+9740627D01*
X-2633992Y+9761385D01*
X-2626757Y+9782143D01*
X-2614963Y+9802901D01*
X-2596918Y+9823498D01*
X-2576160Y+9838972D01*
X-2555402Y+9848925D01*
X-2534644Y+9854691D01*
X-2513886Y+9856842D01*
X-2511260Y+9856869D01*
X-2637880Y+9730249D02*
X-2637454Y+9719871D01*
X-2633992Y+9699113D01*
X-2626757Y+9678355D01*
X-2614963Y+9657597D01*
X-2596918Y+9637000D01*
X-2576160Y+9621526D01*
X-2555402Y+9611573D01*
X-2534644Y+9605807D01*
X-2513886Y+9603656D01*
X-2511260Y+9603629D01*
X-2384640Y+9730249D02*
X-2385066Y+9719871D01*
X-2388528Y+9699113D01*
X-2395763Y+9678355D01*
X-2407557Y+9657597D01*
X-2425602Y+9637000D01*
X-2446360Y+9621526D01*
X-2467118Y+9611573D01*
X-2487876Y+9605807D01*
X-2508634Y+9603656D01*
X-2511260Y+9603629D01*
X+2765360Y+5310249D02*
X+2764934Y+5320627D01*
X+2761472Y+5341385D01*
X+2754237Y+5362143D01*
X+2742443Y+5382901D01*
X+2724398Y+5403498D01*
X+2703640Y+5418972D01*
X+2682882Y+5428925D01*
X+2662124Y+5434691D01*
X+2641366Y+5436842D01*
X+2638740Y+5436869D01*
X+2512120Y+5310249D02*
X+2512546Y+5320627D01*
X+2516008Y+5341385D01*
X+2523243Y+5362143D01*
X+2535037Y+5382901D01*
X+2553082Y+5403498D01*
X+2573840Y+5418972D01*
X+2594598Y+5428925D01*
X+2615356Y+5434691D01*
X+2636114Y+5436842D01*
X+2638740Y+5436869D01*
X+2512120Y+5310249D02*
X+2512546Y+5299871D01*
X+2516008Y+5279113D01*
X+2523243Y+5258355D01*
X+2535037Y+5237597D01*
X+2553082Y+5217000D01*
X+2573840Y+5201526D01*
X+2594598Y+5191573D01*
X+2615356Y+5185807D01*
X+2636114Y+5183656D01*
X+2638740Y+5183629D01*
X+2765360Y+5310249D02*
X+2764934Y+5299871D01*
X+2761472Y+5279113D01*
X+2754237Y+5258355D01*
X+2742443Y+5237597D01*
X+2724398Y+5217000D01*
X+2703640Y+5201526D01*
X+2682882Y+5191573D01*
X+2662124Y+5185807D01*
X+2641366Y+5183656D01*
X+2638740Y+5183629D01*
X-2344640Y+4800249D02*
X-2345066Y+4810627D01*
X-2348528Y+4831385D01*
X-2355763Y+4852143D01*
X-2367557Y+4872901D01*
X-2385602Y+4893498D01*
X-2406360Y+4908972D01*
X-2427118Y+4918925D01*
X-2447876Y+4924691D01*
X-2468634Y+4926842D01*
X-2471260Y+4926869D01*
X-2597880Y+4800249D02*
X-2597454Y+4810627D01*
X-2593992Y+4831385D01*
X-2586757Y+4852143D01*
X-2574963Y+4872901D01*
X-2556918Y+4893498D01*
X-2536160Y+4908972D01*
X-2515402Y+4918925D01*
X-2494644Y+4924691D01*
X-2473886Y+4926842D01*
X-2471260Y+4926869D01*
X-2597880Y+4800249D02*
X-2597454Y+4789871D01*
X-2593992Y+4769113D01*
X-2586757Y+4748355D01*
X-2574963Y+4727597D01*
X-2556918Y+4707000D01*
X-2536160Y+4691526D01*
X-2515402Y+4681573D01*
X-2494644Y+4675807D01*
X-2473886Y+4673656D01*
X-2471260Y+4673629D01*
X-2344640Y+4800249D02*
X-2345066Y+4789871D01*
X-2348528Y+4769113D01*
X-2355763Y+4748355D01*
X-2367557Y+4727597D01*
X-2385602Y+4707000D01*
X-2406360Y+4691526D01*
X-2427118Y+4681573D01*
X-2447876Y+4675807D01*
X-2468634Y+4673656D01*
X-2471260Y+4673629D01*
X+2855396Y+8320499D02*
X+2854970Y+8330877D01*
X+2851508Y+8351635D01*
X+2844273Y+8372393D01*
X+2832479Y+8393151D01*
X+2814434Y+8413748D01*
X+2793676Y+8429222D01*
X+2772918Y+8439175D01*
X+2752160Y+8444941D01*
X+2731402Y+8447092D01*
X+2728776Y+8447119D01*
X+2602156Y+8320499D02*
X+2602582Y+8330877D01*
X+2606044Y+8351635D01*
X+2613279Y+8372393D01*
X+2625073Y+8393151D01*
X+2643118Y+8413748D01*
X+2663876Y+8429222D01*
X+2684634Y+8439175D01*
X+2705392Y+8444941D01*
X+2726150Y+8447092D01*
X+2728776Y+8447119D01*
X+2602156Y+8320499D02*
X+2602582Y+8310121D01*
X+2606044Y+8289363D01*
X+2613279Y+8268605D01*
X+2625073Y+8247847D01*
X+2643118Y+8227250D01*
X+2663876Y+8211776D01*
X+2684634Y+8201823D01*
X+2705392Y+8196057D01*
X+2726150Y+8193906D01*
X+2728776Y+8193879D01*
X+2855396Y+8320499D02*
X+2854970Y+8310121D01*
X+2851508Y+8289363D01*
X+2844273Y+8268605D01*
X+2832479Y+8247847D01*
X+2814434Y+8227250D01*
X+2793676Y+8211776D01*
X+2772918Y+8201823D01*
X+2752160Y+8196057D01*
X+2731402Y+8193906D01*
X+2728776Y+8193879D01*
X+2700000Y+4900000D02*
X+2700000Y+4570000D01*
M02*
