G04 PROTEUS GERBER X2 FILE*
%TF.GenerationSoftware,Labcenter,Proteus,8.17-SP5-Build39395*%
%TF.CreationDate,2026-01-10T11:00:32+00:00*%
%TF.FileFunction,AssemblyDrawing,Top*%
%TF.FilePolarity,Positive*%
%TF.Part,Single*%
%TF.SameCoordinates,{bf2e7aaa-9c56-4ce5-bc4f-43878dba84a3}*%
%FSLAX45Y45*%
%MOMM*%
G01*
%TA.AperFunction,Material*%
%ADD114C,0.050000*%
%ADD115C,0.196630*%
%ADD56C,0.152400*%
%ADD116C,0.609600*%
%ADD117C,0.862680*%
%ADD118C,0.025400*%
%ADD119C,0.450000*%
%ADD120C,0.179890*%
%ADD58C,0.101600*%
%ADD121C,1.016000*%
%ADD122C,0.325540*%
%ADD123C,0.721360*%
%ADD124C,0.113750*%
%ADD125C,0.812800*%
%ADD126C,0.175420*%
%ADD127C,0.110420*%
%ADD128C,0.103120*%
%ADD62C,0.100000*%
%ADD129C,1.260000*%
%ADD130C,0.178630*%
%ADD131C,0.111760*%
%ADD132C,0.508000*%
%ADD133C,0.116840*%
%ADD134C,0.914400*%
%ADD135C,0.222330*%
%ADD136C,0.452000*%
%ADD137C,0.483910*%
%ADD138C,0.600000*%
%ADD139C,0.170500*%
%ADD140C,0.564000*%
%ADD141C,0.154260*%
%ADD142C,0.091580*%
%ADD143C,0.177800*%
%TA.AperFunction,Profile*%
%ADD51C,0.101600*%
%TA.AperFunction,Material*%
%ADD144C,0.524000*%
%ADD145C,0.711200*%
%ADD146C,0.520000*%
%ADD147C,0.091110*%
%ADD148C,1.117600*%
%ADD149C,0.164730*%
%ADD150C,0.168990*%
%ADD151C,0.660400*%
%ADD152C,0.356950*%
%ADD153C,0.115140*%
%ADD154C,0.523240*%
%ADD155C,0.069580*%
%ADD156C,0.420000*%
%ADD157C,0.113450*%
%ADD158C,0.406400*%
%TD.AperFunction*%
D114*
X-2680000Y+5408000D02*
X-2680000Y+5712000D01*
X+2450000Y+5712000D01*
X+2450000Y+5408000D01*
X-2680000Y+5408000D01*
D115*
X-291968Y+5540336D02*
X-291968Y+5520673D01*
X-269847Y+5501010D01*
X-181363Y+5501010D01*
X-159242Y+5520673D01*
X-159242Y+5618989D01*
X+17726Y+5618989D02*
X-92879Y+5618989D01*
X-92879Y+5579663D01*
X-4395Y+5579663D01*
X+17726Y+5560000D01*
X+17726Y+5520673D01*
X-4395Y+5501010D01*
X-70758Y+5501010D01*
X-92879Y+5520673D01*
D56*
X-2837963Y+7501800D02*
X+2597637Y+7501800D01*
X+2597637Y+5622200D01*
X-2837963Y+5622200D01*
X-2837963Y+7501800D01*
X+2597637Y+7501800D01*
X+2597637Y+5622200D01*
X-2837963Y+5622200D01*
X-2837963Y+7501800D01*
D116*
X+2292837Y+7324000D02*
X+2292837Y+7324000D01*
D117*
X-1068029Y+6475732D02*
X-1068029Y+6389463D01*
X-970977Y+6303195D01*
X-582769Y+6303195D01*
X-485717Y+6389463D01*
X-485717Y+6820806D01*
X-194561Y+6734537D02*
X-97509Y+6820806D01*
X+193647Y+6820806D01*
X+290699Y+6734537D01*
X+290699Y+6648269D01*
X+193647Y+6562000D01*
X+290699Y+6475732D01*
X+290699Y+6389463D01*
X+193647Y+6303195D01*
X-97509Y+6303195D01*
X-194561Y+6389463D01*
X-457Y+6562000D02*
X+193647Y+6562000D01*
D114*
X+2445000Y+7732000D02*
X+2445000Y+7428000D01*
X-2685000Y+7428000D01*
X-2685000Y+7732000D01*
X+2445000Y+7732000D01*
D115*
X-296968Y+7560336D02*
X-296968Y+7540673D01*
X-274847Y+7521010D01*
X-186363Y+7521010D01*
X-164242Y+7540673D01*
X-164242Y+7638989D01*
X-75758Y+7580000D02*
X-97879Y+7599663D01*
X-97879Y+7619326D01*
X-75758Y+7638989D01*
X-9395Y+7638989D01*
X+12726Y+7619326D01*
X+12726Y+7599663D01*
X-9395Y+7580000D01*
X-75758Y+7580000D01*
X-97879Y+7560336D01*
X-97879Y+7540673D01*
X-75758Y+7521010D01*
X-9395Y+7521010D01*
X+12726Y+7540673D01*
X+12726Y+7560336D01*
X-9395Y+7580000D01*
D118*
X-600163Y+6082000D02*
X+359837Y+6082000D01*
X+359837Y+7042000D01*
X-600163Y+7042000D01*
X-600163Y+6082000D01*
D119*
X+279837Y+7142000D02*
X+279837Y+7142000D01*
D120*
X-66194Y+6238186D02*
X-174132Y+6238186D01*
X-120163Y+6298901D01*
X-174132Y+6359616D01*
X-66194Y+6359616D01*
X-84184Y+6521523D02*
X-66194Y+6501284D01*
X-66194Y+6440569D01*
X-102173Y+6400093D01*
X-138153Y+6400093D01*
X-174132Y+6440569D01*
X-174132Y+6501284D01*
X-156142Y+6521523D01*
X-174132Y+6562000D02*
X-84184Y+6562000D01*
X-66194Y+6582238D01*
X-66194Y+6663191D01*
X-84184Y+6683430D01*
X-174132Y+6683430D01*
X-138153Y+6764383D02*
X-174132Y+6804860D01*
X-66194Y+6804860D01*
D58*
X-4175080Y+4752200D02*
X-2579500Y+4752200D01*
X-2579500Y+5935080D01*
X-4175080Y+5935080D01*
X-4175080Y+4752200D01*
D121*
X-2770000Y+5430000D02*
X-2770000Y+5430000D01*
D122*
X-3937423Y+5311085D02*
X-3937423Y+5278531D01*
X-3900800Y+5245976D01*
X-3754305Y+5245976D01*
X-3717682Y+5278531D01*
X-3717682Y+5441303D01*
X-3571187Y+5376194D02*
X-3497940Y+5441303D01*
X-3497940Y+5245976D01*
X-3314822Y+5408748D02*
X-3278198Y+5441303D01*
X-3168327Y+5441303D01*
X-3131704Y+5408748D01*
X-3131704Y+5376194D01*
X-3168327Y+5343640D01*
X-3131704Y+5311085D01*
X-3131704Y+5278531D01*
X-3168327Y+5245976D01*
X-3278198Y+5245976D01*
X-3314822Y+5278531D01*
X-3241575Y+5343640D02*
X-3168327Y+5343640D01*
D114*
X-3025000Y+6985000D02*
X-3025000Y+6515000D01*
X-2795000Y+6515000D01*
X-2795000Y+6985000D01*
X-3025000Y+6985000D01*
X-2860000Y+6750000D02*
X-2960000Y+6750000D01*
X-2910000Y+6700000D02*
X-2910000Y+6800000D01*
D123*
X-2910000Y+6900000D02*
X-2910000Y+6900000D01*
D124*
X-2887249Y+6611430D02*
X-2875873Y+6598633D01*
X-2875873Y+6560240D01*
X-2898624Y+6534645D01*
X-2921376Y+6534645D01*
X-2944127Y+6560240D01*
X-2944127Y+6598633D01*
X-2932751Y+6611430D01*
X-2921376Y+6662621D02*
X-2944127Y+6688216D01*
X-2875873Y+6688216D01*
X-2921376Y+6765002D02*
X-2944127Y+6790597D01*
X-2875873Y+6790597D01*
D58*
X-3921520Y+6520940D02*
X-3088400Y+6520940D01*
X-3088400Y+7171180D01*
X-3921520Y+7171180D01*
X-3921520Y+6520940D01*
D125*
X-3190000Y+6620000D02*
X-3190000Y+6620000D01*
D126*
X-3733966Y+6898689D02*
X-3733966Y+6810974D01*
X-3714231Y+6793431D01*
X-3635288Y+6793431D01*
X-3615552Y+6810974D01*
X-3615552Y+6898689D01*
X-3457666Y+6863603D02*
X-3477402Y+6846060D01*
X-3536609Y+6846060D01*
X-3556345Y+6863603D01*
X-3556345Y+6881146D01*
X-3536609Y+6898689D01*
X-3477402Y+6898689D01*
X-3457666Y+6881146D01*
X-3457666Y+6810974D01*
X-3477402Y+6793431D01*
X-3536609Y+6793431D01*
D114*
X-3755000Y+6440000D02*
X-3755000Y+5950000D01*
X-3525000Y+5950000D01*
X-3525000Y+6440000D01*
X-3755000Y+6440000D01*
X-3590000Y+6195000D02*
X-3690000Y+6195000D01*
X-3640000Y+6145000D02*
X-3640000Y+6245000D01*
D123*
X-3640000Y+6325000D02*
X-3640000Y+6325000D01*
D127*
X-3617915Y+6043680D02*
X-3606872Y+6031258D01*
X-3606872Y+5993990D01*
X-3628957Y+5969145D01*
X-3651042Y+5969145D01*
X-3673127Y+5993990D01*
X-3673127Y+6031258D01*
X-3662084Y+6043680D01*
X-3651042Y+6093371D02*
X-3673127Y+6118216D01*
X-3606872Y+6118216D01*
X-3673127Y+6180329D02*
X-3673127Y+6242442D01*
X-3662084Y+6242442D01*
X-3606872Y+6180329D01*
D114*
X-3185000Y+6440000D02*
X-3185000Y+5950000D01*
X-2955000Y+5950000D01*
X-2955000Y+6440000D01*
X-3185000Y+6440000D01*
X-3020000Y+6195000D02*
X-3120000Y+6195000D01*
X-3070000Y+6145000D02*
X-3070000Y+6245000D01*
D123*
X-3070000Y+6325000D02*
X-3070000Y+6325000D01*
D127*
X-3047915Y+6043680D02*
X-3036872Y+6031258D01*
X-3036872Y+5993990D01*
X-3058957Y+5969145D01*
X-3081042Y+5969145D01*
X-3103127Y+5993990D01*
X-3103127Y+6031258D01*
X-3092084Y+6043680D01*
X-3081042Y+6093371D02*
X-3103127Y+6118216D01*
X-3036872Y+6118216D01*
X-3070000Y+6192752D02*
X-3081042Y+6180329D01*
X-3092084Y+6180329D01*
X-3103127Y+6192752D01*
X-3103127Y+6230020D01*
X-3092084Y+6242442D01*
X-3081042Y+6242442D01*
X-3070000Y+6230020D01*
X-3070000Y+6192752D01*
X-3058957Y+6180329D01*
X-3047915Y+6180329D01*
X-3036872Y+6192752D01*
X-3036872Y+6230020D01*
X-3047915Y+6242442D01*
X-3058957Y+6242442D01*
X-3070000Y+6230020D01*
D58*
X-3765760Y+7371260D02*
X-3349200Y+7371260D01*
X-3349200Y+7528740D01*
X-3765760Y+7528740D01*
X-3765760Y+7371260D01*
D116*
X-3714960Y+7450000D02*
X-3714960Y+7450000D01*
D128*
X-3656056Y+7419062D02*
X-3656056Y+7480937D01*
X-3598050Y+7480937D01*
X-3586448Y+7470624D01*
X-3586448Y+7460312D01*
X-3598050Y+7450000D01*
X-3656056Y+7450000D01*
X-3598050Y+7450000D02*
X-3586448Y+7439687D01*
X-3586448Y+7419062D01*
X-3563245Y+7480937D02*
X-3493637Y+7480937D01*
X-3528441Y+7480937D02*
X-3528441Y+7419062D01*
X-3447232Y+7460312D02*
X-3424029Y+7480937D01*
X-3424029Y+7419062D01*
D62*
X-4002000Y+7188000D02*
X-3102000Y+7188000D01*
X-3102000Y+7712000D01*
X-4002000Y+7712000D01*
X-4002000Y+7188000D01*
D129*
X-3814000Y+7450000D02*
X-3814000Y+7450000D01*
D130*
X-3584770Y+7503590D02*
X-3584770Y+7414273D01*
X-3564674Y+7396409D01*
X-3484289Y+7396409D01*
X-3464193Y+7414273D01*
X-3464193Y+7503590D01*
X-3303423Y+7432136D02*
X-3424000Y+7432136D01*
X-3343615Y+7503590D01*
X-3343615Y+7396409D01*
D58*
X-1652080Y+4577920D02*
X-1387920Y+4577920D01*
X-1387920Y+5096080D01*
X-1652080Y+5096080D01*
X-1652080Y+4577920D01*
D125*
X-1520000Y+4710000D02*
X-1520000Y+4710000D01*
D131*
X-1497648Y+4898214D02*
X-1486472Y+4885641D01*
X-1486472Y+4847922D01*
X-1508824Y+4822776D01*
X-1531176Y+4822776D01*
X-1553528Y+4847922D01*
X-1553528Y+4885641D01*
X-1542352Y+4898214D01*
X-1542352Y+4998798D02*
X-1553528Y+4986225D01*
X-1553528Y+4948506D01*
X-1542352Y+4935933D01*
X-1497648Y+4935933D01*
X-1486472Y+4948506D01*
X-1486472Y+4986225D01*
X-1497648Y+4998798D01*
X-1508824Y+4998798D01*
X-1520000Y+4986225D01*
X-1520000Y+4935933D01*
D58*
X-794080Y+8636920D02*
X-529920Y+8636920D01*
X-529920Y+9155080D01*
X-794080Y+9155080D01*
X-794080Y+8636920D01*
D132*
X-662000Y+8769000D02*
X-662000Y+8769000D01*
D133*
X-638632Y+8948451D02*
X-626948Y+8935306D01*
X-626948Y+8895873D01*
X-650316Y+8869584D01*
X-673684Y+8869584D01*
X-697052Y+8895873D01*
X-697052Y+8935306D01*
X-685368Y+8948451D01*
X-685368Y+8987884D02*
X-697052Y+9001029D01*
X-697052Y+9040462D01*
X-685368Y+9053607D01*
X-673684Y+9053607D01*
X-662000Y+9040462D01*
X-650316Y+9053607D01*
X-638632Y+9053607D01*
X-626948Y+9040462D01*
X-626948Y+9001029D01*
X-638632Y+8987884D01*
X-662000Y+9014173D02*
X-662000Y+9040462D01*
D58*
X-545695Y+8634387D02*
X+596905Y+8634387D01*
X+596905Y+9129613D01*
X-545695Y+9129613D01*
X-545695Y+8634387D01*
D134*
X+269605Y+8882000D02*
X+269605Y+8882000D01*
D135*
X-361002Y+8948699D02*
X-361002Y+8837534D01*
X-335990Y+8815301D01*
X-235942Y+8815301D01*
X-210930Y+8837534D01*
X-210930Y+8948699D01*
X-135893Y+8926466D02*
X-110881Y+8948699D01*
X-35845Y+8948699D01*
X-10833Y+8926466D01*
X-10833Y+8904233D01*
X-35845Y+8882000D01*
X-110881Y+8882000D01*
X-135893Y+8859767D01*
X-135893Y+8815301D01*
X-10833Y+8815301D01*
D114*
X-970000Y+8363000D02*
X+2560000Y+8363000D01*
X+2560000Y+9351000D01*
X-970000Y+9351000D01*
X-970000Y+8363000D01*
D136*
X+2446000Y+9254000D02*
X+2446000Y+9254000D01*
D137*
X+72170Y+9002173D02*
X+72170Y+8760217D01*
X+126610Y+8711826D01*
X+344370Y+8711826D01*
X+398810Y+8760217D01*
X+398810Y+9002173D01*
X+616570Y+8905391D02*
X+725450Y+9002173D01*
X+725450Y+8711826D01*
X+1052090Y+8905391D02*
X+1160970Y+9002173D01*
X+1160970Y+8711826D01*
D114*
X-2215000Y+9160000D02*
X-2215086Y+9162076D01*
X-2215788Y+9166229D01*
X-2217258Y+9170382D01*
X-2219660Y+9174535D01*
X-2223333Y+9178634D01*
X-2227486Y+9181643D01*
X-2231639Y+9183560D01*
X-2235792Y+9184643D01*
X-2239945Y+9185000D01*
X-2240000Y+9185000D01*
X-2265000Y+9160000D02*
X-2264914Y+9162076D01*
X-2264212Y+9166229D01*
X-2262742Y+9170382D01*
X-2260340Y+9174535D01*
X-2256667Y+9178634D01*
X-2252514Y+9181643D01*
X-2248361Y+9183560D01*
X-2244208Y+9184643D01*
X-2240055Y+9185000D01*
X-2240000Y+9185000D01*
X-2265000Y+9160000D02*
X-2264914Y+9157924D01*
X-2264212Y+9153771D01*
X-2262742Y+9149618D01*
X-2260340Y+9145465D01*
X-2256667Y+9141366D01*
X-2252514Y+9138357D01*
X-2248361Y+9136440D01*
X-2244208Y+9135357D01*
X-2240055Y+9135000D01*
X-2240000Y+9135000D01*
X-2215000Y+9160000D02*
X-2215086Y+9157924D01*
X-2215788Y+9153771D01*
X-2217258Y+9149618D01*
X-2219660Y+9145465D01*
X-2223333Y+9141366D01*
X-2227486Y+9138357D01*
X-2231639Y+9136440D01*
X-2235792Y+9135357D01*
X-2239945Y+9135000D01*
X-2240000Y+9135000D01*
X-2205000Y+9160000D02*
X-2275000Y+9160000D01*
X-2240000Y+9195000D02*
X-2240000Y+9125000D01*
X-2515000Y+9435000D02*
X-2515000Y+9160000D01*
X-2509528Y+9103772D01*
X-2493784Y+9051773D01*
X-2468775Y+9005011D01*
X-2435508Y+8964492D01*
X-2394990Y+8931225D01*
X-2348227Y+8906216D01*
X-2296228Y+8890472D01*
X-2240000Y+8885000D01*
X-2183772Y+8890472D01*
X-2131773Y+8906216D01*
X-2085010Y+8931225D01*
X-2044492Y+8964492D01*
X-2011225Y+9005011D01*
X-1986216Y+9051773D01*
X-1970472Y+9103772D01*
X-1965000Y+9160000D01*
X-1970472Y+9216228D01*
X-1986216Y+9268227D01*
X-2011225Y+9314989D01*
X-2044492Y+9355508D01*
X-2085010Y+9388775D01*
X-2131773Y+9413784D01*
X-2183772Y+9429528D01*
X-2240000Y+9435000D01*
X-2515000Y+9435000D01*
D138*
X-2140000Y+9160000D02*
X-2140000Y+9160000D01*
D139*
X-2309650Y+9121637D02*
X-2292600Y+9102456D01*
X-2292600Y+9044912D01*
X-2326700Y+9006550D01*
X-2360800Y+9006550D01*
X-2394900Y+9044912D01*
X-2394900Y+9102456D01*
X-2377850Y+9121637D01*
X-2326700Y+9275087D02*
X-2326700Y+9160000D01*
X-2394900Y+9236725D01*
X-2292600Y+9236725D01*
D58*
X-1800900Y+8711100D02*
X-1051100Y+8711100D01*
X-1051100Y+8888900D01*
X-1800900Y+8888900D01*
X-1800900Y+8711100D01*
D125*
X-1712000Y+8800000D02*
X-1712000Y+8800000D01*
D133*
X-1466842Y+8764796D02*
X-1466842Y+8835204D01*
X-1414036Y+8835204D01*
X-1387633Y+8811735D01*
X-1387633Y+8788265D01*
X-1414036Y+8764796D01*
X-1466842Y+8764796D01*
X-1282021Y+8788265D02*
X-1361230Y+8788265D01*
X-1308424Y+8835204D01*
X-1308424Y+8764796D01*
D58*
X-1841000Y+8520698D02*
X-1079000Y+8520698D01*
X-1079000Y+8698498D01*
X-1841000Y+8698498D01*
X-1841000Y+8520698D01*
D125*
X-1714000Y+8609598D02*
X-1714000Y+8609598D01*
D133*
X-1481792Y+8574394D02*
X-1481792Y+8644802D01*
X-1415785Y+8644802D01*
X-1402583Y+8633067D01*
X-1402583Y+8621333D01*
X-1415785Y+8609598D01*
X-1481792Y+8609598D01*
X-1415785Y+8609598D02*
X-1402583Y+8597863D01*
X-1402583Y+8574394D01*
X-1296971Y+8644802D02*
X-1362979Y+8644802D01*
X-1362979Y+8621333D01*
X-1310173Y+8621333D01*
X-1296971Y+8609598D01*
X-1296971Y+8586129D01*
X-1310173Y+8574394D01*
X-1349777Y+8574394D01*
X-1362979Y+8586129D01*
D58*
X+577920Y+8637920D02*
X+842080Y+8637920D01*
X+842080Y+9156080D01*
X+577920Y+9156080D01*
X+577920Y+8637920D01*
D132*
X+710000Y+8770000D02*
X+710000Y+8770000D01*
D133*
X+733368Y+8949451D02*
X+745052Y+8936306D01*
X+745052Y+8896873D01*
X+721684Y+8870584D01*
X+698316Y+8870584D01*
X+674948Y+8896873D01*
X+674948Y+8936306D01*
X+686632Y+8949451D01*
X+698316Y+9002029D02*
X+674948Y+9028318D01*
X+745052Y+9028318D01*
D58*
X-1845000Y+9061100D02*
X-1083000Y+9061100D01*
X-1083000Y+9238900D01*
X-1845000Y+9238900D01*
X-1845000Y+9061100D01*
D125*
X-1718000Y+9150000D02*
X-1718000Y+9150000D01*
D133*
X-1485792Y+9114796D02*
X-1485792Y+9185204D01*
X-1419785Y+9185204D01*
X-1406583Y+9173469D01*
X-1406583Y+9161735D01*
X-1419785Y+9150000D01*
X-1485792Y+9150000D01*
X-1419785Y+9150000D02*
X-1406583Y+9138265D01*
X-1406583Y+9114796D01*
X-1353777Y+9161735D02*
X-1327374Y+9185204D01*
X-1327374Y+9114796D01*
D58*
X-1800900Y+8881100D02*
X-1051100Y+8881100D01*
X-1051100Y+9058900D01*
X-1800900Y+9058900D01*
X-1800900Y+8881100D01*
D125*
X-1712000Y+8970000D02*
X-1712000Y+8970000D01*
D133*
X-1466842Y+8934796D02*
X-1466842Y+9005204D01*
X-1414036Y+9005204D01*
X-1387633Y+8981735D01*
X-1387633Y+8958265D01*
X-1414036Y+8934796D01*
X-1466842Y+8934796D01*
X-1282021Y+9005204D02*
X-1348029Y+9005204D01*
X-1348029Y+8981735D01*
X-1295223Y+8981735D01*
X-1282021Y+8970000D01*
X-1282021Y+8946531D01*
X-1295223Y+8934796D01*
X-1334827Y+8934796D01*
X-1348029Y+8946531D01*
D62*
X+1169000Y+7841000D02*
X+1765000Y+7841000D01*
X+1765000Y+8359000D01*
X+1169000Y+8359000D01*
X+1169000Y+7841000D01*
D140*
X+1340000Y+8100000D02*
X+1340000Y+8100000D01*
D141*
X+1615378Y+7961166D02*
X+1522822Y+7961166D01*
X+1522822Y+8030583D01*
X+1553674Y+8065291D01*
X+1584526Y+8065291D01*
X+1615378Y+8030583D01*
X+1615378Y+7961166D01*
X+1553674Y+8134708D02*
X+1522822Y+8169417D01*
X+1615378Y+8169417D01*
D58*
X+1705000Y+8029500D02*
X+2164500Y+8029500D01*
X+2164500Y+8170500D01*
X+1705000Y+8170500D01*
X+1705000Y+8029500D01*
D140*
X+1840000Y+8100000D02*
X+1840000Y+8100000D01*
D142*
X+1933921Y+8072523D02*
X+1933921Y+8127476D01*
X+1975135Y+8127476D01*
X+1995742Y+8109158D01*
X+1995742Y+8090841D01*
X+1975135Y+8072523D01*
X+1933921Y+8072523D01*
X+2026653Y+8118317D02*
X+2036957Y+8127476D01*
X+2067868Y+8127476D01*
X+2078171Y+8118317D01*
X+2078171Y+8109158D01*
X+2067868Y+8100000D01*
X+2036957Y+8100000D01*
X+2026653Y+8090841D01*
X+2026653Y+8072523D01*
X+2078171Y+8072523D01*
D58*
X-2250806Y+9555920D02*
X+299354Y+9555920D01*
X+299354Y+9820080D01*
X-2250806Y+9820080D01*
X-2250806Y+9555920D01*
D121*
X-2118726Y+9688000D02*
X-2118726Y+9688000D01*
D143*
X-1124316Y+9670220D02*
X-1124316Y+9652440D01*
X-1104314Y+9634660D01*
X-1024304Y+9634660D01*
X-1004301Y+9652440D01*
X-1004301Y+9741340D01*
X-944294Y+9723560D02*
X-924291Y+9741340D01*
X-864284Y+9741340D01*
X-844281Y+9723560D01*
X-844281Y+9705780D01*
X-864284Y+9688000D01*
X-924291Y+9688000D01*
X-944294Y+9670220D01*
X-944294Y+9634660D01*
X-844281Y+9634660D01*
X-684261Y+9670220D02*
X-804276Y+9670220D01*
X-724266Y+9741340D01*
X-724266Y+9634660D01*
D58*
X+441594Y+9555920D02*
X+2483754Y+9555920D01*
X+2483754Y+9820080D01*
X+441594Y+9820080D01*
X+441594Y+9555920D01*
D121*
X+573674Y+9688000D02*
X+573674Y+9688000D01*
D143*
X+1314084Y+9670220D02*
X+1314084Y+9652440D01*
X+1334086Y+9634660D01*
X+1414096Y+9634660D01*
X+1434099Y+9652440D01*
X+1434099Y+9741340D01*
X+1514109Y+9705780D02*
X+1554114Y+9741340D01*
X+1554114Y+9634660D01*
X+1654126Y+9741340D02*
X+1754139Y+9741340D01*
X+1754139Y+9723560D01*
X+1654126Y+9634660D01*
D58*
X-1336406Y+4729920D02*
X+705754Y+4729920D01*
X+705754Y+4994080D01*
X-1336406Y+4994080D01*
X-1336406Y+4729920D01*
D121*
X-1204326Y+4862000D02*
X-1204326Y+4862000D01*
D143*
X-463916Y+4844220D02*
X-463916Y+4826440D01*
X-443914Y+4808660D01*
X-363904Y+4808660D01*
X-343901Y+4826440D01*
X-343901Y+4915340D01*
X-263891Y+4879780D02*
X-223886Y+4915340D01*
X-223886Y+4808660D01*
X-23861Y+4879780D02*
X-43864Y+4862000D01*
X-103871Y+4862000D01*
X-123874Y+4879780D01*
X-123874Y+4897560D01*
X-103871Y+4915340D01*
X-43864Y+4915340D01*
X-23861Y+4897560D01*
X-23861Y+4826440D01*
X-43864Y+4808660D01*
X-103871Y+4808660D01*
D58*
X+939594Y+4729920D02*
X+2473754Y+4729920D01*
X+2473754Y+4994080D01*
X+939594Y+4994080D01*
X+939594Y+4729920D01*
D121*
X+1071674Y+4862000D02*
X+1071674Y+4862000D01*
D143*
X+1558084Y+4844220D02*
X+1558084Y+4826440D01*
X+1578086Y+4808660D01*
X+1658096Y+4808660D01*
X+1678099Y+4826440D01*
X+1678099Y+4915340D01*
X+1738106Y+4897560D02*
X+1758109Y+4915340D01*
X+1818116Y+4915340D01*
X+1838119Y+4897560D01*
X+1838119Y+4879780D01*
X+1818116Y+4862000D01*
X+1758109Y+4862000D01*
X+1738106Y+4844220D01*
X+1738106Y+4808660D01*
X+1838119Y+4808660D01*
X+1898126Y+4897560D02*
X+1918129Y+4915340D01*
X+1978136Y+4915340D01*
X+1998139Y+4897560D01*
X+1998139Y+4879780D01*
X+1978136Y+4862000D01*
X+1998139Y+4844220D01*
X+1998139Y+4826440D01*
X+1978136Y+4808660D01*
X+1918129Y+4808660D01*
X+1898126Y+4826440D01*
X+1938131Y+4862000D02*
X+1978136Y+4862000D01*
D51*
X+2700000Y+4900000D02*
X+2880000Y+5170000D01*
X+2700000Y+4570000D02*
X-4010000Y+4570000D01*
X-4020000Y+9910000D01*
X+2600000Y+9910000D01*
X+2600000Y+8620000D01*
X+2880000Y+8460000D01*
X+2880000Y+5170000D01*
X-2384640Y+9730249D02*
X-2385066Y+9740627D01*
X-2388528Y+9761385D01*
X-2395763Y+9782143D01*
X-2407557Y+9802901D01*
X-2425602Y+9823498D01*
X-2446360Y+9838972D01*
X-2467118Y+9848925D01*
X-2487876Y+9854691D01*
X-2508634Y+9856842D01*
X-2511260Y+9856869D01*
X-2637880Y+9730249D02*
X-2637454Y+9740627D01*
X-2633992Y+9761385D01*
X-2626757Y+9782143D01*
X-2614963Y+9802901D01*
X-2596918Y+9823498D01*
X-2576160Y+9838972D01*
X-2555402Y+9848925D01*
X-2534644Y+9854691D01*
X-2513886Y+9856842D01*
X-2511260Y+9856869D01*
X-2637880Y+9730249D02*
X-2637454Y+9719871D01*
X-2633992Y+9699113D01*
X-2626757Y+9678355D01*
X-2614963Y+9657597D01*
X-2596918Y+9637000D01*
X-2576160Y+9621526D01*
X-2555402Y+9611573D01*
X-2534644Y+9605807D01*
X-2513886Y+9603656D01*
X-2511260Y+9603629D01*
X-2384640Y+9730249D02*
X-2385066Y+9719871D01*
X-2388528Y+9699113D01*
X-2395763Y+9678355D01*
X-2407557Y+9657597D01*
X-2425602Y+9637000D01*
X-2446360Y+9621526D01*
X-2467118Y+9611573D01*
X-2487876Y+9605807D01*
X-2508634Y+9603656D01*
X-2511260Y+9603629D01*
X+2765360Y+5310249D02*
X+2764934Y+5320627D01*
X+2761472Y+5341385D01*
X+2754237Y+5362143D01*
X+2742443Y+5382901D01*
X+2724398Y+5403498D01*
X+2703640Y+5418972D01*
X+2682882Y+5428925D01*
X+2662124Y+5434691D01*
X+2641366Y+5436842D01*
X+2638740Y+5436869D01*
X+2512120Y+5310249D02*
X+2512546Y+5320627D01*
X+2516008Y+5341385D01*
X+2523243Y+5362143D01*
X+2535037Y+5382901D01*
X+2553082Y+5403498D01*
X+2573840Y+5418972D01*
X+2594598Y+5428925D01*
X+2615356Y+5434691D01*
X+2636114Y+5436842D01*
X+2638740Y+5436869D01*
X+2512120Y+5310249D02*
X+2512546Y+5299871D01*
X+2516008Y+5279113D01*
X+2523243Y+5258355D01*
X+2535037Y+5237597D01*
X+2553082Y+5217000D01*
X+2573840Y+5201526D01*
X+2594598Y+5191573D01*
X+2615356Y+5185807D01*
X+2636114Y+5183656D01*
X+2638740Y+5183629D01*
X+2765360Y+5310249D02*
X+2764934Y+5299871D01*
X+2761472Y+5279113D01*
X+2754237Y+5258355D01*
X+2742443Y+5237597D01*
X+2724398Y+5217000D01*
X+2703640Y+5201526D01*
X+2682882Y+5191573D01*
X+2662124Y+5185807D01*
X+2641366Y+5183656D01*
X+2638740Y+5183629D01*
X-2344640Y+4800249D02*
X-2345066Y+4810627D01*
X-2348528Y+4831385D01*
X-2355763Y+4852143D01*
X-2367557Y+4872901D01*
X-2385602Y+4893498D01*
X-2406360Y+4908972D01*
X-2427118Y+4918925D01*
X-2447876Y+4924691D01*
X-2468634Y+4926842D01*
X-2471260Y+4926869D01*
X-2597880Y+4800249D02*
X-2597454Y+4810627D01*
X-2593992Y+4831385D01*
X-2586757Y+4852143D01*
X-2574963Y+4872901D01*
X-2556918Y+4893498D01*
X-2536160Y+4908972D01*
X-2515402Y+4918925D01*
X-2494644Y+4924691D01*
X-2473886Y+4926842D01*
X-2471260Y+4926869D01*
X-2597880Y+4800249D02*
X-2597454Y+4789871D01*
X-2593992Y+4769113D01*
X-2586757Y+4748355D01*
X-2574963Y+4727597D01*
X-2556918Y+4707000D01*
X-2536160Y+4691526D01*
X-2515402Y+4681573D01*
X-2494644Y+4675807D01*
X-2473886Y+4673656D01*
X-2471260Y+4673629D01*
X-2344640Y+4800249D02*
X-2345066Y+4789871D01*
X-2348528Y+4769113D01*
X-2355763Y+4748355D01*
X-2367557Y+4727597D01*
X-2385602Y+4707000D01*
X-2406360Y+4691526D01*
X-2427118Y+4681573D01*
X-2447876Y+4675807D01*
X-2468634Y+4673656D01*
X-2471260Y+4673629D01*
X+2855396Y+8320499D02*
X+2854970Y+8330877D01*
X+2851508Y+8351635D01*
X+2844273Y+8372393D01*
X+2832479Y+8393151D01*
X+2814434Y+8413748D01*
X+2793676Y+8429222D01*
X+2772918Y+8439175D01*
X+2752160Y+8444941D01*
X+2731402Y+8447092D01*
X+2728776Y+8447119D01*
X+2602156Y+8320499D02*
X+2602582Y+8330877D01*
X+2606044Y+8351635D01*
X+2613279Y+8372393D01*
X+2625073Y+8393151D01*
X+2643118Y+8413748D01*
X+2663876Y+8429222D01*
X+2684634Y+8439175D01*
X+2705392Y+8444941D01*
X+2726150Y+8447092D01*
X+2728776Y+8447119D01*
X+2602156Y+8320499D02*
X+2602582Y+8310121D01*
X+2606044Y+8289363D01*
X+2613279Y+8268605D01*
X+2625073Y+8247847D01*
X+2643118Y+8227250D01*
X+2663876Y+8211776D01*
X+2684634Y+8201823D01*
X+2705392Y+8196057D01*
X+2726150Y+8193906D01*
X+2728776Y+8193879D01*
X+2855396Y+8320499D02*
X+2854970Y+8310121D01*
X+2851508Y+8289363D01*
X+2844273Y+8268605D01*
X+2832479Y+8247847D01*
X+2814434Y+8227250D01*
X+2793676Y+8211776D01*
X+2772918Y+8201823D01*
X+2752160Y+8196057D01*
X+2731402Y+8193906D01*
X+2728776Y+8193879D01*
X+2700000Y+4900000D02*
X+2700000Y+4570000D01*
D58*
X+2487920Y+5535920D02*
X+2752080Y+5535920D01*
X+2752080Y+6562080D01*
X+2487920Y+6562080D01*
X+2487920Y+5535920D01*
D116*
X+2620000Y+6430000D02*
X+2620000Y+6430000D01*
D143*
X+2566660Y+5747692D02*
X+2566660Y+5827702D01*
X+2566660Y+5787697D02*
X+2673340Y+5787697D01*
X+2673340Y+5747692D02*
X+2673340Y+5827702D01*
X+2584440Y+5907712D02*
X+2566660Y+5927715D01*
X+2566660Y+5987722D01*
X+2584440Y+6007725D01*
X+2602220Y+6007725D01*
X+2620000Y+5987722D01*
X+2620000Y+5927715D01*
X+2637780Y+5907712D01*
X+2673340Y+5907712D01*
X+2673340Y+6007725D01*
X+2655560Y+6167745D02*
X+2673340Y+6147742D01*
X+2673340Y+6087735D01*
X+2637780Y+6047730D01*
X+2602220Y+6047730D01*
X+2566660Y+6087735D01*
X+2566660Y+6147742D01*
X+2584440Y+6167745D01*
D58*
X+2497920Y+6647920D02*
X+2762080Y+6647920D01*
X+2762080Y+7674080D01*
X+2497920Y+7674080D01*
X+2497920Y+6647920D01*
D116*
X+2630000Y+7542000D02*
X+2630000Y+7542000D01*
D143*
X+2576660Y+6759680D02*
X+2665560Y+6759680D01*
X+2683340Y+6779682D01*
X+2683340Y+6859692D01*
X+2665560Y+6879695D01*
X+2576660Y+6879695D01*
X+2683340Y+6919700D02*
X+2612220Y+6919700D01*
X+2576660Y+6959705D01*
X+2576660Y+6999710D01*
X+2612220Y+7039715D01*
X+2683340Y+7039715D01*
X+2647780Y+6919700D02*
X+2647780Y+7039715D01*
X+2683340Y+7079720D02*
X+2576660Y+7079720D01*
X+2576660Y+7179732D01*
X+2594440Y+7199735D01*
X+2612220Y+7199735D01*
X+2630000Y+7179732D01*
X+2630000Y+7079720D01*
X+2630000Y+7179732D02*
X+2647780Y+7199735D01*
X+2683340Y+7199735D01*
X+2576660Y+7239740D02*
X+2576660Y+7359755D01*
X+2576660Y+7299747D02*
X+2683340Y+7299747D01*
D58*
X+439920Y+4987920D02*
X+1212080Y+4987920D01*
X+1212080Y+5252080D01*
X+439920Y+5252080D01*
X+439920Y+4987920D01*
D116*
X+1080000Y+5120000D02*
X+1080000Y+5120000D01*
D143*
X+584700Y+5102220D02*
X+624705Y+5102220D01*
X+624705Y+5066660D01*
X+544695Y+5066660D01*
X+504690Y+5102220D01*
X+504690Y+5137780D01*
X+544695Y+5173340D01*
X+604702Y+5173340D01*
X+624705Y+5155560D01*
X+664710Y+5066660D02*
X+664710Y+5173340D01*
X+784725Y+5066660D01*
X+784725Y+5173340D01*
X+824730Y+5066660D02*
X+824730Y+5173340D01*
X+904740Y+5173340D01*
X+944745Y+5137780D01*
X+944745Y+5102220D01*
X+904740Y+5066660D01*
X+824730Y+5066660D01*
D58*
X-1088080Y+4987920D02*
X-315920Y+4987920D01*
X-315920Y+5252080D01*
X-1088080Y+5252080D01*
X-1088080Y+4987920D01*
D125*
X-956000Y+5120000D02*
X-956000Y+5120000D01*
D143*
X-835668Y+5155560D02*
X-815665Y+5173340D01*
X-755658Y+5173340D01*
X-735655Y+5155560D01*
X-735655Y+5137780D01*
X-755658Y+5120000D01*
X-735655Y+5102220D01*
X-735655Y+5084440D01*
X-755658Y+5066660D01*
X-815665Y+5066660D01*
X-835668Y+5084440D01*
X-795663Y+5120000D02*
X-755658Y+5120000D01*
X-695650Y+5173340D02*
X-695650Y+5120000D01*
X-635643Y+5066660D01*
X-575635Y+5120000D01*
X-575635Y+5173340D01*
X-515628Y+5155560D02*
X-495625Y+5173340D01*
X-435618Y+5173340D01*
X-415615Y+5155560D01*
X-415615Y+5137780D01*
X-435618Y+5120000D01*
X-415615Y+5102220D01*
X-415615Y+5084440D01*
X-435618Y+5066660D01*
X-495625Y+5066660D01*
X-515628Y+5084440D01*
X-475623Y+5120000D02*
X-435618Y+5120000D01*
D58*
X-320080Y+4987920D02*
X+452080Y+4987920D01*
X+452080Y+5252080D01*
X-320080Y+5252080D01*
X-320080Y+4987920D01*
D116*
X-188000Y+5120000D02*
X-188000Y+5120000D01*
D143*
X+107275Y+5173340D02*
X+7262Y+5173340D01*
X+7262Y+5137780D01*
X+87272Y+5137780D01*
X+107275Y+5120000D01*
X+107275Y+5084440D01*
X+87272Y+5066660D01*
X+27265Y+5066660D01*
X+7262Y+5084440D01*
X+147280Y+5173340D02*
X+147280Y+5120000D01*
X+207287Y+5066660D01*
X+267295Y+5120000D01*
X+267295Y+5173340D01*
D58*
X-1946080Y+7977920D02*
X-1173920Y+7977920D01*
X-1173920Y+8242080D01*
X-1946080Y+8242080D01*
X-1946080Y+7977920D01*
D116*
X-1306000Y+8110000D02*
X-1306000Y+8110000D01*
D143*
X-1881310Y+8092220D02*
X-1881310Y+8074440D01*
X-1861308Y+8056660D01*
X-1781298Y+8056660D01*
X-1761295Y+8074440D01*
X-1761295Y+8163340D01*
X-1721290Y+8056660D02*
X-1721290Y+8163340D01*
X-1621278Y+8163340D01*
X-1601275Y+8145560D01*
X-1601275Y+8127780D01*
X-1621278Y+8110000D01*
X-1721290Y+8110000D01*
X-1521265Y+8127780D02*
X-1481260Y+8163340D01*
X-1481260Y+8056660D01*
D114*
X-1838000Y+8255000D02*
X-1838000Y+8677000D01*
X-1898010Y+8677000D01*
X-1898010Y+8891000D01*
X-2499990Y+8891000D01*
X-2499990Y+8677000D01*
X-2560000Y+8677000D01*
X-2560000Y+8255000D01*
X-2386000Y+8255000D01*
X-2386000Y+8041000D01*
X-2012000Y+8041000D01*
X-2012000Y+8255000D01*
X-1838000Y+8255000D01*
D144*
X-1970000Y+8800000D02*
X-1970000Y+8800000D01*
D120*
X-2253000Y+8244150D02*
X-2163000Y+8244150D01*
X-2145000Y+8264400D01*
X-2145000Y+8345400D01*
X-2163000Y+8365650D01*
X-2253000Y+8365650D01*
X-2235000Y+8426400D02*
X-2253000Y+8446650D01*
X-2253000Y+8507400D01*
X-2235000Y+8527650D01*
X-2217000Y+8527650D01*
X-2199000Y+8507400D01*
X-2181000Y+8527650D01*
X-2163000Y+8527650D01*
X-2145000Y+8507400D01*
X-2145000Y+8446650D01*
X-2163000Y+8426400D01*
X-2199000Y+8466900D02*
X-2199000Y+8507400D01*
D114*
X-396000Y+8252000D02*
X+1178000Y+8252000D01*
X+1178000Y+7948000D01*
X-396000Y+7948000D01*
X-396000Y+8252000D01*
D145*
X-244000Y+8100000D02*
X-244000Y+8100000D01*
D115*
X+242699Y+8158989D02*
X+331183Y+8158989D01*
X+286941Y+8158989D02*
X+286941Y+8041010D01*
X+242699Y+8041010D02*
X+331183Y+8041010D01*
X+397546Y+8060673D02*
X+419667Y+8041010D01*
X+508151Y+8041010D01*
X+530272Y+8060673D01*
X+530272Y+8080336D01*
X+508151Y+8100000D01*
X+419667Y+8100000D01*
X+397546Y+8119663D01*
X+397546Y+8139326D01*
X+419667Y+8158989D01*
X+508151Y+8158989D01*
X+530272Y+8139326D01*
X+574514Y+8041010D02*
X+574514Y+8158989D01*
X+685119Y+8158989D01*
X+707240Y+8139326D01*
X+707240Y+8119663D01*
X+685119Y+8100000D01*
X+574514Y+8100000D01*
D58*
X-1835000Y+8341100D02*
X-1073000Y+8341100D01*
X-1073000Y+8518900D01*
X-1835000Y+8518900D01*
X-1835000Y+8341100D01*
D125*
X-1708000Y+8430000D02*
X-1708000Y+8430000D01*
D133*
X-1475792Y+8394796D02*
X-1475792Y+8465204D01*
X-1409785Y+8465204D01*
X-1396583Y+8453469D01*
X-1396583Y+8441735D01*
X-1409785Y+8430000D01*
X-1475792Y+8430000D01*
X-1409785Y+8430000D02*
X-1396583Y+8418265D01*
X-1396583Y+8394796D01*
X-1290971Y+8441735D02*
X-1304173Y+8430000D01*
X-1343777Y+8430000D01*
X-1356979Y+8441735D01*
X-1356979Y+8453469D01*
X-1343777Y+8465204D01*
X-1304173Y+8465204D01*
X-1290971Y+8453469D01*
X-1290971Y+8406531D01*
X-1304173Y+8394796D01*
X-1343777Y+8394796D01*
D58*
X-1847000Y+9241100D02*
X-1085000Y+9241100D01*
X-1085000Y+9418900D01*
X-1847000Y+9418900D01*
X-1847000Y+9241100D01*
D125*
X-1720000Y+9330000D02*
X-1720000Y+9330000D01*
D133*
X-1487792Y+9294796D02*
X-1487792Y+9365204D01*
X-1421785Y+9365204D01*
X-1408583Y+9353469D01*
X-1408583Y+9341735D01*
X-1421785Y+9330000D01*
X-1487792Y+9330000D01*
X-1421785Y+9330000D02*
X-1408583Y+9318265D01*
X-1408583Y+9294796D01*
X-1355777Y+9330000D02*
X-1368979Y+9341735D01*
X-1368979Y+9353469D01*
X-1355777Y+9365204D01*
X-1316173Y+9365204D01*
X-1302971Y+9353469D01*
X-1302971Y+9341735D01*
X-1316173Y+9330000D01*
X-1355777Y+9330000D01*
X-1368979Y+9318265D01*
X-1368979Y+9306531D01*
X-1355777Y+9294796D01*
X-1316173Y+9294796D01*
X-1302971Y+9306531D01*
X-1302971Y+9318265D01*
X-1316173Y+9330000D01*
D114*
X-1792200Y+5124800D02*
X-2182200Y+5124800D01*
X-1792200Y+4944800D02*
X-2182200Y+4944800D01*
X-1792200Y+5124800D02*
X-1792200Y+4944800D01*
X-2182200Y+5124800D02*
X-2182200Y+4944800D01*
D146*
X-1875200Y+5034800D02*
X-1875200Y+5034800D01*
D147*
X-2124951Y+5007466D02*
X-2124951Y+5062134D01*
X-2083951Y+5062134D01*
X-2063451Y+5043911D01*
X-2063451Y+5025689D01*
X-2083951Y+5007466D01*
X-2124951Y+5007466D01*
X-2032700Y+5053023D02*
X-2022450Y+5062134D01*
X-1991700Y+5062134D01*
X-1981450Y+5053023D01*
X-1981450Y+5043911D01*
X-1991700Y+5034800D01*
X-1981450Y+5025689D01*
X-1981450Y+5016577D01*
X-1991700Y+5007466D01*
X-2022450Y+5007466D01*
X-2032700Y+5016577D01*
X-2012200Y+5034800D02*
X-1991700Y+5034800D01*
D58*
X+2001100Y+6295000D02*
X+2178900Y+6295000D01*
X+2178900Y+7057000D01*
X+2001100Y+7057000D01*
X+2001100Y+6295000D01*
D138*
X+2090000Y+6930000D02*
X+2090000Y+6930000D01*
D133*
X+2125204Y+6491888D02*
X+2054796Y+6491888D01*
X+2054796Y+6557895D01*
X+2066531Y+6571097D01*
X+2078265Y+6571097D01*
X+2090000Y+6557895D01*
X+2090000Y+6491888D01*
X+2090000Y+6557895D02*
X+2101735Y+6571097D01*
X+2125204Y+6571097D01*
X+2101735Y+6676709D02*
X+2101735Y+6597500D01*
X+2054796Y+6650306D01*
X+2125204Y+6650306D01*
D58*
X+2231100Y+6295000D02*
X+2408900Y+6295000D01*
X+2408900Y+7057000D01*
X+2231100Y+7057000D01*
X+2231100Y+6295000D01*
D138*
X+2320000Y+6930000D02*
X+2320000Y+6930000D01*
D133*
X+2355204Y+6439082D02*
X+2284796Y+6439082D01*
X+2284796Y+6505089D01*
X+2296531Y+6518291D01*
X+2308265Y+6518291D01*
X+2320000Y+6505089D01*
X+2320000Y+6439082D01*
X+2320000Y+6505089D02*
X+2331735Y+6518291D01*
X+2355204Y+6518291D01*
X+2308265Y+6571097D02*
X+2284796Y+6597500D01*
X+2355204Y+6597500D01*
X+2343469Y+6650306D02*
X+2296531Y+6650306D01*
X+2284796Y+6663507D01*
X+2284796Y+6716313D01*
X+2296531Y+6729515D01*
X+2343469Y+6729515D01*
X+2355204Y+6716313D01*
X+2355204Y+6663507D01*
X+2343469Y+6650306D01*
X+2355204Y+6650306D02*
X+2284796Y+6729515D01*
D58*
X+1771100Y+6295000D02*
X+1948900Y+6295000D01*
X+1948900Y+7057000D01*
X+1771100Y+7057000D01*
X+1771100Y+6295000D01*
D138*
X+1860000Y+6930000D02*
X+1860000Y+6930000D01*
D133*
X+1895204Y+6439082D02*
X+1824796Y+6439082D01*
X+1824796Y+6505089D01*
X+1836531Y+6518291D01*
X+1848265Y+6518291D01*
X+1860000Y+6505089D01*
X+1860000Y+6439082D01*
X+1860000Y+6505089D02*
X+1871735Y+6518291D01*
X+1895204Y+6518291D01*
X+1848265Y+6571097D02*
X+1824796Y+6597500D01*
X+1895204Y+6597500D01*
X+1848265Y+6676709D02*
X+1824796Y+6703112D01*
X+1895204Y+6703112D01*
D58*
X-2989700Y+8125920D02*
X-2710300Y+8125920D01*
X-2710300Y+9152080D01*
X-2989700Y+9152080D01*
X-2989700Y+8125920D01*
D148*
X-2850000Y+9020000D02*
X-2850000Y+9020000D01*
D149*
X-2899421Y+8174363D02*
X-2817053Y+8174363D01*
X-2800579Y+8192895D01*
X-2800579Y+8267027D01*
X-2817053Y+8285560D01*
X-2899421Y+8285560D01*
X-2817053Y+8322626D02*
X-2800579Y+8341158D01*
X-2800579Y+8415290D01*
X-2817053Y+8433823D01*
X-2833526Y+8433823D01*
X-2850000Y+8415290D01*
X-2850000Y+8341158D01*
X-2866474Y+8322626D01*
X-2882947Y+8322626D01*
X-2899421Y+8341158D01*
X-2899421Y+8415290D01*
X-2882947Y+8433823D01*
X-2800579Y+8470889D02*
X-2899421Y+8470889D01*
X-2899421Y+8563553D01*
X-2882947Y+8582086D01*
X-2866474Y+8582086D01*
X-2850000Y+8563553D01*
X-2833526Y+8582086D01*
X-2817053Y+8582086D01*
X-2800579Y+8563553D01*
X-2800579Y+8470889D01*
X-2850000Y+8470889D02*
X-2850000Y+8563553D01*
X-2784105Y+8619152D02*
X-2784105Y+8730349D01*
X-2817053Y+8878612D02*
X-2800579Y+8860079D01*
X-2800579Y+8804480D01*
X-2833526Y+8767415D01*
X-2866474Y+8767415D01*
X-2899421Y+8804480D01*
X-2899421Y+8860079D01*
X-2882947Y+8878612D01*
D58*
X-3561200Y+9217399D02*
X-2773800Y+9217399D01*
X-2773800Y+9877799D01*
X-3561200Y+9877799D01*
X-3561200Y+9217399D01*
D145*
X-3485000Y+9293599D02*
X-3485000Y+9293599D01*
D150*
X-3339761Y+9513800D02*
X-3320750Y+9496900D01*
X-3244703Y+9496900D01*
X-3225691Y+9513800D01*
X-3225691Y+9530699D01*
X-3244703Y+9547599D01*
X-3320750Y+9547599D01*
X-3339761Y+9564498D01*
X-3339761Y+9581397D01*
X-3320750Y+9598297D01*
X-3244703Y+9598297D01*
X-3225691Y+9581397D01*
X-3187667Y+9598297D02*
X-3187667Y+9496900D01*
X-3130632Y+9547599D01*
X-3073597Y+9496900D01*
X-3073597Y+9598297D01*
X-2997550Y+9564498D02*
X-2959526Y+9598297D01*
X-2959526Y+9496900D01*
D56*
X-3082200Y+7790200D02*
X-3082200Y+9349760D01*
X-4784000Y+9349760D01*
X-4784000Y+7790200D01*
X-3082200Y+7790200D02*
X-4784000Y+7790200D01*
X-4784000Y+9349760D01*
X-3082200Y+9349760D01*
X-3082200Y+7790200D01*
X-4784000Y+7790200D01*
D151*
X-3260000Y+8409960D02*
X-3260000Y+8409960D01*
D152*
X-4006624Y+8248722D02*
X-3970929Y+8248722D01*
X-3935233Y+8288879D01*
X-3935233Y+8449508D01*
X-3970929Y+8489665D01*
X-4149406Y+8489665D01*
X-4113710Y+8610137D02*
X-4149406Y+8650294D01*
X-4149406Y+8770766D01*
X-4113710Y+8810923D01*
X-4078015Y+8810923D01*
X-4042320Y+8770766D01*
X-4042320Y+8650294D01*
X-4006624Y+8610137D01*
X-3935233Y+8610137D01*
X-3935233Y+8810923D01*
D58*
X-2740900Y+7891100D02*
X-1991100Y+7891100D01*
X-1991100Y+8068900D01*
X-2740900Y+8068900D01*
X-2740900Y+7891100D01*
D125*
X-2080000Y+7980000D02*
X-2080000Y+7980000D01*
D133*
X-2536382Y+7944796D02*
X-2536382Y+8015204D01*
X-2483576Y+8015204D01*
X-2457173Y+7991735D01*
X-2457173Y+7968265D01*
X-2483576Y+7944796D01*
X-2536382Y+7944796D01*
X-2351561Y+8003469D02*
X-2364763Y+8015204D01*
X-2404367Y+8015204D01*
X-2417569Y+8003469D01*
X-2417569Y+7956531D01*
X-2404367Y+7944796D01*
X-2364763Y+7944796D01*
X-2351561Y+7956531D01*
X-2351561Y+7968265D01*
X-2364763Y+7980000D01*
X-2417569Y+7980000D01*
D58*
X-2785000Y+7731100D02*
X-2023000Y+7731100D01*
X-2023000Y+7908900D01*
X-2785000Y+7908900D01*
X-2785000Y+7731100D01*
D125*
X-2658000Y+7820000D02*
X-2658000Y+7820000D01*
D133*
X-2425792Y+7784796D02*
X-2425792Y+7855204D01*
X-2359785Y+7855204D01*
X-2346583Y+7843469D01*
X-2346583Y+7831735D01*
X-2359785Y+7820000D01*
X-2425792Y+7820000D01*
X-2359785Y+7820000D02*
X-2346583Y+7808265D01*
X-2346583Y+7784796D01*
X-2306979Y+7843469D02*
X-2293777Y+7855204D01*
X-2254173Y+7855204D01*
X-2240971Y+7843469D01*
X-2240971Y+7831735D01*
X-2254173Y+7820000D01*
X-2240971Y+7808265D01*
X-2240971Y+7796531D01*
X-2254173Y+7784796D01*
X-2293777Y+7784796D01*
X-2306979Y+7796531D01*
X-2280576Y+7820000D02*
X-2254173Y+7820000D01*
D58*
X-2496080Y+6247920D02*
X-1977920Y+6247920D01*
X-1977920Y+6512080D01*
X-2496080Y+6512080D01*
X-2496080Y+6247920D01*
D116*
X-2110000Y+6380000D02*
X-2110000Y+6380000D01*
D153*
X-2344188Y+6356970D02*
X-2357142Y+6345456D01*
X-2396004Y+6345456D01*
X-2421911Y+6368485D01*
X-2421911Y+6391514D01*
X-2396004Y+6414543D01*
X-2357142Y+6414543D01*
X-2344188Y+6403029D01*
X-2240557Y+6414543D02*
X-2305327Y+6414543D01*
X-2305327Y+6391514D01*
X-2253511Y+6391514D01*
X-2240557Y+6380000D01*
X-2240557Y+6356970D01*
X-2253511Y+6345456D01*
X-2292373Y+6345456D01*
X-2305327Y+6356970D01*
D58*
X-2496080Y+6737920D02*
X-1977920Y+6737920D01*
X-1977920Y+7002080D01*
X-2496080Y+7002080D01*
X-2496080Y+6737920D01*
D116*
X-2364000Y+6870000D02*
X-2364000Y+6870000D01*
D153*
X-2181628Y+6846970D02*
X-2194582Y+6835456D01*
X-2233444Y+6835456D01*
X-2259351Y+6858485D01*
X-2259351Y+6881514D01*
X-2233444Y+6904543D01*
X-2194582Y+6904543D01*
X-2181628Y+6893029D01*
X-2142767Y+6904543D02*
X-2077997Y+6904543D01*
X-2077997Y+6893029D01*
X-2142767Y+6835456D01*
D114*
X-1843241Y+6900759D02*
X-1193241Y+6900759D01*
X-1137826Y+6895171D01*
X-1086208Y+6879145D01*
X-1039496Y+6853787D01*
X-998795Y+6820205D01*
X-965213Y+6779504D01*
X-939855Y+6732792D01*
X-923829Y+6681174D01*
X-918241Y+6625759D01*
X-1843241Y+6900759D02*
X-1898656Y+6895171D01*
X-1950274Y+6879145D01*
X-1996986Y+6853787D01*
X-2037687Y+6820205D01*
X-2071269Y+6779504D01*
X-2096627Y+6732792D01*
X-2112653Y+6681174D01*
X-2118241Y+6625759D01*
X-2112653Y+6570344D01*
X-2096627Y+6518726D01*
X-2071269Y+6472014D01*
X-2037687Y+6431313D01*
X-1996986Y+6397731D01*
X-1950274Y+6372373D01*
X-1898656Y+6356347D01*
X-1843241Y+6350759D01*
X-918241Y+6625759D02*
X-923829Y+6570344D01*
X-939855Y+6518726D01*
X-965213Y+6472014D01*
X-998795Y+6431313D01*
X-1039496Y+6397731D01*
X-1086208Y+6372373D01*
X-1137826Y+6356347D01*
X-1193241Y+6350759D01*
X-1843241Y+6350759D01*
D154*
X-1762241Y+6625759D02*
X-1762241Y+6625759D01*
D155*
X-1654691Y+6632717D02*
X-1639035Y+6646634D01*
X-1639035Y+6604883D01*
X-1592066Y+6632717D02*
X-1576410Y+6646634D01*
X-1576410Y+6604883D01*
X-1521613Y+6611842D02*
X-1513785Y+6611842D01*
X-1513785Y+6604883D01*
X-1521613Y+6604883D01*
X-1521613Y+6611842D01*
X-1482472Y+6611842D02*
X-1482472Y+6639675D01*
X-1474644Y+6646634D01*
X-1443332Y+6646634D01*
X-1435504Y+6639675D01*
X-1435504Y+6611842D01*
X-1443332Y+6604883D01*
X-1474644Y+6604883D01*
X-1482472Y+6611842D01*
X-1482472Y+6604883D02*
X-1435504Y+6646634D01*
X-1372879Y+6646634D02*
X-1412019Y+6646634D01*
X-1412019Y+6632717D01*
X-1380707Y+6632717D01*
X-1372879Y+6625759D01*
X-1372879Y+6611842D01*
X-1380707Y+6604883D01*
X-1404191Y+6604883D01*
X-1412019Y+6611842D01*
X-1310254Y+6632717D02*
X-1318082Y+6625759D01*
X-1341566Y+6625759D01*
X-1349394Y+6632717D01*
X-1349394Y+6639675D01*
X-1341566Y+6646634D01*
X-1318082Y+6646634D01*
X-1310254Y+6639675D01*
X-1310254Y+6611842D01*
X-1318082Y+6604883D01*
X-1341566Y+6604883D01*
X-1286769Y+6639675D02*
X-1278941Y+6646634D01*
X-1255457Y+6646634D01*
X-1247629Y+6639675D01*
X-1247629Y+6632717D01*
X-1255457Y+6625759D01*
X-1278941Y+6625759D01*
X-1286769Y+6618800D01*
X-1286769Y+6604883D01*
X-1247629Y+6604883D01*
X-1169347Y+6604883D02*
X-1169347Y+6646634D01*
X-1145863Y+6625759D01*
X-1122379Y+6646634D01*
X-1122379Y+6604883D01*
X-1106722Y+6604883D02*
X-1106722Y+6646634D01*
X-1059754Y+6646634D02*
X-1059754Y+6604883D01*
X-1106722Y+6625759D02*
X-1059754Y+6625759D01*
X-1044097Y+6646634D02*
X-997129Y+6646634D01*
X-1044097Y+6604883D01*
X-997129Y+6604883D01*
D114*
X-3615000Y+6200000D02*
X-3615086Y+6202076D01*
X-3615788Y+6206229D01*
X-3617258Y+6210382D01*
X-3619660Y+6214535D01*
X-3623333Y+6218634D01*
X-3627486Y+6221643D01*
X-3631639Y+6223560D01*
X-3635792Y+6224643D01*
X-3639945Y+6225000D01*
X-3640000Y+6225000D01*
X-3665000Y+6200000D02*
X-3664914Y+6202076D01*
X-3664212Y+6206229D01*
X-3662742Y+6210382D01*
X-3660340Y+6214535D01*
X-3656667Y+6218634D01*
X-3652514Y+6221643D01*
X-3648361Y+6223560D01*
X-3644208Y+6224643D01*
X-3640055Y+6225000D01*
X-3640000Y+6225000D01*
X-3665000Y+6200000D02*
X-3664914Y+6197924D01*
X-3664212Y+6193771D01*
X-3662742Y+6189618D01*
X-3660340Y+6185465D01*
X-3656667Y+6181366D01*
X-3652514Y+6178357D01*
X-3648361Y+6176440D01*
X-3644208Y+6175357D01*
X-3640055Y+6175000D01*
X-3640000Y+6175000D01*
X-3615000Y+6200000D02*
X-3615086Y+6197924D01*
X-3615788Y+6193771D01*
X-3617258Y+6189618D01*
X-3619660Y+6185465D01*
X-3623333Y+6181366D01*
X-3627486Y+6178357D01*
X-3631639Y+6176440D01*
X-3635792Y+6175357D01*
X-3639945Y+6175000D01*
X-3640000Y+6175000D01*
X-3640000Y+6165000D02*
X-3640000Y+6235000D01*
X-3605000Y+6200000D02*
X-3675000Y+6200000D01*
X-3365000Y+6475000D02*
X-3640000Y+6475000D01*
X-3696228Y+6469528D01*
X-3748227Y+6453784D01*
X-3794990Y+6428775D01*
X-3835508Y+6395508D01*
X-3868775Y+6354989D01*
X-3893784Y+6308227D01*
X-3909528Y+6256228D01*
X-3915000Y+6200000D01*
X-3909528Y+6143772D01*
X-3893784Y+6091773D01*
X-3868775Y+6045011D01*
X-3835508Y+6004492D01*
X-3794990Y+5971225D01*
X-3748227Y+5946216D01*
X-3696228Y+5930472D01*
X-3640000Y+5925000D01*
X-3583772Y+5930472D01*
X-3531773Y+5946216D01*
X-3485010Y+5971225D01*
X-3444492Y+6004492D01*
X-3411225Y+6045011D01*
X-3386216Y+6091773D01*
X-3370472Y+6143772D01*
X-3365000Y+6200000D01*
X-3365000Y+6475000D01*
D156*
X-3640000Y+6100000D02*
X-3640000Y+6100000D01*
D150*
X-3678093Y+6265390D02*
X-3697139Y+6248460D01*
X-3754278Y+6248460D01*
X-3792370Y+6282320D01*
X-3792370Y+6316180D01*
X-3754278Y+6350040D01*
X-3697139Y+6350040D01*
X-3678093Y+6333110D01*
X-3601908Y+6299250D02*
X-3620954Y+6316180D01*
X-3620954Y+6333110D01*
X-3601908Y+6350040D01*
X-3544769Y+6350040D01*
X-3525723Y+6333110D01*
X-3525723Y+6316180D01*
X-3544769Y+6299250D01*
X-3601908Y+6299250D01*
X-3620954Y+6282320D01*
X-3620954Y+6265390D01*
X-3601908Y+6248460D01*
X-3544769Y+6248460D01*
X-3525723Y+6265390D01*
X-3525723Y+6282320D01*
X-3544769Y+6299250D01*
D114*
X-3045000Y+6200000D02*
X-3045086Y+6202076D01*
X-3045788Y+6206229D01*
X-3047258Y+6210382D01*
X-3049660Y+6214535D01*
X-3053333Y+6218634D01*
X-3057486Y+6221643D01*
X-3061639Y+6223560D01*
X-3065792Y+6224643D01*
X-3069945Y+6225000D01*
X-3070000Y+6225000D01*
X-3095000Y+6200000D02*
X-3094914Y+6202076D01*
X-3094212Y+6206229D01*
X-3092742Y+6210382D01*
X-3090340Y+6214535D01*
X-3086667Y+6218634D01*
X-3082514Y+6221643D01*
X-3078361Y+6223560D01*
X-3074208Y+6224643D01*
X-3070055Y+6225000D01*
X-3070000Y+6225000D01*
X-3095000Y+6200000D02*
X-3094914Y+6197924D01*
X-3094212Y+6193771D01*
X-3092742Y+6189618D01*
X-3090340Y+6185465D01*
X-3086667Y+6181366D01*
X-3082514Y+6178357D01*
X-3078361Y+6176440D01*
X-3074208Y+6175357D01*
X-3070055Y+6175000D01*
X-3070000Y+6175000D01*
X-3045000Y+6200000D02*
X-3045086Y+6197924D01*
X-3045788Y+6193771D01*
X-3047258Y+6189618D01*
X-3049660Y+6185465D01*
X-3053333Y+6181366D01*
X-3057486Y+6178357D01*
X-3061639Y+6176440D01*
X-3065792Y+6175357D01*
X-3069945Y+6175000D01*
X-3070000Y+6175000D01*
X-3070000Y+6165000D02*
X-3070000Y+6235000D01*
X-3035000Y+6200000D02*
X-3105000Y+6200000D01*
X-2795000Y+6475000D02*
X-3070000Y+6475000D01*
X-3126228Y+6469528D01*
X-3178227Y+6453784D01*
X-3224990Y+6428775D01*
X-3265508Y+6395508D01*
X-3298775Y+6354989D01*
X-3323784Y+6308227D01*
X-3339528Y+6256228D01*
X-3345000Y+6200000D01*
X-3339528Y+6143772D01*
X-3323784Y+6091773D01*
X-3298775Y+6045011D01*
X-3265508Y+6004492D01*
X-3224990Y+5971225D01*
X-3178227Y+5946216D01*
X-3126228Y+5930472D01*
X-3070000Y+5925000D01*
X-3013772Y+5930472D01*
X-2961773Y+5946216D01*
X-2915010Y+5971225D01*
X-2874492Y+6004492D01*
X-2841225Y+6045011D01*
X-2816216Y+6091773D01*
X-2800472Y+6143772D01*
X-2795000Y+6200000D01*
X-2795000Y+6475000D01*
D156*
X-3070000Y+6100000D02*
X-3070000Y+6100000D01*
D150*
X-3108093Y+6265390D02*
X-3127139Y+6248460D01*
X-3184278Y+6248460D01*
X-3222370Y+6282320D01*
X-3222370Y+6316180D01*
X-3184278Y+6350040D01*
X-3127139Y+6350040D01*
X-3108093Y+6333110D01*
X-2955723Y+6316180D02*
X-2974769Y+6299250D01*
X-3031908Y+6299250D01*
X-3050954Y+6316180D01*
X-3050954Y+6333110D01*
X-3031908Y+6350040D01*
X-2974769Y+6350040D01*
X-2955723Y+6333110D01*
X-2955723Y+6265390D01*
X-2974769Y+6248460D01*
X-3031908Y+6248460D01*
D114*
X-2785000Y+7075000D02*
X-2785000Y+7545000D01*
X-3015000Y+7545000D01*
X-3015000Y+7075000D01*
X-2785000Y+7075000D01*
X-2950000Y+7310000D02*
X-2850000Y+7310000D01*
X-2900000Y+7360000D02*
X-2900000Y+7260000D01*
D123*
X-2900000Y+7160000D02*
X-2900000Y+7160000D01*
D124*
X-2877249Y+7294998D02*
X-2865873Y+7282201D01*
X-2865873Y+7243808D01*
X-2888624Y+7218213D01*
X-2911376Y+7218213D01*
X-2934127Y+7243808D01*
X-2934127Y+7282201D01*
X-2922751Y+7294998D01*
X-2911376Y+7346189D02*
X-2934127Y+7371784D01*
X-2865873Y+7371784D01*
X-2922751Y+7499760D02*
X-2934127Y+7486963D01*
X-2934127Y+7448570D01*
X-2922751Y+7435772D01*
X-2877249Y+7435772D01*
X-2865873Y+7448570D01*
X-2865873Y+7486963D01*
X-2877249Y+7499760D01*
X-2888624Y+7499760D01*
X-2900000Y+7486963D01*
X-2900000Y+7435772D01*
D58*
X-3032080Y+7063920D02*
X-2767920Y+7063920D01*
X-2767920Y+7582080D01*
X-3032080Y+7582080D01*
X-3032080Y+7063920D01*
D145*
X-2900000Y+7450000D02*
X-2900000Y+7450000D01*
D157*
X-2877309Y+7162600D02*
X-2865964Y+7149836D01*
X-2865964Y+7111546D01*
X-2888655Y+7086020D01*
X-2911345Y+7086020D01*
X-2934036Y+7111546D01*
X-2934036Y+7149836D01*
X-2922691Y+7162600D01*
X-2911345Y+7213653D02*
X-2934036Y+7239180D01*
X-2865964Y+7239180D01*
X-2877309Y+7290234D02*
X-2922691Y+7290234D01*
X-2934036Y+7302997D01*
X-2934036Y+7354050D01*
X-2922691Y+7366814D01*
X-2877309Y+7366814D01*
X-2865964Y+7354050D01*
X-2865964Y+7302997D01*
X-2877309Y+7290234D01*
X-2865964Y+7290234D02*
X-2934036Y+7366814D01*
D58*
X-3042080Y+6493920D02*
X-2777920Y+6493920D01*
X-2777920Y+7012080D01*
X-3042080Y+7012080D01*
X-3042080Y+6493920D01*
D145*
X-2910000Y+6626000D02*
X-2910000Y+6626000D01*
D157*
X-2887309Y+6760240D02*
X-2875964Y+6747476D01*
X-2875964Y+6709186D01*
X-2898655Y+6683660D01*
X-2921345Y+6683660D01*
X-2944036Y+6709186D01*
X-2944036Y+6747476D01*
X-2932691Y+6760240D01*
X-2921345Y+6811293D02*
X-2944036Y+6836820D01*
X-2875964Y+6836820D01*
X-2932691Y+6900637D02*
X-2944036Y+6913400D01*
X-2944036Y+6951690D01*
X-2932691Y+6964454D01*
X-2921345Y+6964454D01*
X-2910000Y+6951690D01*
X-2910000Y+6913400D01*
X-2898655Y+6900637D01*
X-2875964Y+6900637D01*
X-2875964Y+6964454D01*
D62*
X-2292200Y+4775800D02*
X-1696200Y+4775800D01*
X-1696200Y+5293800D01*
X-2292200Y+5293800D01*
X-2292200Y+4775800D01*
D140*
X-1867200Y+5034800D02*
X-1867200Y+5034800D01*
D141*
X-2050022Y+4895966D02*
X-2142578Y+4895966D01*
X-2142578Y+4965383D01*
X-2111726Y+5000091D01*
X-2080874Y+5000091D01*
X-2050022Y+4965383D01*
X-2050022Y+4895966D01*
X-2142578Y+5052154D02*
X-2142578Y+5138925D01*
X-2127152Y+5138925D01*
X-2050022Y+5052154D01*
D58*
X-2315000Y+4721100D02*
X-1553000Y+4721100D01*
X-1553000Y+4898900D01*
X-2315000Y+4898900D01*
X-2315000Y+4721100D01*
D158*
X-1680000Y+4810000D02*
X-1680000Y+4810000D01*
D133*
X-2113272Y+4774796D02*
X-2113272Y+4845204D01*
X-2047265Y+4845204D01*
X-2034063Y+4833469D01*
X-2034063Y+4821735D01*
X-2047265Y+4810000D01*
X-2113272Y+4810000D01*
X-2047265Y+4810000D02*
X-2034063Y+4798265D01*
X-2034063Y+4774796D01*
X-1994459Y+4833469D02*
X-1981257Y+4845204D01*
X-1941653Y+4845204D01*
X-1928451Y+4833469D01*
X-1928451Y+4821735D01*
X-1941653Y+4810000D01*
X-1981257Y+4810000D01*
X-1994459Y+4798265D01*
X-1994459Y+4774796D01*
X-1928451Y+4774796D01*
D58*
X+1141000Y+8885298D02*
X+1903000Y+8885298D01*
X+1903000Y+9063098D01*
X+1141000Y+9063098D01*
X+1141000Y+8885298D01*
D125*
X+1776000Y+8974198D02*
X+1776000Y+8974198D01*
D133*
X+1332568Y+8938994D02*
X+1332568Y+9009402D01*
X+1398575Y+9009402D01*
X+1411777Y+8997667D01*
X+1411777Y+8985933D01*
X+1398575Y+8974198D01*
X+1332568Y+8974198D01*
X+1398575Y+8974198D02*
X+1411777Y+8962463D01*
X+1411777Y+8938994D01*
X+1451381Y+9009402D02*
X+1517389Y+9009402D01*
X+1517389Y+8997667D01*
X+1451381Y+8938994D01*
D58*
X+1139917Y+8685100D02*
X+1901917Y+8685100D01*
X+1901917Y+8862900D01*
X+1139917Y+8862900D01*
X+1139917Y+8685100D01*
D125*
X+1774917Y+8774000D02*
X+1774917Y+8774000D01*
D133*
X+1331485Y+8738796D02*
X+1331485Y+8809204D01*
X+1397492Y+8809204D01*
X+1410694Y+8797469D01*
X+1410694Y+8785735D01*
X+1397492Y+8774000D01*
X+1331485Y+8774000D01*
X+1397492Y+8774000D02*
X+1410694Y+8762265D01*
X+1410694Y+8738796D01*
X+1516306Y+8797469D02*
X+1503104Y+8809204D01*
X+1463500Y+8809204D01*
X+1450298Y+8797469D01*
X+1450298Y+8750531D01*
X+1463500Y+8738796D01*
X+1503104Y+8738796D01*
X+1516306Y+8750531D01*
X+1516306Y+8762265D01*
X+1503104Y+8774000D01*
X+1450298Y+8774000D01*
M02*
