G04 PROTEUS GERBER X2 FILE*
%TF.GenerationSoftware,Labcenter,Proteus,8.17-SP5-Build39395*%
%TF.CreationDate,2026-01-10T11:00:32+00:00*%
%TF.FileFunction,Other,Mechanical 2*%
%TF.FilePolarity,Positive*%
%TF.Part,Single*%
%TF.SameCoordinates,{bf2e7aaa-9c56-4ce5-bc4f-43878dba84a3}*%
%FSLAX45Y45*%
%MOMM*%
G01*
%TA.AperFunction,NonMaterial*%
%ADD54C,0.101600*%
%TA.AperFunction,Profile*%
%ADD51C,0.101600*%
%TD.AperFunction*%
D54*
X+2888000Y+9910000D02*
X+2887000Y+4570000D01*
X+2888000Y+9910000D02*
X+2760976Y+9783023D01*
X+2888000Y+9910000D02*
X+3014976Y+9782976D01*
X+2887000Y+4570000D02*
X+3014023Y+4696976D01*
X+2887000Y+4570000D02*
X+2760023Y+4697023D01*
X+2919250Y+7240000D02*
X+2919141Y+7242634D01*
X+2918251Y+7247903D01*
X+2916389Y+7253172D01*
X+2913346Y+7258441D01*
X+2908691Y+7263643D01*
X+2903422Y+7267469D01*
X+2898153Y+7269909D01*
X+2892884Y+7271290D01*
X+2887615Y+7271750D01*
X+2887500Y+7271750D01*
X+2855750Y+7240000D02*
X+2855859Y+7242634D01*
X+2856749Y+7247903D01*
X+2858611Y+7253172D01*
X+2861654Y+7258441D01*
X+2866309Y+7263643D01*
X+2871578Y+7267469D01*
X+2876847Y+7269909D01*
X+2882116Y+7271290D01*
X+2887385Y+7271750D01*
X+2887500Y+7271750D01*
X+2855750Y+7240000D02*
X+2855859Y+7237366D01*
X+2856749Y+7232097D01*
X+2858611Y+7226828D01*
X+2861654Y+7221559D01*
X+2866309Y+7216357D01*
X+2871578Y+7212531D01*
X+2876847Y+7210091D01*
X+2882116Y+7208710D01*
X+2887385Y+7208250D01*
X+2887500Y+7208250D01*
X+2919250Y+7240000D02*
X+2919141Y+7237366D01*
X+2918251Y+7232097D01*
X+2916389Y+7226828D01*
X+2913346Y+7221559D01*
X+2908691Y+7216357D01*
X+2903422Y+7212531D01*
X+2898153Y+7210091D01*
X+2892884Y+7208710D01*
X+2887615Y+7208250D01*
X+2887500Y+7208250D01*
X+2780308Y+6946817D02*
X+2780191Y+6880142D01*
X+2805591Y+6880098D01*
X+2805684Y+6933438D01*
X+2818408Y+6946751D01*
X+2843808Y+6946706D01*
X+2856484Y+6933349D01*
X+2856415Y+6893344D01*
X+2843691Y+6880031D01*
X+2793077Y+6986800D02*
X+2780401Y+7000157D01*
X+2780471Y+7040162D01*
X+2793194Y+7053475D01*
X+2805894Y+7053453D01*
X+2818570Y+7040096D01*
X+2831294Y+7053409D01*
X+2843994Y+7053386D01*
X+2856670Y+7040029D01*
X+2856601Y+7000024D01*
X+2843877Y+6986711D01*
X+2818524Y+7013426D02*
X+2818570Y+7040096D01*
X+2844110Y+7120061D02*
X+2844133Y+7133396D01*
X+2856833Y+7133374D01*
X+2856810Y+7120039D01*
X+2844110Y+7120061D01*
X+2831667Y+7266769D02*
X+2831527Y+7186759D01*
X+2780820Y+7240187D01*
X+2857020Y+7240054D01*
X+2857299Y+7400073D02*
X+2806499Y+7400162D01*
X+2819199Y+7400140D02*
X+2806522Y+7413497D01*
X+2831969Y+7440123D01*
X+2806615Y+7466837D01*
X+2819339Y+7480150D01*
X+2857439Y+7480083D01*
X+2857485Y+7506753D02*
X+2806685Y+7506842D01*
X+2819385Y+7506820D02*
X+2806708Y+7520177D01*
X+2832155Y+7546803D01*
X+2806801Y+7573517D01*
X+2819525Y+7586830D01*
X+2857625Y+7586763D01*
D51*
X+2700000Y+4900000D02*
X+2880000Y+5170000D01*
X+2700000Y+4570000D02*
X-4010000Y+4570000D01*
X-4020000Y+9910000D01*
X+2600000Y+9910000D01*
X+2600000Y+8620000D01*
X+2880000Y+8460000D01*
X+2880000Y+5170000D01*
X-2384640Y+9730249D02*
X-2385066Y+9740627D01*
X-2388528Y+9761385D01*
X-2395763Y+9782143D01*
X-2407557Y+9802901D01*
X-2425602Y+9823498D01*
X-2446360Y+9838972D01*
X-2467118Y+9848925D01*
X-2487876Y+9854691D01*
X-2508634Y+9856842D01*
X-2511260Y+9856869D01*
X-2637880Y+9730249D02*
X-2637454Y+9740627D01*
X-2633992Y+9761385D01*
X-2626757Y+9782143D01*
X-2614963Y+9802901D01*
X-2596918Y+9823498D01*
X-2576160Y+9838972D01*
X-2555402Y+9848925D01*
X-2534644Y+9854691D01*
X-2513886Y+9856842D01*
X-2511260Y+9856869D01*
X-2637880Y+9730249D02*
X-2637454Y+9719871D01*
X-2633992Y+9699113D01*
X-2626757Y+9678355D01*
X-2614963Y+9657597D01*
X-2596918Y+9637000D01*
X-2576160Y+9621526D01*
X-2555402Y+9611573D01*
X-2534644Y+9605807D01*
X-2513886Y+9603656D01*
X-2511260Y+9603629D01*
X-2384640Y+9730249D02*
X-2385066Y+9719871D01*
X-2388528Y+9699113D01*
X-2395763Y+9678355D01*
X-2407557Y+9657597D01*
X-2425602Y+9637000D01*
X-2446360Y+9621526D01*
X-2467118Y+9611573D01*
X-2487876Y+9605807D01*
X-2508634Y+9603656D01*
X-2511260Y+9603629D01*
X+2765360Y+5310249D02*
X+2764934Y+5320627D01*
X+2761472Y+5341385D01*
X+2754237Y+5362143D01*
X+2742443Y+5382901D01*
X+2724398Y+5403498D01*
X+2703640Y+5418972D01*
X+2682882Y+5428925D01*
X+2662124Y+5434691D01*
X+2641366Y+5436842D01*
X+2638740Y+5436869D01*
X+2512120Y+5310249D02*
X+2512546Y+5320627D01*
X+2516008Y+5341385D01*
X+2523243Y+5362143D01*
X+2535037Y+5382901D01*
X+2553082Y+5403498D01*
X+2573840Y+5418972D01*
X+2594598Y+5428925D01*
X+2615356Y+5434691D01*
X+2636114Y+5436842D01*
X+2638740Y+5436869D01*
X+2512120Y+5310249D02*
X+2512546Y+5299871D01*
X+2516008Y+5279113D01*
X+2523243Y+5258355D01*
X+2535037Y+5237597D01*
X+2553082Y+5217000D01*
X+2573840Y+5201526D01*
X+2594598Y+5191573D01*
X+2615356Y+5185807D01*
X+2636114Y+5183656D01*
X+2638740Y+5183629D01*
X+2765360Y+5310249D02*
X+2764934Y+5299871D01*
X+2761472Y+5279113D01*
X+2754237Y+5258355D01*
X+2742443Y+5237597D01*
X+2724398Y+5217000D01*
X+2703640Y+5201526D01*
X+2682882Y+5191573D01*
X+2662124Y+5185807D01*
X+2641366Y+5183656D01*
X+2638740Y+5183629D01*
X-2344640Y+4800249D02*
X-2345066Y+4810627D01*
X-2348528Y+4831385D01*
X-2355763Y+4852143D01*
X-2367557Y+4872901D01*
X-2385602Y+4893498D01*
X-2406360Y+4908972D01*
X-2427118Y+4918925D01*
X-2447876Y+4924691D01*
X-2468634Y+4926842D01*
X-2471260Y+4926869D01*
X-2597880Y+4800249D02*
X-2597454Y+4810627D01*
X-2593992Y+4831385D01*
X-2586757Y+4852143D01*
X-2574963Y+4872901D01*
X-2556918Y+4893498D01*
X-2536160Y+4908972D01*
X-2515402Y+4918925D01*
X-2494644Y+4924691D01*
X-2473886Y+4926842D01*
X-2471260Y+4926869D01*
X-2597880Y+4800249D02*
X-2597454Y+4789871D01*
X-2593992Y+4769113D01*
X-2586757Y+4748355D01*
X-2574963Y+4727597D01*
X-2556918Y+4707000D01*
X-2536160Y+4691526D01*
X-2515402Y+4681573D01*
X-2494644Y+4675807D01*
X-2473886Y+4673656D01*
X-2471260Y+4673629D01*
X-2344640Y+4800249D02*
X-2345066Y+4789871D01*
X-2348528Y+4769113D01*
X-2355763Y+4748355D01*
X-2367557Y+4727597D01*
X-2385602Y+4707000D01*
X-2406360Y+4691526D01*
X-2427118Y+4681573D01*
X-2447876Y+4675807D01*
X-2468634Y+4673656D01*
X-2471260Y+4673629D01*
X+2855396Y+8320499D02*
X+2854970Y+8330877D01*
X+2851508Y+8351635D01*
X+2844273Y+8372393D01*
X+2832479Y+8393151D01*
X+2814434Y+8413748D01*
X+2793676Y+8429222D01*
X+2772918Y+8439175D01*
X+2752160Y+8444941D01*
X+2731402Y+8447092D01*
X+2728776Y+8447119D01*
X+2602156Y+8320499D02*
X+2602582Y+8330877D01*
X+2606044Y+8351635D01*
X+2613279Y+8372393D01*
X+2625073Y+8393151D01*
X+2643118Y+8413748D01*
X+2663876Y+8429222D01*
X+2684634Y+8439175D01*
X+2705392Y+8444941D01*
X+2726150Y+8447092D01*
X+2728776Y+8447119D01*
X+2602156Y+8320499D02*
X+2602582Y+8310121D01*
X+2606044Y+8289363D01*
X+2613279Y+8268605D01*
X+2625073Y+8247847D01*
X+2643118Y+8227250D01*
X+2663876Y+8211776D01*
X+2684634Y+8201823D01*
X+2705392Y+8196057D01*
X+2726150Y+8193906D01*
X+2728776Y+8193879D01*
X+2855396Y+8320499D02*
X+2854970Y+8310121D01*
X+2851508Y+8289363D01*
X+2844273Y+8268605D01*
X+2832479Y+8247847D01*
X+2814434Y+8227250D01*
X+2793676Y+8211776D01*
X+2772918Y+8201823D01*
X+2752160Y+8196057D01*
X+2731402Y+8193906D01*
X+2728776Y+8193879D01*
X+2700000Y+4900000D02*
X+2700000Y+4570000D01*
M02*
